<?xml version="1.0" encoding="UTF-8" standalone="no"?><!DOCTYPE svg PUBLIC "-//W3C//DTD SVG 1.1//EN" "http://www.w3.org/Graphics/SVG/1.1/DTD/svg11.dtd"><svg width="100%" height="100%" viewBox="0 0 320 250" version="1.1" xmlns="http://www.w3.org/2000/svg" xmlns:xlink="http://www.w3.org/1999/xlink" xml:space="preserve" xmlns:serif="http://www.serif.com/" style="fill-rule:evenodd;clip-rule:evenodd;stroke-linejoin:round;stroke-miterlimit:2;"><g id="svg_14"><rect id="svg_7" x="55" y="81.031" width="210" height="87.938" style="fill:#1c76bb;fill-rule:nonzero;"/><path id="svg_8" d="M218.522,99.862c9.067,-1.989 18.455,-2.712 27.689,-3.755c-1.21,3.435 -3.018,6.787 -5.938,9.067c-7.135,1.641 -14.575,1.586 -21.723,3.255c-1.349,1.46 -2.031,3.379 -3.004,5.076c6.967,1.446 14.839,2.642 19.734,8.372c5.73,6.982 3.519,17.982 -2.99,23.684c-9.151,8.192 -22.126,10.222 -33.975,10.417c-0.223,-0.723 -0.654,-2.156 -0.877,-2.879c9.138,-1.391 19.276,-2.489 26.341,-9.137c4.7,-4.256 5.744,-12.572 0.904,-17.12c-4.757,-3.95 -11.209,-4.256 -17.037,-5.382c3.088,-7.427 6.648,-14.742 10.876,-21.598l-0,-0Z" style="fill:#fff;fill-rule:nonzero;"/><path id="svg_9" d="M76.417,99.125c10.013,-0.028 20.027,-0.014 30.04,-0.014l-0,5.563c-8.219,0.014 -16.438,-0.014 -24.658,0.014l0,16.66c7.691,0.028 15.396,0 23.086,0.028l0,5.549c-7.69,0.014 -15.395,-0.014 -23.086,0.014l0,18.052c8.498,0.028 16.995,0 25.492,0.028l0,5.535c-10.291,0.028 -20.582,0.028 -30.874,-0l0,-51.429Z" style="fill:#fff;fill-rule:nonzero;"/><path id="svg_10" d="M117.958,99.125c7.997,0.222 16.063,-0.557 24.018,0.431c13.226,3.24 11.974,26.465 -1.905,27.912c7.385,5.785 9.805,15.395 14.602,23.1c-2.336,-0.028 -4.658,-0.028 -6.995,-0.042c-3.602,-6.384 -6.355,-13.323 -10.778,-19.22c-3.185,-4.283 -9.026,-2.781 -13.573,-2.976c-0,7.413 0.013,14.825 -0,22.238l-5.369,-0l0,-51.443Z" style="fill:#fff;fill-rule:nonzero;"/><path id="svg_11" d="M163.852,99.125c7.149,0.194 14.367,-0.501 21.487,0.361c14.158,2.49 13.754,27.3 -0.25,29.762c-5.174,0.918 -10.459,0.292 -15.674,0.459l0,20.861l-5.563,-0l0,-51.443Z" style="fill:#fff;fill-rule:nonzero;"/><path id="svg_12" d="M123.327,104.674c5.382,0.139 10.805,-0.334 16.174,0.222c8.066,1.836 8.08,15.396 0.167,17.454c-5.396,0.862 -10.904,0.222 -16.341,0.389l-0,-18.065l-0,-0Z" style="fill:#1c76bb;fill-rule:nonzero;"/><path id="svg_13" d="M169.415,104.688c5.744,0.57 12.114,-1.461 17.398,1.404c4.59,4.715 4.506,15.103 -2.475,17.523c-4.896,1.057 -9.958,0.362 -14.923,0.515l0,-19.442Z" style="fill:#1c76bb;fill-rule:nonzero;"/></g></svg>