<?xml version="1.0" encoding="UTF-8" standalone="no"?>
<!-- Created with Inkscape (http://www.inkscape.org/) -->

<svg
   xmlns:dc="http://purl.org/dc/elements/1.1/"
   xmlns:cc="http://creativecommons.org/ns#"
   xmlns:rdf="http://www.w3.org/1999/02/22-rdf-syntax-ns#"
   xmlns:svg="http://www.w3.org/2000/svg"
   xmlns="http://www.w3.org/2000/svg"
   xmlns:sodipodi="http://sodipodi.sourceforge.net/DTD/sodipodi-0.dtd"
   xmlns:inkscape="http://www.inkscape.org/namespaces/inkscape"
   width="1250"
   height="780"
   id="svg3146"
   version="1.1"
   inkscape:version="0.91 r13725"
   sodipodi:docname="osoe-what.is.success.rate-screenshot.001.en.svg">
  <defs
     id="defs3148">
    <filter
       id="filter3061"
       inkscape:label="Drop shadow"
       width="1.5"
       height="1.5"
       x="-0.25"
       y="-0.25">
      <feGaussianBlur
         id="feGaussianBlur3063"
         in="SourceAlpha"
         stdDeviation="2"
         result="blur" />
      <feColorMatrix
         id="feColorMatrix3065"
         result="bluralpha"
         type="matrix"
         values="1 0 0 0 0 0 1 0 0 0 0 0 1 0 0 0 0 0 0.5 0 " />
      <feOffset
         id="feOffset3067"
         in="bluralpha"
         dx="4"
         dy="4"
         result="offsetBlur" />
      <feMerge
         id="feMerge3069">
        <feMergeNode
           id="feMergeNode3071"
           in="offsetBlur" />
        <feMergeNode
           id="feMergeNode3073"
           in="SourceGraphic" />
      </feMerge>
    </filter>
    <filter
       id="filter3918"
       inkscape:label="Drop shadow"
       width="1.5"
       height="1.5"
       x="-0.25"
       y="-0.25">
      <feGaussianBlur
         id="feGaussianBlur3920"
         in="SourceAlpha"
         stdDeviation="2"
         result="blur" />
      <feColorMatrix
         id="feColorMatrix3922"
         result="bluralpha"
         type="matrix"
         values="1 0 0 0 0 0 1 0 0 0 0 0 1 0 0 0 0 0 0.5 0 " />
      <feOffset
         id="feOffset3924"
         in="bluralpha"
         dx="4"
         dy="4"
         result="offsetBlur" />
      <feMerge
         id="feMerge3926">
        <feMergeNode
           id="feMergeNode3928"
           in="offsetBlur" />
        <feMergeNode
           id="feMergeNode3930"
           in="SourceGraphic" />
      </feMerge>
    </filter>
    <filter
       id="filter3940"
       inkscape:label="Drop shadow"
       width="1.5"
       height="1.5"
       x="-0.25"
       y="-0.25">
      <feGaussianBlur
         id="feGaussianBlur3942"
         in="SourceAlpha"
         stdDeviation="2"
         result="blur" />
      <feColorMatrix
         id="feColorMatrix3944"
         result="bluralpha"
         type="matrix"
         values="1 0 0 0 0 0 1 0 0 0 0 0 1 0 0 0 0 0 0.5 0 " />
      <feOffset
         id="feOffset3946"
         in="bluralpha"
         dx="4"
         dy="4"
         result="offsetBlur" />
      <feMerge
         id="feMerge3948">
        <feMergeNode
           id="feMergeNode3950"
           in="offsetBlur" />
        <feMergeNode
           id="feMergeNode3952"
           in="SourceGraphic" />
      </feMerge>
    </filter>
    <filter
       id="filter3954"
       inkscape:label="Drop shadow"
       width="1.5"
       height="1.5"
       x="-0.25"
       y="-0.25">
      <feGaussianBlur
         id="feGaussianBlur3956"
         in="SourceAlpha"
         stdDeviation="2"
         result="blur" />
      <feColorMatrix
         id="feColorMatrix3958"
         result="bluralpha"
         type="matrix"
         values="1 0 0 0 0 0 1 0 0 0 0 0 1 0 0 0 0 0 0.5 0 " />
      <feOffset
         id="feOffset3960"
         in="bluralpha"
         dx="4"
         dy="4"
         result="offsetBlur" />
      <feMerge
         id="feMerge3962">
        <feMergeNode
           id="feMergeNode3964"
           in="offsetBlur" />
        <feMergeNode
           id="feMergeNode3966"
           in="SourceGraphic" />
      </feMerge>
    </filter>
  </defs>
  <sodipodi:namedview
     id="base"
     pagecolor="#ffffff"
     bordercolor="#666666"
     borderopacity="1.0"
     inkscape:pageopacity="0.0"
     inkscape:pageshadow="2"
     inkscape:zoom="0.51"
     inkscape:cx="320.45204"
     inkscape:cy="475.29411"
     inkscape:current-layer="layer1"
     inkscape:document-units="px"
     showgrid="false"
     inkscape:window-width="1366"
     inkscape:window-height="705"
     inkscape:window-x="-8"
     inkscape:window-y="-8"
     inkscape:window-maximized="1" />
  <metadata
     id="metadata3151">
    <rdf:RDF>
      <cc:Work
         rdf:about="">
        <dc:format>image/svg+xml</dc:format>
        <dc:type
           rdf:resource="http://purl.org/dc/dcmitype/StillImage" />
        <dc:title></dc:title>
      </cc:Work>
    </rdf:RDF>
  </metadata>
  <g
     id="layer1"
     inkscape:label="Layer 1"
     inkscape:groupmode="layer"
     transform="translate(0,100)">
    <g
       id="g4191"
       transform="matrix(1.7696889,0,0,1.8016033,34.807186,-209.9336)">
      <path
         style="fill:#fefefe"
         d="m 190.42157,276.56862 0,-205.470575 213.99021,0 213.9902,0 0,205.470575 0,205.47059 -213.9902,0 -213.99021,0 0,-205.47059 z"
         id="path4207"
         inkscape:connector-curvature="0" />
      <path
         style="fill:#8cd6e4"
         d="m 497.45099,476.08312 c -18.77706,-1.22437 -37.11471,-7.20178 -52.78551,-17.20609 -8.18903,-5.22792 -18.48262,-14.28606 -24.25529,-21.34409 -12.34823,-15.09774 -19.8847,-32.63216 -22.12534,-51.47705 -1.0912,-9.17743 -0.44257,-22.23261 1.57077,-31.61584 4.91227,-22.89371 19.48236,-44.85336 39.34745,-59.30342 15.16112,-11.02835 32.27207,-17.77019 51.98202,-20.48131 4.85233,-0.66745 22.49583,-0.6669 27.34214,7.4e-4 13.83223,1.90585 24.61117,5.16729 36.45618,11.03074 28.32319,14.02039 48.86207,39.86914 55.05753,69.29134 2.92983,13.91371 2.73445,29.51999 -0.53434,42.68589 -4.51043,18.16687 -13.56493,33.98906 -26.97504,47.13713 -13.2293,12.97079 -28.19149,21.77217 -45.93385,27.0202 -11.71303,3.46462 -26.56847,5.08183 -39.14672,4.26166 z m 16.42427,-11.3603 c -0.36551,-0.0933 -0.96362,-0.0933 -1.32913,0 -0.36551,0.0933 -0.0664,0.16961 0.66457,0.16961 0.73102,0 1.03008,-0.0763 0.66456,-0.16961 z m 3.61487,-0.3585 c -0.2571,-0.10162 -0.76976,-0.10778 -1.13925,-0.0137 -0.36949,0.0941 -0.15913,0.17717 0.46746,0.18474 0.62659,0.007 0.9289,-0.0694 0.67179,-0.17098 z m 2.65104,-0.37326 c -0.26108,-0.10288 -0.6883,-0.10288 -0.94938,0 -0.26108,0.10289 -0.0475,0.18708 0.47469,0.18708 0.52216,0 0.73577,-0.0842 0.47469,-0.18708 z m 2.46048,-0.34933 c -0.12619,-0.12325 -0.45373,-0.13642 -0.72786,-0.0293 -0.30294,0.11838 -0.21296,0.20628 0.22943,0.22408 0.40032,0.016 0.62462,-0.0716 0.49843,-0.19482 z m -3.12504,-0.73009 c 2.52898,-0.23581 10.2947,-1.75611 13.38625,-2.62064 1.09653,-0.30665 1.99306,-0.75435 1.99228,-0.99487 -0.003,-0.79336 -1.46004,-2.79102 -1.9684,-2.69797 -0.27421,0.0502 -1.62262,0.43991 -2.99645,0.86602 -2.30249,0.71414 -7.56812,1.76568 -16.08178,3.21154 -3.01399,0.51186 -3.9905,0.94316 -4.00976,1.77098 -0.01,0.42273 3.88327,0.99015 5.69046,0.82937 0.93989,-0.0836 2.73421,-0.2476 3.9874,-0.36443 z m 5.22881,0.34003 c -0.2571,-0.10163 -0.76977,-0.10778 -1.13925,-0.0137 -0.36949,0.0941 -0.15913,0.17717 0.46746,0.18474 0.62659,0.007 0.92889,-0.0694 0.67179,-0.17098 z m 3.50548,-0.67357 c 2.03936,-0.65643 1.23664,-0.68206 -1.13926,-0.0364 -1.04431,0.2838 -1.55698,0.51809 -1.13925,0.52065 0.41773,0.004 1.44306,-0.21533 2.27851,-0.48426 z m 2.74529,-0.7908 c -0.12619,-0.12325 -0.45373,-0.13641 -0.72786,-0.0293 -0.30294,0.11838 -0.21296,0.20628 0.22944,0.22409 0.40032,0.0159 0.62461,-0.0716 0.49842,-0.19483 z m 1.05223,-0.1468 c 0.12908,-0.20399 0.0537,-0.37088 -0.16746,-0.37088 -0.22119,0 -0.40217,0.16689 -0.40217,0.37088 0,0.20399 0.0754,0.37089 0.16746,0.37089 0.0921,0 0.27308,-0.1669 0.40217,-0.37089 z m 2.27851,-0.74177 c 0.47873,-0.20091 0.54892,-0.31874 0.18988,-0.31874 -0.3133,0 -0.91141,0.14342 -1.32914,0.31874 -0.47873,0.20091 -0.54892,0.31874 -0.18987,0.31874 0.31329,0 0.9114,-0.14342 1.32913,-0.31874 z m 31.65342,-17.74008 c 16.28468,-12.53176 27.40252,-29.86773 31.73458,-49.48348 1.08624,-4.91862 1.76357,-10.44937 1.67869,-13.70759 -0.0334,-1.28295 -0.11677,-1.74851 -0.1852,-1.03455 -1.82809,19.07147 -8.22395,34.92709 -20.19722,50.06955 -3.19375,4.03909 -12.62424,13.26097 -16.67757,16.30865 -1.72312,1.29557 -3.13295,2.41443 -3.13295,2.48634 0,0.28658 3.42006,-2.05356 6.77967,-4.63892 z M 474.476,379.53219 c 3.13003,-0.16278 7.75035,-0.9981 8.25686,-1.49278 0.0919,-0.0898 0.33724,-2.05337 0.5452,-4.36358 l 0.3781,-4.20038 -1.50654,-1.54515 c -3.18423,-3.26582 -3.03047,-7.95643 0.45164,-13.7775 0.32326,-0.5404 0.53237,-2.18826 0.56479,-4.45063 0.0774,-5.40328 0.442,-8.52685 1.02056,-8.74368 1.22366,-0.4586 1.55983,-5.14177 0.46221,-6.439 -0.54946,-0.64939 -1.6921,-0.57793 -1.96752,0.12305 -0.12678,0.32267 -0.23051,1.99689 -0.23051,3.7205 0,3.51004 -0.29831,3.91162 -2.30324,3.10055 -2.19439,-0.88773 -2.95908,-3.79853 -3.2842,-12.50127 l -0.22493,-6.02077 -0.98129,0.95838 c -1.25936,1.22995 -3.75789,2.47726 -4.44583,2.21943 -0.29305,-0.10982 -0.53282,-0.45526 -0.53282,-0.76765 0,-0.77321 -0.50699,-0.71344 -1.31133,0.1546 -0.87546,0.94478 -6.64047,3.72806 -7.72195,3.72806 -1.03712,0 -1.05334,-0.38252 -0.0822,-1.93819 1.05098,-1.68352 0.97321,-1.81091 -0.74424,-1.21911 -0.82784,0.28526 -2.92122,0.72045 -4.65196,0.96708 -1.73074,0.24664 -3.36373,0.64092 -3.62887,0.87617 -0.73439,0.65163 -1.02058,4.99577 -0.47535,7.21548 0.94084,3.83028 4.12216,5.62015 6.60249,3.71467 l 1.00059,-0.76869 0,3.19631 c 0,2.89909 0.0867,3.28095 0.93212,4.10666 1.12844,1.10209 1.89474,1.13546 4.05812,0.17673 2.41175,-1.06881 4.9113,-0.99232 6.11907,0.18725 2.00916,1.96226 1.66385,6.63207 -0.59049,7.98554 -2.26402,1.35928 -3.88572,1.57507 -6.90552,0.91892 -1.51084,-0.32829 -3.07007,-0.83576 -3.46495,-1.12772 -0.39489,-0.29196 -0.97431,-0.53639 -1.28761,-0.54317 -0.33143,-0.007 -2.59687,-3.32983 -5.41763,-7.94585 -4.39189,-7.18713 -4.81169,-8.02679 -4.46208,-8.92486 0.61889,-1.58982 0.48476,-2.42659 -0.38896,-2.42659 -0.42619,0 -1.28945,-0.37156 -1.91837,-0.82568 -1.06043,-0.7657 -1.2179,-0.78501 -2.16819,-0.26577 -0.5636,0.30795 -1.08145,0.9457 -1.15079,1.41722 -0.15858,1.07835 0.59192,2.89394 1.30705,3.16195 0.69817,0.26166 11.22249,21.03379 12.08651,23.85548 0.36078,1.17821 0.72936,2.36961 0.81907,2.64757 0.23664,0.73315 1.16015,-0.0944 2.08837,-1.87138 0.73642,-1.40981 1.52023,-1.73372 2.592,-1.07118 0.80821,0.49961 -0.4478,3.41565 -2.28259,5.29937 l -1.46932,1.50852 1.38813,5.60324 c 0.76348,3.08179 1.52992,5.76256 1.7032,5.95727 0.65461,0.73555 4.77754,0.86981 13.22318,0.43058 z m -5.9605,-8.20212 c -0.47181,-0.32275 -1.16393,-1.60681 -1.64927,-3.05981 -0.45996,-1.37701 -1.09084,-3.04473 -1.40197,-3.70604 -0.81289,-1.72785 -0.42399,-2.39167 1.31871,-2.25088 1.38995,0.11228 1.42753,0.15405 1.44271,1.60367 0.0102,0.97466 0.43619,2.20636 1.2342,3.56856 1.96668,3.35714 1.44539,5.47928 -0.94438,3.8445 z m -3.41429,-38.66501 c -0.55605,-1.5234 -0.95175,-1.64651 -2.03486,-0.63306 -1.29047,1.20749 -1.71092,0.70137 -0.72831,-0.87668 0.97961,-1.57324 2.39613,-1.61079 3.20404,-0.0849 0.31866,0.60183 0.57938,1.35287 0.57938,1.66898 0,0.78175 -0.72711,0.72879 -1.02025,-0.0743 z m 5.04158,-0.27816 c -0.28643,-1.1146 -1.18147,-1.20984 -1.74282,-0.18545 -0.42742,0.77999 -1.519,1.02602 -1.519,0.34236 0,-0.21968 0.50802,-0.89557 1.12893,-1.50199 0.95607,-0.93375 1.24958,-1.03951 1.91693,-0.69069 0.71688,0.37471 1.51116,1.74982 1.51116,2.61624 0,0.76577 -1.07279,0.28497 -1.2952,-0.58047 z m 26.42386,44.07789 c 0.96503,-0.85295 0.86682,-2.16612 -0.2373,-3.17276 -0.51247,-0.46722 -1.38004,-1.85089 -1.92792,-3.07481 -3.3477,-7.4784 -7.98637,-14.64998 -9.47579,-14.64998 -0.84199,0 -2.18834,3.36563 -2.38354,5.95841 -0.14265,1.89473 -0.0299,2.71765 0.50825,3.70886 l 0.69158,1.27385 0.3108,-2.01579 c 0.17094,-1.10868 0.38507,-2.08832 0.47584,-2.17697 0.4185,-0.40872 4.17752,2.82537 5.46185,4.69913 2.16983,3.16564 2.85542,4.84125 2.96773,7.25327 0.0597,1.28162 0.30485,2.3219 0.58868,2.4978 0.80494,0.49886 2.28136,0.35169 3.01982,-0.30101 z m 71.34936,-0.13895 c 1.07968,-0.56434 1.87105,-2.31848 2.00004,-4.43323 0.1214,-1.99052 0.12994,-1.9993 1.59564,-1.64002 2.18255,0.53499 4.71178,-1.76099 4.18745,-3.8013 -0.12782,-0.49742 -1.01625,-1.63794 -1.97433,-2.53448 l -1.74192,-1.63008 0.8042,-1.62241 c 1.15133,-2.32285 1.05594,-3.828 -0.32233,-5.08544 -1.24817,-1.13872 -3.60714,-1.87203 -5.11597,-1.59033 -0.53964,0.10075 -1.39883,0.66797 -1.90933,1.26051 l -0.92819,1.07733 -0.39773,-1.44258 c -0.60945,-2.21047 -2.04046,-3.39631 -4.0985,-3.39631 -2.16964,0 -4.43842,1.22232 -5.20775,2.80572 -0.32086,0.66037 -0.58338,2.12312 -0.58338,3.25053 l 0,2.04986 -2.09941,0.25618 c -3.52594,0.43025 -5.47844,2.22916 -5.49003,5.05817 -0.0135,3.291 1.4874,4.57719 5.21535,4.46929 2.18735,-0.0633 2.41973,-0.003 2.17564,0.56999 -0.1503,0.35248 -0.35713,1.40684 -0.45962,2.34303 -0.1666,1.52174 -0.0758,1.78712 0.8567,2.50348 1.7598,1.35194 3.33593,0.82179 4.62966,-1.55725 0.33815,-0.62182 0.46061,-0.55429 1.24627,0.68725 0.4792,0.75726 1.40184,1.69282 2.05032,2.07902 1.3001,0.77427 4.36384,0.95206 5.56722,0.32307 z m 31.76154,-1.00189 c -0.0963,-0.36086 -0.18141,-0.15541 -0.18915,0.45655 -0.008,0.61196 0.0711,0.90721 0.17506,0.65611 0.10406,-0.2511 0.11036,-0.7518 0.014,-1.11266 z m -1.40242,-22.12474 c 0,-0.8086 -3.60727,-10.5653 -4.06095,-10.98385 -0.33168,-0.30598 -0.48347,-0.3477 -0.33726,-0.0927 0.1868,0.32591 -0.0753,0.46361 -0.88255,0.46361 -1.39122,0 -2.17514,1.09324 -1.57247,2.19299 0.2138,0.39019 0.6043,0.78306 0.86777,0.87303 0.36084,0.12321 0.32617,0.3371 -0.14059,0.86681 -1.00296,1.13824 -1.17738,2.2426 -0.54334,3.44006 0.6984,1.31903 1.64595,1.68319 3.0363,1.16692 1.3455,-0.49962 1.35458,-0.49734 1.35458,0.34041 0,0.39641 0.37979,0.98055 0.844,1.2981 0.80518,0.55081 1.43451,0.74149 1.43451,0.43464 z m -12.19615,-19.58745 c 0.91562,-0.43053 1.74727,-1.09088 1.8481,-1.46743 0.10082,-0.37656 0.33429,-0.68465 0.51878,-0.68465 0.18452,0 0.33547,-0.14365 0.33547,-0.31922 0,-0.33187 -5.23917,-8.25588 -5.67421,-8.58203 -0.13607,-0.10199 -1.09126,-1.27028 -2.12267,-2.5962 -4.58998,-5.90057 -16.00551,-15.98221 -21.63389,-19.106 -2.56501,-1.4236 -2.15914,-1.05604 2.03477,1.8427 4.35154,3.0077 9.95346,7.70483 13.62999,11.4286 4.08241,4.13486 3.3354,3.72675 -1.13925,-0.62239 -4.94568,-4.80695 -13.67155,-11.54411 -16.38689,-12.65216 -1.15093,-0.46967 -1.35186,-0.4404 -2.58214,0.37608 -1.45704,0.96696 -2.58189,2.89669 -2.58189,4.42932 0,2.23732 2.19833,5.37255 5.62497,8.02226 l 2.01734,1.55994 -1.63759,0.90275 c -4.65532,2.56634 -5.93887,6.04122 -3.35014,9.0697 1.0126,1.18461 1.17545,1.2397 3.66464,1.2397 2.18575,0 2.98084,-0.19007 4.9408,-1.18108 l 2.33585,-1.18109 0.23093,1.18109 c 0.40283,2.06028 1.97114,4.88857 3.49613,6.3049 3.58541,3.32995 11.57311,4.31935 16.4309,2.03521 z m -224.1274,-50.2104 c -20.42901,-18.47321 -37.09063,-33.72481 -37.02581,-33.89244 0.0648,-0.16764 5.24451,-5.7322 11.51041,-12.3657 14.28325,-15.12117 18.54176,-20.12436 23.42686,-27.52339 6.23477,-9.44328 10.47958,-19.35944 12.67422,-29.60778 1.19277,-5.56994 1.65946,-15.46559 0.95746,-20.30213 -2.11079,-14.54259 -9.8993,-25.76773 -21.86846,-31.51775 -6.61209,-3.17648 -12.5375,-4.42838 -20.96004,-4.42838 -24.03405,0 -50.06632,14.45574 -68.00337,37.76231 -10.66221,13.85399 -17.27296,30.0925 -18.22543,44.76859 l -0.28095,4.32908 -25.79958,8.68389 c -14.18976,4.77614 -25.9167,8.5567 -26.05985,8.40126 -1.07701,-1.16944 -1.83301,-18.63649 -1.1503,-26.57699 2.13156,-24.792 12.12767,-49.86396 28.32553,-71.04531 9.6393,-12.60497 21.81588,-24.31425 34.6701,-33.339573 11.17081,-7.843354 26.11315,-15.190635 39.38185,-19.364397 14.40438,-4.531 25.89111,-6.166331 40.75861,-5.80268 11.66175,0.28524 20.18681,1.723719 30.27307,5.108135 27.36473,9.182162 47.90199,29.280935 57.19815,55.976935 4.00348,11.49689 5.42444,20.5069 5.41051,34.30691 -0.0106,10.46565 -0.40611,14.41401 -2.43367,24.293 -3.90074,19.00592 -12.87775,38.41673 -25.73053,55.6366 l -1.52535,2.04364 17.81161,16.09795 c 17.71581,16.01136 17.80784,16.10211 17.10837,16.87152 -1.73966,1.91363 -33.15097,35.08015 -33.22107,35.07742 -0.0433,-0.002 -16.79332,-15.11751 -37.22234,-33.59072 z"
         id="path4205"
         inkscape:connector-curvature="0" />
      <path
         style="fill:#85cfdd"
         d="m 495.74211,475.68501 c -20.3996,-1.62088 -40.94515,-9.3116 -57.04339,-21.35285 -21.31317,-15.94195 -35.29765,-38.41351 -39.42099,-63.34535 -5.10184,-30.84836 4.84594,-61.76945 27.11341,-84.27774 17.46907,-17.65799 38.13597,-27.85204 64.22432,-31.67896 5.37455,-0.7884 24.24324,-0.68276 29.81053,0.1669 31.50035,4.80745 57.70482,20.82807 74.73776,45.69244 3.34717,4.88619 8.64676,15.20283 10.66913,20.76958 2.19234,6.03461 4.01633,13.12444 5.02316,19.52506 1.11082,7.06169 1.20473,20.10342 0.19322,26.83563 -2.71845,18.09302 -9.19011,33.05018 -20.70122,47.84424 -5.08895,6.54027 -15.0746,15.79627 -22.64294,20.98833 -5.35566,3.67415 -15.19665,8.95496 -20.69721,11.10643 -16.40243,6.41565 -34.13188,9.08766 -51.26578,7.72629 z m 18.32825,-10.96761 c -0.46707,-0.088 -1.32151,-0.0903 -1.89876,-0.005 -0.57724,0.0853 -0.19509,0.15729 0.84922,0.16008 1.04432,0.004 1.51661,-0.067 1.04954,-0.155 z m 9.0962,-1.0631 c 3.08513,-0.52432 7.10564,-1.43907 8.93447,-2.03283 3.99786,-1.29787 3.00614,-1.19859 -3.13063,0.31351 -4.03774,0.9949 -9.58876,2.03876 -12.91156,2.42801 -1.07982,0.12651 -1.07045,0.13637 0.17958,0.18904 0.72536,0.0304 3.84302,-0.37341 6.92814,-0.89773 z m -5.65329,-0.36477 c 4.83245,-0.60258 12.52222,-2.04636 15.44453,-2.89977 1.04278,-0.30449 1.75901,-0.74781 1.83749,-1.13724 0.15804,-0.78424 -2.38378,-4.60584 -3.27739,-4.92751 -0.3568,-0.12848 -0.73418,-0.33302 -0.83861,-0.45463 -0.25139,-0.29267 -2.22897,-1.54945 -3.40774,-2.16568 -0.51664,-0.27008 -1.54197,-0.54961 -2.27851,-0.6212 -0.73654,-0.0716 -1.96886,-0.24556 -2.73848,-0.38661 -0.76962,-0.14104 -1.96584,-0.088 -2.65826,0.11787 -0.69242,0.20588 -1.72789,0.4757 -2.30104,0.59961 -0.57315,0.12388 -1.02286,0.34752 -0.99935,0.49691 0.1101,0.69968 -0.0905,0.96457 -0.38583,0.50934 -0.25415,-0.39173 -0.6759,-0.1962 -1.89294,0.87766 -0.86127,0.75995 -1.56594,1.61265 -1.56594,1.8949 0,0.28224 -0.15696,0.51315 -0.3488,0.51315 -0.45285,0 -1.85313,4.13241 -2.16791,6.39778 l -0.24479,1.7617 1.60098,0 c 0.88054,0 3.6807,-0.25932 6.22259,-0.57628 z m -31.83626,-2.76432 c -0.71177,-1.12478 -5.85608,-2.69964 -7.21361,-2.20836 -0.69114,0.25012 -0.65696,0.31558 0.37975,0.72712 1.61084,0.63948 5.56622,1.76271 6.38326,1.81274 0.37784,0.023 0.58061,-0.12607 0.4506,-0.3315 z m 58.29359,-2.96445 c 1.69052,-0.90392 1.04994,-0.90392 -0.94938,0 -0.83545,0.37771 -1.26267,0.69215 -0.94938,0.69871 0.3133,0.007 1.16774,-0.30783 1.89876,-0.69871 z m 16.51921,-10.34941 c 6.35151,-4.28937 11.49585,-8.66332 16.39446,-13.93933 5.72169,-6.16248 9.60803,-11.60283 13.32641,-18.65523 1.36726,-2.59315 2.36836,-4.21412 2.22466,-3.60216 -0.23639,1.00694 -0.17518,0.96848 0.64448,-0.40486 2.07371,-3.47462 5.21745,-13.04964 6.30897,-19.21544 2.18122,-12.32161 1.96871,-22.91072 -0.72609,-36.18285 -0.94862,-4.67197 -2.55713,-9.45087 -4.6553,-13.83082 -1.60525,-3.35097 -2.43413,-4.35024 -1.02168,-1.23166 1.61614,3.56827 0.35146,1.97127 -2.07801,-2.624 -2.49375,-4.71685 -2.85748,-5.69443 -2.11867,-5.69443 0.89413,0 -3.41708,-6.67086 -7.55038,-11.6829 -3.09847,-3.75722 -9.66476,-10.30085 -12.96393,-12.91917 -1.56648,-1.2432 -2.93359,-2.36355 -3.03802,-2.48966 -0.29166,-0.3522 -6.15449,-4.27816 -7.12035,-4.76804 -1.76027,-0.89281 -0.72844,-0.0314 3.41777,2.85326 2.34972,1.63479 4.69943,3.43987 5.22159,4.0113 0.64251,0.70314 0.33564,0.55088 -0.94938,-0.47106 -3.38057,-2.68846 -8.67462,-6.059 -9.51676,-6.059 -0.45124,0 -1.44239,0.41222 -2.20256,0.91603 -0.76016,0.50383 -1.38212,0.74432 -1.38212,0.53445 0,-0.20988 -0.18913,-0.26744 -0.4203,-0.12791 -0.30458,0.18385 -0.30052,0.32598 0.0147,0.51627 0.31389,0.18946 0.32518,0.54472 0.0405,1.27588 -1.03392,2.65594 -0.12175,5.26865 2.94958,8.44842 1.32805,1.37492 2.74237,2.60146 3.14294,2.72562 1.05779,0.3279 0.89821,0.64769 -0.70013,1.40301 -3.97597,1.8789 -5.55548,5.13705 -4.02121,8.29479 1.52599,3.1407 5.55615,3.64716 10.27445,1.29116 l 1.59692,-0.79739 0.26231,1.38988 c 0.38148,2.02126 2.51028,5.06121 4.60036,6.56936 2.58722,1.86684 5.16653,2.51683 9.95588,2.50885 l 4.01322,-0.007 2.37186,4.68954 c 1.30452,2.57924 2.47879,5.22925 2.60954,5.88889 0.13075,0.65965 0.36699,1.12133 0.52501,1.02596 0.32165,-0.19416 0.7595,1.60717 0.7595,3.12471 0,0.54566 0.15148,1.15067 0.33665,1.34446 0.42916,0.44913 2.11848,7.49682 2.84035,11.84979 2.03684,12.28181 0.32568,27.90762 -4.32894,39.53087 -1.33339,3.32968 -1.40717,4.2821 -0.35697,4.60765 0.42331,0.13121 1.03103,0.62818 1.35051,1.10438 0.54529,0.8128 0.48373,1.05526 -1.00543,3.95889 -3.04591,5.93899 -6.8781,11.76808 -11.2991,17.18672 -5.0188,6.15141 -15.4781,15.43837 -22.94894,20.37671 -1.20096,0.79388 -2.18357,1.51136 -2.18357,1.5944 0,0.28139 4.35112,-2.25617 7.40516,-4.31866 z m 39.36429,-79.034 c 0,-0.50997 0.0862,-0.71859 0.19155,-0.46361 0.10534,0.25499 0.10534,0.67223 0,0.92722 -0.10535,0.25498 -0.19155,0.0464 -0.19155,-0.46361 z m -0.40975,-3.9252 c 0.0182,-0.43207 0.10823,-0.51995 0.22944,-0.22408 0.10971,0.26773 0.0962,0.58762 -0.03,0.71086 -0.12619,0.12324 -0.21596,-0.0958 -0.19948,-0.48678 z m -0.58231,-3.32393 c -0.1453,-0.94606 -0.18646,-1.79597 -0.0915,-1.88869 0.0949,-0.0927 0.29146,0.60546 0.43672,1.55152 0.14529,0.94607 0.18646,1.79598 0.0915,1.8887 -0.0949,0.0927 -0.29146,-0.60547 -0.43671,-1.55153 z m -0.87628,-4.47129 c -0.25242,-1.1753 -0.39529,-2.19909 -0.31744,-2.27509 0.21752,-0.21247 1.07603,3.53402 0.91672,4.00073 -0.0772,0.2262 -0.34686,-0.55035 -0.59928,-1.72564 z m -24.82271,-43.81969 c -0.47234,-0.58824 -0.45893,-0.60136 0.14339,-0.14003 0.36551,0.27996 0.66457,0.57204 0.66457,0.64905 0,0.30525 -0.31186,0.10878 -0.80796,-0.50902 z m -4.34259,-3.8943 -1.11536,-1.20537 1.23419,1.08932 c 1.15045,1.0154 1.40877,1.32143 1.11537,1.32143 -0.0654,0 -0.62074,-0.54242 -1.2342,-1.20538 z m 1.16315,132.49886 c 0.37804,-0.40798 0.60191,-0.74177 0.49748,-0.74177 -0.10444,0 -0.49919,0.33379 -0.87723,0.74177 -0.37804,0.40797 -0.6019,0.74177 -0.49747,0.74177 0.10443,0 0.49918,-0.3338 0.87722,-0.74177 z m 3.41777,-2.96709 c 0.37804,-0.40797 0.6019,-0.74177 0.49747,-0.74177 -0.10443,0 -0.49918,0.3338 -0.87722,0.74177 -0.37805,0.40798 -0.60191,0.74177 -0.49748,0.74177 0.10443,0 0.49918,-0.33379 0.87723,-0.74177 z m -124.35882,-5.89768 c 1.47676,-0.29942 2.67854,-0.31224 4.12665,-0.044 1.12371,0.20813 2.09746,0.37842 2.16389,0.37842 0.0664,0 0.54801,0.41725 1.07016,0.92721 1.42129,1.3881 1.74239,1.16724 1.75247,-1.20537 0.009,-2.04636 0.34675,-3.97942 0.94314,-5.39301 0.18775,-0.44502 0.12387,-0.62861 -0.19358,-0.55633 -0.26059,0.0593 -0.54765,-0.0876 -0.6379,-0.32653 -0.10531,-0.2788 0.11576,-0.36295 0.6171,-0.23491 0.42965,0.10973 0.78159,0.0549 0.78208,-0.12191 3.8e-4,-0.17678 0.51275,-0.90556 1.13836,-1.61952 0.62562,-0.71395 1.13788,-1.42327 1.13837,-1.57626 3.8e-4,-0.15299 0.17029,-0.27816 0.37734,-0.27816 0.20705,0 0.84788,-0.45898 1.42407,-1.01994 0.57619,-0.56096 1.30395,-1.05277 1.61725,-1.09291 0.31329,-0.0401 1.76584,-0.49202 3.22789,-1.00418 1.46204,-0.51217 3.17947,-0.93831 3.81651,-0.94697 0.63703,-0.009 1.3538,-0.20674 1.59282,-0.44018 0.32146,-0.31395 0.71188,-0.31753 1.50002,-0.0138 0.58599,0.22587 2.26166,0.37514 3.7237,0.33171 2.43886,-0.0724 2.66828,-0.14783 2.77962,-0.91345 0.0816,-0.56129 -0.0738,-0.8345 -0.47469,-0.8345 -0.32783,0 -0.59604,0.23209 -0.59604,0.51575 0,0.31609 -0.52954,0.57613 -1.36783,0.67171 -1.20348,0.13722 -1.28602,0.0975 -0.68692,-0.3303 0.54911,-0.39215 0.56885,-0.48627 0.10199,-0.48627 -0.31841,0 -0.70709,0.12517 -0.86374,0.27816 -0.15665,0.15299 -0.78754,0.27817 -1.40198,0.27817 -1.29335,0 -1.40915,-1.04112 -0.13572,-1.22019 0.97687,-0.13735 8.91122,-11.32344 8.91122,-12.56331 0,-0.47656 0.1608,-0.86648 0.35734,-0.86648 0.6618,0 0.76145,0.6275 0.2122,1.33618 -0.62742,0.80954 -0.75246,2.37268 -0.18979,2.37268 0.20886,0 0.37975,-0.41725 0.37975,-0.92722 0,-1.37831 0.74978,-1.1237 0.81917,0.27817 0.043,0.86958 0.12293,0.68876 0.28679,-0.64905 0.12492,-1.01994 0.0771,-2.11509 -0.10638,-2.43367 -0.21573,-0.37471 -0.11681,-0.9885 0.28016,-1.73821 0.3375,-0.63744 0.50037,-1.44727 0.36192,-1.79964 -0.1711,-0.43549 -0.10943,-0.55478 0.19257,-0.37249 0.61717,0.37253 0.55809,-0.35324 -0.0794,-0.97589 -0.31013,-0.30288 -0.48362,-1.10783 -0.4254,-1.97364 0.0928,-1.37976 0.0756,-1.40547 -0.30401,-0.45632 -0.4648,1.16201 -1.39667,1.64554 -1.83838,0.95389 -0.16725,-0.26189 -0.4118,-1.17163 -0.54344,-2.02163 -0.189,-1.22037 -0.42922,-1.59202 -1.14194,-1.76672 -0.52243,-0.12806 -1.46375,-1.03929 -2.23485,-2.16339 -1.18787,-1.73168 -2.98327,-4.00421 -5.12946,-6.4926 -0.69971,-0.81128 -0.88727,-0.83417 -5.20382,-0.63504 -3.01637,0.13915 -4.75934,0.38665 -5.34008,0.75827 -0.8805,0.56346 -2.83785,3.3126 -2.90883,4.08551 -0.0448,0.48743 4.44404,5.80276 6.93766,8.2151 l 1.66045,1.60632 -1.85033,1.96298 c -1.76334,1.87068 -1.88336,1.93331 -2.55301,1.33222 -0.58905,-0.52874 -0.62906,-0.76511 -0.24739,-1.46163 0.42344,-0.77273 0.11385,-1.16384 -4.42396,-5.58881 -2.6836,-2.61686 -4.93405,-5.01476 -5.00102,-5.32867 -0.12137,-0.56898 1.8419,-6.1681 2.83206,-8.07685 l 0.5214,-1.00513 5.62159,0.22538 c 5.73643,0.22997 11.0086,-0.18449 14.81228,-1.16446 l 1.93016,-0.49727 0.41932,2.09418 c 1.02871,5.13753 1.39494,6.5051 1.77522,6.62889 0.63913,0.20807 0.80858,-1.55076 0.20266,-2.10356 -0.39363,-0.35912 -0.49984,-1.09838 -0.38349,-2.66928 0.1184,-1.59871 0.0327,-2.17261 -0.32466,-2.17261 -1.09149,0 -1.46211,-1.63048 -1.40805,-6.1944 l 0.0536,-4.52542 -1.43216,-1.47036 c -1.74131,-1.78775 -2.47858,-4.31933 -2.09184,-7.18279 0.27925,-2.06759 1.37254,-4.87059 2.28296,-5.85311 0.62932,-0.67915 0.87587,-1.75252 0.91573,-3.98661 0.0566,-3.17417 4.299,-5.8091 7.82294,-4.85881 3.95463,1.06643 7.6255,7.77336 8.43209,15.40606 0.11483,1.08657 0.32586,1.97559 0.46895,1.97559 0.1431,0 0.26334,0.54242 0.2672,1.20538 0.004,0.66295 0.10431,2.12332 0.22322,3.24524 0.11892,1.12193 0.2311,2.2485 0.24931,2.50348 0.0182,0.25498 0.28943,0.46361 0.60272,0.46361 0.70776,0 0.71153,0.18292 0.0251,1.21842 -0.59104,0.89162 -0.60855,5.19231 -0.0319,7.83773 0.28132,1.29062 0.24342,1.42553 -0.3391,1.20721 -0.51775,-0.19405 -0.63032,-0.0705 -0.53471,0.58687 0.0949,0.65281 0.32617,0.8048 1.07049,0.70368 1.21526,-0.16512 1.38224,-0.33839 0.83816,-0.86976 -0.32123,-0.31373 -0.32748,-0.56288 -0.0231,-0.92104 0.30657,-0.36076 0.28547,-0.64601 -0.0795,-1.07557 -0.32682,-0.3846 -0.36345,-0.67009 -0.10705,-0.83449 0.21434,-0.13745 0.40481,-1.41659 0.42326,-2.84256 0.0361,-2.79192 -0.16345,-2.46624 3.00931,-4.91096 0.45821,-0.35307 0.9232,-0.89542 1.03329,-1.20523 0.1101,-0.30981 0.3558,-0.81363 0.546,-1.11962 0.81604,-1.31276 1.94614,-4.08935 2.71717,-6.67593 0.45605,-1.52991 1.07338,-3.29264 1.37185,-3.91719 0.29846,-0.62455 4.86583,-14.8899 10.14969,-31.70078 l 9.60702,-30.56522 -1.66553,-0.86594 c -0.91605,-0.47626 -2.21015,-0.92239 -2.87577,-0.9914 -0.66563,-0.069 -1.70209,-0.31369 -2.30325,-0.54373 -1.0873,-0.41607 -6.64165,-1.62568 -9.54004,-2.07761 -0.83545,-0.13026 -4.75173,-0.32072 -8.70285,-0.42323 -10.96854,-0.28458 -17.77439,0.5386 -27.81983,3.36488 -29.90796,8.4146 -53.94806,32.46851 -61.00921,61.04428 -1.8182,7.35806 -2.32042,11.53871 -2.31684,19.28604 0.003,7.15214 0.23659,9.46992 1.71711,17.06074 1.64879,8.4536 6.86776,20.76992 11.78703,27.81641 3.45892,4.95464 7.46823,9.947 8.5382,10.6317 0.49865,0.3191 0.90663,0.81133 0.90663,1.09385 0,0.28252 0.25633,0.51367 0.56963,0.51367 0.31329,0 0.56962,0.19537 0.56962,0.43415 0,0.23878 0.89648,1.21835 1.99217,2.1768 l 1.99216,1.74265 2.09769,-1.57645 c 1.45012,-1.08979 2.74089,-1.70686 4.18122,-1.99889 z m 8.03889,-1.70547 c 0.008,-0.61196 0.0928,-0.81741 0.18913,-0.45655 0.0963,0.36086 0.0899,0.86156 -0.0141,1.11266 -0.10402,0.2511 -0.1828,-0.0442 -0.17506,-0.65611 z m 11.51223,-13.54337 c 0.13119,-0.20731 0.3976,-0.28092 0.59204,-0.16355 0.52673,0.31793 0.42851,0.54048 -0.23853,0.54048 -0.32562,0 -0.4847,-0.16962 -0.35351,-0.37693 z m 16.89513,-15.94203 c 0,-0.20399 0.18097,-0.37088 0.40216,-0.37088 0.22119,0 0.29655,0.16689 0.16747,0.37088 -0.12909,0.20399 -0.31006,0.37089 -0.40217,0.37089 -0.0921,0 -0.16746,-0.1669 -0.16746,-0.37089 z m 1.13925,-1.11266 c 0,-0.20398 0.17089,-0.37088 0.37976,-0.37088 0.20886,0 0.37975,0.1669 0.37975,0.37088 0,0.20399 -0.17089,0.37089 -0.37975,0.37089 -0.20887,0 -0.37976,-0.1669 -0.37976,-0.37089 z m -0.18987,-1.48354 c 0.12908,-0.20398 0.3955,-0.37088 0.59204,-0.37088 0.19654,0 0.35734,0.1669 0.35734,0.37088 0,0.20399 -0.26642,0.37089 -0.59204,0.37089 -0.32562,0 -0.48643,-0.1669 -0.35734,-0.37089 z m 14.62045,-21.30403 c 0,-0.29394 0.17089,-0.63759 0.37975,-0.76366 0.20886,-0.12607 0.37975,0.11443 0.37975,0.53444 0,0.42002 -0.17089,0.76366 -0.37975,0.76366 -0.20886,0 -0.37975,-0.24049 -0.37975,-0.53444 z m -32.57924,-6.04878 c -0.42033,-0.35697 -1.13627,-1.73388 -1.59098,-3.0598 -0.45472,-1.32592 -1.08845,-2.95182 -1.40829,-3.61313 -0.83272,-1.72169 -0.4447,-2.39206 1.30284,-2.25088 1.38995,0.11228 1.42753,0.15405 1.44271,1.60367 0.0102,0.97466 0.43619,2.20636 1.2342,3.56856 1.96612,3.35618 1.34631,5.72772 -0.98048,3.75158 z m -10.84206,-5.5504 c -0.17363,-1.04499 -0.0587,-1.56029 0.47552,-2.13259 0.38746,-0.41506 0.98518,-1.29707 1.32828,-1.96003 0.62266,-1.20318 1.45162,-1.49185 2.47226,-0.86092 0.46112,0.28505 0.44787,0.56574 -0.0919,1.94607 -0.71935,1.83962 -2.72963,4.38541 -3.46292,4.38541 -0.27381,0 -0.59391,-0.61156 -0.72125,-1.37794 z m 44.40218,-7.84442 c -0.16359,-0.25851 -0.19488,-0.57017 -0.0695,-0.69259 0.33987,-0.33193 0.71043,0.15625 0.52686,0.69409 -0.12863,0.37688 -0.21808,0.37659 -0.45733,-0.001 z m -37.62694,-2.88195 c -4.73201,-1.13136 -5.73803,-1.81607 -4.00172,-2.72362 1.03841,-0.54277 2.82175,-3.23039 3.36577,-5.07245 0.51608,-1.74747 1.6579,-2.35275 4.43835,-2.35275 2.14978,0 3.44601,1.2458 3.78154,3.63442 0.37033,2.63632 -0.40317,4.51061 -2.27826,5.5205 -1.59056,0.85665 -3.99545,1.30715 -5.30568,0.9939 z m 15.33744,-13.66465 c -1.85943,-1.00095 -2.53548,-3.86633 -2.86591,-12.14702 l -0.24763,-6.20527 -0.98032,0.95744 c -1.25853,1.22914 -3.75714,2.47623 -4.44486,2.21848 -0.29305,-0.10982 -0.53282,-0.45526 -0.53282,-0.76765 0,-0.77321 -0.50699,-0.71344 -1.31133,0.1546 -0.87546,0.94478 -6.64047,3.72806 -7.72195,3.72806 -1.03712,0 -1.05334,-0.38252 -0.0822,-1.93819 1.04807,-1.67885 0.97215,-1.81055 -0.70968,-1.23102 -3.39928,1.17133 -13.36423,2.17621 -13.85709,1.39737 -0.10034,-0.15857 0.39795,-1.1873 1.10731,-2.28608 0.70936,-1.09878 1.82235,-3.26389 2.47332,-4.81137 1.47584,-3.50835 3.58619,-7.35955 4.66271,-8.50901 2.59366,-2.76938 6.98695,-4.50556 11.39039,-4.50135 2.9912,0.003 7.74457,0.98864 10.69416,2.21782 1.95184,0.81339 4.7469,3.13891 4.7469,3.94947 0,0.25084 0.36645,0.56966 0.81433,0.70849 1.3284,0.41178 2.9216,2.27687 3.3891,3.96749 0.48845,1.76636 0.24275,5.21234 -0.5845,8.19755 -0.65287,2.35595 -2.02312,6.09828 -2.59967,7.10005 -0.23605,0.41015 -0.51923,2.41472 -0.62929,4.45459 -0.18118,3.3584 -0.27186,3.71692 -0.9596,3.79417 -0.41772,0.0469 -1.20585,-0.15495 -1.75139,-0.44862 z m -14.64881,-8.63067 c -0.55605,-1.5234 -0.95175,-1.64651 -2.03486,-0.63306 -1.29047,1.20749 -1.71092,0.70137 -0.72831,-0.87668 0.97961,-1.57324 2.39613,-1.61079 3.20404,-0.0849 0.31866,0.60183 0.57938,1.35287 0.57938,1.66898 0,0.78175 -0.72711,0.72879 -1.02025,-0.0743 z m 5.04158,-0.27816 c -0.28643,-1.1146 -1.18147,-1.20984 -1.74282,-0.18545 -0.42742,0.77999 -1.519,1.02602 -1.519,0.34236 0,-0.21968 0.50802,-0.89557 1.12893,-1.50199 0.95607,-0.93375 1.24958,-1.03951 1.91693,-0.69069 0.71688,0.37471 1.51116,1.74982 1.51116,2.61624 0,0.76577 -1.07279,0.28497 -1.2952,-0.58047 z m 107.8395,100.97358 1.11537,-1.20538 -1.2342,1.08933 c -1.15046,1.0154 -1.40876,1.32143 -1.11537,1.32143 0.0654,0 0.62075,-0.54242 1.2342,-1.20538 z m 2.4445,-2.68892 c 0.49052,-0.50997 0.80644,-0.92721 0.70201,-0.92721 -0.10443,0 -0.59124,0.41724 -1.08176,0.92721 -0.49053,0.50997 -0.80644,0.92721 -0.70201,0.92721 0.10443,0 0.59123,-0.41724 1.08176,-0.92721 z m 1.56746,-1.94715 c 0.47234,-0.58825 0.45893,-0.60136 -0.14339,-0.14003 -0.36551,0.27996 -0.66457,0.57203 -0.66457,0.64905 0,0.30525 0.31185,0.10878 0.80796,-0.50902 z m 1.13926,-1.48354 c 0.47233,-0.58825 0.45893,-0.60137 -0.1434,-0.14003 -0.36551,0.27996 -0.66456,0.57203 -0.66456,0.64905 0,0.30525 0.31185,0.10878 0.80796,-0.50902 z m 4.48099,-6.4905 c 0.46695,-0.76495 0.76429,-1.39082 0.66074,-1.39082 -0.10353,0 -0.7327,0.87622 -1.39814,1.94715 -0.6654,1.07093 -0.96274,1.6968 -0.66077,1.39082 0.30202,-0.30598 0.93119,-1.1822 1.39817,-1.94715 z m 2.49596,-4.3579 c 0.52919,-1.01994 0.87674,-1.85443 0.7723,-1.85443 -0.10443,0 -0.62287,0.83449 -1.15205,1.85443 -0.52918,1.01993 -0.87673,1.85442 -0.7723,1.85442 0.10443,0 0.62287,-0.83449 1.15205,-1.85442 z m 2.01531,-3.90411 c -0.11693,-0.1142 -0.32929,0.0917 -0.47188,0.45742 -0.20609,0.52859 -0.16246,0.57119 0.21258,0.20762 0.25953,-0.25158 0.37622,-0.55085 0.2593,-0.66504 z M 485.99961,411.7404 c -0.12369,-0.31478 -0.30632,-0.49278 -0.40586,-0.39556 -0.0996,0.0972 -0.0684,0.35477 0.0693,0.57233 0.37445,0.59173 0.59332,0.47677 0.33654,-0.17677 z m 0.43858,-2.76564 c 0.12908,-0.20399 0.0537,-0.37089 -0.16746,-0.37089 -0.22119,0 -0.40217,0.1669 -0.40217,0.37089 0,0.20398 0.0754,0.37088 0.16746,0.37088 0.0921,0 0.27308,-0.1669 0.40217,-0.37088 z m -0.37975,-1.85443 c 0.12908,-0.20399 0.0537,-0.37089 -0.16747,-0.37089 -0.22119,0 -0.40216,0.1669 -0.40216,0.37089 0,0.20399 0.0754,0.37088 0.16746,0.37088 0.0921,0 0.27308,-0.16689 0.40217,-0.37088 z m 22.59524,-5.37784 c 0,-0.30598 -0.16553,-0.55633 -0.36784,-0.55633 -0.2023,0 -0.26947,0.25035 -0.14925,0.55633 0.12023,0.30598 0.28575,0.55633 0.36784,0.55633 0.0821,0 0.14925,-0.25035 0.14925,-0.55633 z m -7.40137,-17.2431 c 0.60428,0.4898 0.73662,0.12138 0.32903,-0.91597 -0.21684,-0.55189 -0.29683,-0.54961 -0.94938,0.0272 -0.39192,0.3464 -0.70175,0.97948 -0.68851,1.40683 0.0225,0.72538 0.048,0.71874 0.38355,-0.0998 0.2973,-0.72518 0.45735,-0.79751 0.92531,-0.4182 z m -0.57342,-5.38778 c 0,-0.26611 -0.25139,-0.4478 -0.55864,-0.40376 -0.76927,0.11028 -1.08228,0.47426 -0.79636,0.92608 0.31559,0.49871 1.355,0.0981 1.355,-0.52232 z m 67.05207,-2.2051 c 1.58356,-0.64621 2.44253,-2.33981 2.44253,-4.81585 l 0,-1.67381 1.6466,0.22043 c 1.47238,0.1971 1.79384,0.0942 3.03802,-0.97274 1.10982,-0.9517 1.39141,-1.45878 1.39141,-2.50581 0,-1.07791 -0.33426,-1.63913 -1.86914,-3.13818 l -1.86918,-1.82551 0.72157,-1.5522 c 1.16504,-2.5062 0.98302,-3.85036 -0.73782,-5.44916 -2.23837,-2.07959 -4.97089,-2.43528 -6.84935,-0.89157 -1.12916,0.92794 -1.16839,0.93399 -1.16839,0.18 0,-0.42911 -0.58498,-1.40361 -1.29995,-2.16557 -1.16083,-1.2371 -1.49613,-1.38444 -3.13296,-1.37672 -2.26181,0.0106 -3.70967,0.69971 -5.15224,2.452 -0.9521,1.15651 -1.1082,1.66175 -1.09892,3.55678 l 0.0108,2.20878 -1.2868,0.0473 c -1.47302,0.0541 -4.40848,1.30369 -5.23409,2.22812 -0.8905,0.99708 -1.47801,3.25104 -1.21047,4.64388 0.1356,0.70589 0.71739,1.83428 1.29287,2.50753 0.9869,1.15453 1.18972,1.22516 3.56988,1.24313 l 2.52354,0.0191 -0.25409,1.2981 c -0.34959,1.78604 -0.26036,2.51741 0.43329,3.55133 1.18051,1.75963 3.75358,1.68588 5.0129,-0.14368 l 0.84554,-1.22841 0.56654,1.06998 c 0.72377,1.36694 1.40447,1.90821 3.17634,2.52572 1.86709,0.65069 2.87252,0.64781 4.49155,-0.0129 z m -71.16431,-0.44172 c 0.95655,-0.84546 0.86943,-2.159 -0.21043,-3.17276 -0.4977,-0.46722 -1.62736,-2.43503 -2.51037,-4.37291 -2.68015,-5.88194 -5.62803,-10.63939 -7.88198,-12.72035 l -1.1237,-1.03746 -0.5844,0.87107 c -1.74238,2.59713 -2.31654,7.13953 -1.17413,9.28902 0.68858,1.29561 0.71572,1.26227 1.07144,-1.31651 0.13365,-0.96894 0.39718,-1.76171 0.5856,-1.76171 0.18842,0 1.45811,1.01915 2.82152,2.26477 3.22465,2.94608 5.56877,7.2598 5.46726,10.06101 -0.0447,1.23454 0.10899,1.94386 0.46963,2.16682 0.85086,0.52604 2.31393,0.39687 3.06956,-0.27099 z m 94.70133,-40.8909 c -0.8342,-1.57548 -1.10481,-1.4532 -0.32381,0.14632 0.34736,0.71139 0.69897,1.2276 0.78138,1.14712 0.0824,-0.0805 -0.12354,-0.66252 -0.45757,-1.29344 z M 363.20869,284.51557 c -19.7376,-17.85146 -36.46607,-33.01881 -37.17438,-33.70523 l -1.28782,-1.24803 11.82594,-12.43659 c 6.50426,-6.84013 11.82594,-12.54325 11.82594,-12.6736 0,-0.13036 1.08306,-1.44986 2.40681,-2.93223 12.00118,-13.43921 20.21766,-30.08043 22.46003,-45.48934 0.75346,-5.1776 0.73743,-13.75524 -0.034,-18.17266 -3.16324,-18.11429 -15.46533,-30.37673 -33.68919,-33.5806 -4.9034,-0.86205 -13.2377,-0.7807 -18.86558,0.18415 -20.84832,3.57424 -41.61494,16.46376 -56.58669,35.12247 -11.4832,14.31106 -18.85348,31.74049 -19.6201,46.39815 l -0.23629,4.51776 -3.26636,1.13607 c -19.71204,6.85602 -48.46525,16.26261 -48.67876,15.92522 -1.34357,-2.12319 -1.736,-23.65966 -0.57969,-31.81295 4.52232,-31.88742 19.80202,-60.73652 44.70664,-84.40912 23.98165,-22.795287 54.44462,-36.89808 85.40049,-39.53604 6.18393,-0.526974 18.6336,-0.232339 24.22952,0.573418 10.6964,1.540175 20.08381,4.374391 29.50538,8.908166 10.55297,5.078217 17.32037,9.869345 25.33756,17.938262 14.32046,14.412874 22.88175,32.657414 25.78708,54.953554 0.74378,5.70797 0.63827,20.84122 -0.18618,26.70376 -2.34038,16.64205 -6.2733,29.07363 -13.96289,44.13538 -3.87662,7.59318 -8.1195,14.49504 -12.54,20.3987 l -2.63825,3.52341 1.6865,1.48355 c 0.92757,0.81594 8.9621,8.06052 17.85451,16.09905 l 16.16801,14.61552 -1.14518,1.27383 c -1.55928,1.73447 -32.6892,34.5884 -32.76006,34.57436 -0.0311,-0.006 -16.20543,-14.61693 -35.94304,-32.46839 z"
         id="path4203"
         inkscape:connector-curvature="0" />
      <path
         style="fill:#a4a4a4"
         d="m 495.74211,475.68501 c -20.3996,-1.62088 -40.94515,-9.3116 -57.04339,-21.35285 -21.31317,-15.94195 -35.29765,-38.41351 -39.42099,-63.34535 -5.10184,-30.84836 4.84594,-61.76945 27.11341,-84.27774 17.46907,-17.65799 38.13597,-27.85204 64.22432,-31.67896 5.37455,-0.7884 24.24324,-0.68276 29.81053,0.1669 31.50035,4.80745 57.70482,20.82807 74.73776,45.69244 3.34717,4.88619 8.64676,15.20283 10.66913,20.76958 2.19234,6.03461 4.01633,13.12444 5.02316,19.52506 1.11082,7.06169 1.20473,20.10342 0.19322,26.83563 -2.71845,18.09302 -9.19011,33.05018 -20.70122,47.84424 -5.08895,6.54027 -15.0746,15.79627 -22.64294,20.98833 -5.35566,3.67415 -15.19665,8.95496 -20.69721,11.10643 -16.40243,6.41565 -34.13188,9.08766 -51.26578,7.72629 z m 18.32825,-10.96761 c -0.46707,-0.088 -1.32151,-0.0903 -1.89876,-0.005 -0.57724,0.0853 -0.19509,0.15729 0.84922,0.16008 1.04432,0.004 1.51661,-0.067 1.04954,-0.155 z m 9.0962,-1.0631 c 3.08513,-0.52432 7.10564,-1.43907 8.93447,-2.03283 3.99786,-1.29787 3.00614,-1.19859 -3.13063,0.31351 -4.03774,0.9949 -9.58876,2.03876 -12.91156,2.42801 -1.07982,0.12651 -1.07045,0.13637 0.17958,0.18904 0.72536,0.0304 3.84302,-0.37341 6.92814,-0.89773 z m -5.65329,-0.36477 c 4.83245,-0.60258 12.52222,-2.04636 15.44453,-2.89977 1.04278,-0.30449 1.75901,-0.74781 1.83749,-1.13724 0.15804,-0.78424 -2.38378,-4.60584 -3.27739,-4.92751 -0.3568,-0.12848 -0.73418,-0.33302 -0.83861,-0.45463 -0.25139,-0.29267 -2.22897,-1.54945 -3.40774,-2.16568 -0.51664,-0.27008 -1.54197,-0.54961 -2.27851,-0.6212 -0.73654,-0.0716 -1.96886,-0.24556 -2.73848,-0.38661 -0.76962,-0.14104 -1.96584,-0.088 -2.65826,0.11787 -0.69242,0.20588 -1.72789,0.4757 -2.30104,0.59961 -0.57315,0.12388 -1.02286,0.34752 -0.99935,0.49691 0.1101,0.69968 -0.0905,0.96457 -0.38583,0.50934 -0.25415,-0.39173 -0.6759,-0.1962 -1.89294,0.87766 -0.86127,0.75995 -1.56594,1.61265 -1.56594,1.8949 0,0.28224 -0.15696,0.51315 -0.3488,0.51315 -0.45285,0 -1.85313,4.13241 -2.16791,6.39778 l -0.24479,1.7617 1.60098,0 c 0.88054,0 3.6807,-0.25932 6.22259,-0.57628 z m -31.83626,-2.76432 c -0.71177,-1.12478 -5.85608,-2.69964 -7.21361,-2.20836 -0.69114,0.25012 -0.65696,0.31558 0.37975,0.72712 1.61084,0.63948 5.56622,1.76271 6.38326,1.81274 0.37784,0.023 0.58061,-0.12607 0.4506,-0.3315 z m 58.29359,-2.96445 c 1.69052,-0.90392 1.04994,-0.90392 -0.94938,0 -0.83545,0.37771 -1.26267,0.69215 -0.94938,0.69871 0.3133,0.007 1.16774,-0.30783 1.89876,-0.69871 z m 16.51921,-10.34941 c 6.35151,-4.28937 11.49585,-8.66332 16.39446,-13.93933 5.72169,-6.16248 9.60803,-11.60283 13.32641,-18.65523 1.36726,-2.59315 2.36069,-4.21686 2.20765,-3.60824 l -0.27825,1.10658 0.7319,-0.92114 c 0.91057,-1.14601 4.72571,-10.93504 4.26177,-10.93504 -0.0694,0 0.0744,-0.36617 0.31967,-0.8137 0.70706,-1.29031 2.30001,-8.99219 2.92352,-14.13536 1.75719,-14.49384 -0.84111,-32.49968 -6.37922,-44.20718 -6.19379,-13.09361 -11.175,-20.25898 -20.2306,-29.1013 -5.17544,-5.05355 -16.5052,-13.48445 -16.5052,-12.28214 0,0.0729 1.9225,1.47001 4.27221,3.10479 2.34972,1.63479 4.69943,3.43987 5.22159,4.0113 0.6477,0.70883 0.34603,0.56022 -0.94938,-0.46767 -3.97856,-3.15693 -8.19445,-5.68341 -14.43057,-8.64788 -9.11159,-4.33137 -13.99439,-6.09053 -22.05001,-7.9441 -7.95143,-1.8296 -13.87278,-2.46207 -23.13304,-2.47088 -12.2436,-0.0116 -22.54766,1.75922 -33.38666,5.73787 -36.51197,13.40235 -60.18523,45.50521 -60.32869,81.81059 -0.0733,18.55069 4.55332,33.3533 15.56352,49.79453 1.90172,2.8398 2.72245,3.74118 3.81078,4.1853 3.52404,1.43806 7.4525,5.61733 8.26818,8.79605 0.36939,1.43954 0.97517,1.66409 1.67117,0.61946 3.91586,-5.87738 10.64824,-7.3248 15.33381,-3.2967 l 1.59147,1.36816 0,-3.75148 c 0,-3.35995 0.11122,-3.97267 1.06564,-5.87088 1.90246,-3.78371 6.06744,-6.5069 11.68804,-7.64197 4.83238,-0.9759 8.85116,0.159 12.55961,3.54683 1.01787,0.92987 1.91291,1.6237 1.98897,1.54185 0.0761,-0.0818 0.70101,-5.72 1.38877,-12.52922 1.04665,-10.36239 1.1779,-12.64542 0.80523,-14.00625 -0.24488,-0.89422 -0.44524,-1.98635 -0.44524,-2.42695 0,-0.79781 -0.004,-0.79745 -0.96938,0.0883 -1.12002,1.02765 -1.49282,0.72914 -1.87926,-1.50476 -0.16338,-0.9445 -0.51716,-1.45096 -1.25284,-1.79355 -0.56384,-0.26257 -2.47689,-2.4062 -4.25121,-4.76363 l -3.22604,-4.28623 -5.03428,0.16675 c -5.71468,0.18929 -6.19347,0.40949 -7.87164,3.62015 l -0.86579,1.65642 3.2212,3.72142 c 1.77167,2.04677 3.63053,4.0274 4.13081,4.4014 1.2631,0.94425 1.14059,1.73082 -0.5156,3.31028 -1.05564,1.00675 -1.57259,1.26961 -1.99369,1.0138 -0.48024,-0.29175 -0.49067,-0.46799 -0.0671,-1.13516 0.4688,-0.73848 0.16352,-1.12279 -4.69933,-5.91585 l -5.2007,-5.12606 1.78505,-4.38754 1.78504,-4.38754 8.23081,-0.005 c 6.56724,-0.004 8.79694,-0.13843 11.03187,-0.66412 1.54058,-0.36238 2.83795,-0.61036 2.88303,-0.55107 0.0451,0.0593 0.38829,1.86022 0.7627,4.00208 0.37441,2.14187 0.84493,4.31155 1.04559,4.82152 0.35597,0.90468 0.38096,0.88749 1.02866,-0.70719 0.64373,-1.58491 0.6413,-1.6564 -0.0802,-2.36109 -0.57414,-0.56074 -0.69325,-1.0345 -0.52153,-2.07446 0.44599,-2.70114 0.44065,-2.81333 -0.13436,-2.82236 -1.10173,-0.0173 -1.92338,-3.38339 -1.67703,-6.87033 l 0.22273,-3.15252 -1.50584,-1.54515 c -1.81849,-1.86595 -2.55868,-4.34663 -2.16553,-7.25758 0.28521,-2.11176 1.37695,-4.87536 2.33399,-5.90818 0.35073,-0.37851 0.67546,-1.60827 0.78705,-2.98064 0.15063,-1.85246 0.39752,-2.55695 1.19224,-3.40188 2.09108,-2.22326 6.0608,-2.80591 8.44621,-1.23969 4.39374,2.88487 7.55625,14.28083 7.55625,27.22866 0,3.23918 -0.0621,3.53469 -0.78098,3.7183 -0.55204,0.14099 -0.70075,0.37544 -0.50729,0.79977 0.15053,0.33017 0.31009,1.81005 0.35457,3.28863 0.0737,2.45142 0.20991,2.87131 1.54527,4.76493 1.28779,1.82616 1.46441,2.33677 1.46441,4.23368 0,1.53905 -0.19161,2.36384 -0.66878,2.8788 -0.64522,0.69632 -0.59148,0.84732 1.52533,4.28565 10.71365,17.40214 15.79682,25.46944 16.0482,25.46944 0.16362,0 0.75645,-0.91618 1.31741,-2.03595 1.25337,-2.50201 3.77402,-5.02158 6.18201,-6.1794 2.55075,-1.22647 7.89859,-1.43122 10.35864,-0.39661 2.30246,0.96833 3.97796,2.40446 5.2251,4.47859 l 1.03578,1.72261 0.23808,-1.89626 c 0.54786,-4.36361 2.64283,-7.85673 5.88612,-9.8144 2.16411,-1.30626 6.32202,-2.19755 10.25174,-2.19755 7.97663,0 13.62007,2.42925 16.61358,7.15137 0.82102,1.29511 1.16648,1.08618 1.93358,-1.16937 1.22895,-3.61363 4.66742,-6.32721 8.03961,-6.34474 1.85931,-0.01 4.13326,0.83963 4.45746,1.66482 0.59499,1.5143 -6.69233,13.52259 -12.60181,20.76561 -5.0188,6.15141 -15.4781,15.43837 -22.94894,20.37671 -1.20096,0.79388 -2.18357,1.51136 -2.18357,1.5944 0,0.28139 4.35112,-2.25617 7.40516,-4.31866 z m -92.01041,-75.9742 c -0.42033,-0.35697 -1.13627,-1.73388 -1.59098,-3.0598 -0.45472,-1.32592 -1.08845,-2.95182 -1.40829,-3.61313 -0.83272,-1.72169 -0.4447,-2.39206 1.30284,-2.25088 1.38995,0.11228 1.42753,0.15405 1.44271,1.60367 0.0102,0.97466 0.43619,2.20636 1.2342,3.56856 1.96612,3.35618 1.34631,5.72772 -0.98048,3.75158 z m -10.84206,-5.5504 c -0.17363,-1.04499 -0.0587,-1.56029 0.47552,-2.13259 0.38746,-0.41506 0.98518,-1.29707 1.32828,-1.96003 0.62266,-1.20318 1.45162,-1.49185 2.47226,-0.86092 0.46112,0.28505 0.44787,0.56574 -0.0919,1.94607 -0.71935,1.83962 -2.72963,4.38541 -3.46292,4.38541 -0.27381,0 -0.59391,-0.61156 -0.72125,-1.37794 z m 4.97914,-11.16789 c -1.40559,-0.36704 -2.67659,-0.7855 -2.82446,-0.92991 -0.14787,-0.14442 0.43767,-0.96839 1.3012,-1.83106 1.53915,-1.53761 3.10463,-4.3059 3.12114,-5.51922 0.0104,-0.76395 1.86946,-1.42711 4.00062,-1.42711 2.14978,0 3.44601,1.2458 3.78154,3.63442 0.70741,5.03591 -3.33318,7.65189 -9.38004,6.07288 z m 17.13354,-13.22313 c -1.85943,-1.00095 -2.53548,-3.86633 -2.86591,-12.14702 l -0.24763,-6.20527 -0.98032,0.95744 c -1.25853,1.22914 -3.75714,2.47623 -4.44486,2.21848 -0.29305,-0.10982 -0.53282,-0.45526 -0.53282,-0.76765 0,-0.77321 -0.50699,-0.71344 -1.31133,0.1546 -0.87546,0.94478 -6.64047,3.72806 -7.72195,3.72806 -1.03712,0 -1.05334,-0.38252 -0.0822,-1.93819 1.04807,-1.67885 0.97215,-1.81055 -0.70968,-1.23102 -3.60026,1.24059 -13.00445,2.14465 -13.53803,1.30147 -0.13371,-0.21132 0.26551,-1.17098 0.88717,-2.13259 0.62167,-0.96162 1.68297,-3.00013 2.35845,-4.53004 3.191,-7.22731 5.30443,-9.97396 9.05269,-11.76499 6.00075,-2.86735 19.41731,-0.42277 21.84126,3.9796 0.39213,0.71219 1.24239,1.54524 1.88947,1.85122 1.33104,0.62941 2.45628,2.32091 2.9386,4.4174 0.44485,1.93366 -0.39565,6.27944 -2.15837,11.1598 -1.11823,3.096 -1.45341,4.65458 -1.63511,7.60315 -0.20629,3.34769 -0.30251,3.71716 -0.98806,3.79417 -0.41772,0.0469 -1.20585,-0.15495 -1.75139,-0.44862 z m 111.84394,-3.23848 c -0.3982,-0.86322 -1.28409,-2.47833 -1.96867,-3.58916 -0.68462,-1.11082 -1.18669,-2.18968 -1.11579,-2.39746 0.0709,-0.20778 1.03016,1.33572 2.13167,3.43001 1.10147,2.09429 1.92933,3.87941 1.8397,3.96694 -0.0896,0.0875 -0.48874,-0.54712 -0.88691,-1.41033 z m -126.49275,-5.39219 c -0.55605,-1.5234 -0.95175,-1.64651 -2.03486,-0.63306 -1.29047,1.20749 -1.71092,0.70137 -0.72831,-0.87668 0.97961,-1.57324 2.39613,-1.61079 3.20404,-0.0849 0.31866,0.60183 0.57938,1.35287 0.57938,1.66898 0,0.78175 -0.72711,0.72879 -1.02025,-0.0743 z m 5.04158,-0.27816 c -0.28643,-1.1146 -1.18147,-1.20984 -1.74282,-0.18545 -0.42742,0.77999 -1.519,1.02602 -1.519,0.34236 0,-0.21968 0.50802,-0.89557 1.12893,-1.50199 0.95607,-0.93375 1.24958,-1.03951 1.91693,-0.69069 0.71688,0.37471 1.51116,1.74982 1.51116,2.61624 0,0.76577 -1.07279,0.28497 -1.2952,-0.58047 z m 103.02026,-19.74966 c -0.47234,-0.58824 -0.45893,-0.60136 0.14339,-0.14003 0.36551,0.27996 0.66457,0.57204 0.66457,0.64905 0,0.30525 -0.31186,0.10878 -0.80796,-0.50902 z m -4.34259,-3.8943 -1.11536,-1.20537 1.23419,1.08932 c 1.15045,1.0154 1.40877,1.32143 1.11537,1.32143 -0.0654,0 -0.62074,-0.54242 -1.2342,-1.20538 z m 1.16315,132.49886 c 0.37804,-0.40798 0.60191,-0.74177 0.49748,-0.74177 -0.10444,0 -0.49919,0.33379 -0.87723,0.74177 -0.37804,0.40797 -0.6019,0.74177 -0.49747,0.74177 0.10443,0 0.49918,-0.3338 0.87722,-0.74177 z m 3.41777,-2.96709 c 0.37804,-0.40797 0.6019,-0.74177 0.49747,-0.74177 -0.10443,0 -0.49918,0.3338 -0.87722,0.74177 -0.37805,0.40798 -0.60191,0.74177 -0.49748,0.74177 0.10443,0 0.49918,-0.33379 0.87723,-0.74177 z m 4.58091,-4.91423 1.11537,-1.20538 -1.2342,1.08933 c -1.15046,1.0154 -1.40876,1.32143 -1.11537,1.32143 0.0654,0 0.62075,-0.54242 1.2342,-1.20538 z m 2.4445,-2.68892 c 0.49052,-0.50997 0.80644,-0.92721 0.70201,-0.92721 -0.10443,0 -0.59124,0.41724 -1.08176,0.92721 -0.49053,0.50997 -0.80644,0.92721 -0.70201,0.92721 0.10443,0 0.59123,-0.41724 1.08176,-0.92721 z m 1.56746,-1.94715 c 0.47234,-0.58825 0.45893,-0.60136 -0.14339,-0.14003 -0.36551,0.27996 -0.66457,0.57203 -0.66457,0.64905 0,0.30525 0.31185,0.10878 0.80796,-0.50902 z m 1.13926,-1.48354 c 0.47233,-0.58825 0.45893,-0.60137 -0.1434,-0.14003 -0.36551,0.27996 -0.66456,0.57203 -0.66456,0.64905 0,0.30525 0.31185,0.10878 0.80796,-0.50902 z m 4.48099,-6.4905 c 0.46695,-0.76495 0.76429,-1.39082 0.66074,-1.39082 -0.10353,0 -0.7327,0.87622 -1.39814,1.94715 -0.6654,1.07093 -0.96274,1.6968 -0.66077,1.39082 0.30202,-0.30598 0.93119,-1.1822 1.39817,-1.94715 z m 2.49596,-4.3579 c 0.52919,-1.01994 0.87674,-1.85443 0.7723,-1.85443 -0.10443,0 -0.62287,0.83449 -1.15205,1.85443 -0.52918,1.01993 -0.87673,1.85442 -0.7723,1.85442 0.10443,0 0.62287,-0.83449 1.15205,-1.85442 z m 2.01531,-3.90411 c -0.11693,-0.1142 -0.32929,0.0917 -0.47188,0.45742 -0.20609,0.52859 -0.16246,0.57119 0.21258,0.20762 0.25953,-0.25158 0.37622,-0.55085 0.2593,-0.66504 z m -95.55912,-36.02357 c 0.95655,-0.84546 0.86943,-2.159 -0.21043,-3.17276 -0.4977,-0.46722 -1.62736,-2.43503 -2.51037,-4.37291 -2.68015,-5.88194 -5.62803,-10.63939 -7.88198,-12.72035 l -1.1237,-1.03746 -0.5844,0.87107 c -1.74238,2.59713 -2.31654,7.13953 -1.17413,9.28902 0.68858,1.29561 0.71572,1.26227 1.07144,-1.31651 0.13365,-0.96894 0.39718,-1.76171 0.5856,-1.76171 0.18842,0 1.45811,1.01915 2.82152,2.26477 3.22465,2.94608 5.56877,7.2598 5.46726,10.06101 -0.0447,1.23454 0.10899,1.94386 0.46963,2.16682 0.85086,0.52604 2.31393,0.39687 3.06956,-0.27099 z m 58.03701,-78.53057 c 0,-0.0802 -0.26521,-0.24515 -0.58935,-0.36664 -0.33795,-0.12665 -0.49039,-0.0645 -0.35734,0.14577 0.22301,0.35242 0.94669,0.52126 0.94669,0.22087 z m -4.17727,-2.26499 c -0.52216,-0.29152 -1.12027,-0.53004 -1.32913,-0.53004 -0.20887,0 0.0475,0.23852 0.56962,0.53004 0.52216,0.29152 1.12027,0.53004 1.32913,0.53004 0.20887,0 -0.0475,-0.23852 -0.56962,-0.53004 z m -11.77231,-5.00696 c -0.3133,-0.19774 -0.74052,-0.35952 -0.94938,-0.35952 -0.20887,0 -0.12342,0.16178 0.18987,0.35952 0.3133,0.19775 0.74052,0.35953 0.94938,0.35953 0.20887,0 0.12342,-0.16178 -0.18987,-0.35953 z m -18.71069,-4.6747 c -0.12619,-0.12324 -0.45373,-0.13641 -0.72786,-0.0293 -0.30294,0.11839 -0.21296,0.20628 0.22943,0.22407 0.40032,0.0161 0.62461,-0.0716 0.49843,-0.19479 z m -156.7347,-1.47406 c -19.7376,-17.85033 -36.46607,-33.01676 -37.17438,-33.70317 l -1.28782,-1.24803 11.82594,-12.43659 c 6.50426,-6.84013 11.82594,-12.54682 11.82594,-12.68153 0,-0.13471 1.08128,-1.43818 2.40284,-2.8966 11.68107,-12.89071 20.0749,-29.82459 22.46709,-45.32551 0.75771,-4.90985 0.74057,-13.90782 -0.035,-18.36419 -4.96621,-28.53623 -32.02806,-41.2348 -64.65129,-30.33715 -8.54756,2.85529 -19.51682,8.93295 -27.7795,15.39162 -4.14637,3.24108 -12.38997,11.2919 -15.71118,15.34378 -12.03699,14.68513 -19.8378,32.73881 -20.62164,47.72537 l -0.23626,4.5172 -4.40564,1.51072 c -25.88191,8.87508 -47.327,15.88751 -47.54294,15.54628 -1.33433,-2.1086 -1.7357,-23.36265 -0.5935,-31.42868 3.1486,-22.23487 10.99583,-42.06759 24.08283,-60.86579 5.60101,-8.0453 10.43853,-13.80971 17.53213,-20.89136 24.77749,-24.735761 56.00658,-39.752097 88.5094,-42.559246 6.27423,-0.541881 18.29097,-0.257667 24.11425,0.57034 10.3581,1.472808 20.0169,4.318483 28.86115,8.503064 10.01733,4.739619 16.45245,9.111212 24.05698,16.342712 7.99464,7.60247 12.9385,14.30054 18.08144,24.49717 13.58063,26.92562 13.87743,59.68486 0.835,92.16505 -3.77668,9.40526 -10.83998,22.01616 -17.1573,30.63284 l -3.23747,4.41584 1.67687,1.48355 c 0.92228,0.81594 8.95023,8.06394 17.8399,16.10666 l 16.16302,14.62311 -1.38828,1.51041 c -2.39348,2.60401 -32.4492,34.33445 -32.5091,34.32052 -0.0313,-0.007 -16.20589,-14.61806 -35.9435,-32.46839 z"
         id="path4201"
         inkscape:connector-curvature="0" />
      <path
         style="fill:#6ca9b8"
         d="m 496.31174,474.38884 c -0.83546,-0.0872 -3.48423,-0.41016 -5.88616,-0.7177 -43.63412,-5.58621 -79.42085,-36.97265 -88.65277,-77.75212 -4.5059,-19.90362 -2.50838,-40.52625 5.73329,-59.19091 3.17235,-7.18434 8.15985,-15.37644 13.3686,-21.95828 5.81957,-7.35366 17.06994,-17.30231 25.68954,-22.71712 16.29887,-10.23891 35.24345,-15.88853 55.2539,-16.47771 40.68736,-1.19798 78.2911,19.75845 96.96365,54.03746 11.46688,21.05086 14.59896,46.05202 8.6413,68.9775 -3.32769,12.80531 -8.91719,24.14256 -17.2797,35.04868 -3.93549,5.13255 -13.95452,15.12846 -18.83065,18.78725 -15.77324,11.83536 -32.04903,18.49806 -52.02601,21.29754 -3.84307,0.53857 -19.77116,0.99987 -22.97499,0.66541 z m 20.88635,-9.61695 c 9.23602,-1.32848 13.59512,-2.3424 20.88636,-4.85816 19.7214,-6.8046 36.5433,-19.59621 48.21038,-36.65988 4.06167,-5.94035 10.03608,-18.53564 11.03996,-23.27446 0.0758,-0.35775 0.23203,-0.79939 0.34724,-0.98143 0.47978,-0.75822 2.1652,-9.31868 2.69491,-13.68807 1.75719,-14.49384 -0.84111,-32.49968 -6.37922,-44.20718 -2.2263,-4.70637 -5.05655,-10.07879 -6.83854,-12.981 -1.37037,-2.23186 -6.89363,-9.34727 -9.21263,-11.86833 -4.69544,-5.10452 -10.79942,-10.39306 -16.31748,-14.13762 -3.41774,-2.31928 -4.12037,-2.64489 -4.63107,-2.14612 -0.22213,0.21695 -1.5634,-0.25188 -3.55898,-1.244 -13.54444,-6.73372 -24.69697,-9.99356 -38.31035,-11.19796 -3.94748,-0.34924 -15.13562,-0.26086 -18.82871,0.14873 -8.91303,0.98852 -15.94053,2.59369 -23.4939,5.36629 -36.51197,13.40235 -60.18523,45.50521 -60.32869,81.81059 -0.0733,18.55519 4.55292,33.35299 15.57052,49.8049 2.01262,3.00533 2.69009,3.73101 3.93857,4.21889 1.9936,0.77906 1.70561,0.98543 -0.39078,0.28003 -0.90617,-0.30491 -1.73504,-0.46896 -1.84195,-0.36455 -0.41133,0.40172 5.59223,7.12249 8.87679,9.93723 l 1.41652,1.21391 -0.22794,-1.85443 c -0.22764,-1.85203 -0.22729,-1.85275 0.26365,-0.55633 0.28033,0.74026 0.73623,1.27962 1.06089,1.25509 0.47447,-0.0359 0.49893,0.13977 0.14681,1.05425 -0.49359,1.28193 -0.64284,1.13377 6.03329,5.98915 6.97286,5.07119 15.23467,9.61469 21.98334,12.08957 0.60334,0.22127 1.01233,0.48497 0.90885,0.58604 -0.25839,0.25235 -5.66513,-2.03271 -10.93,-4.61934 -10.68003,-5.24714 -20.31491,-12.82773 -29.74321,-23.40158 -1.00038,-1.12193 -1.68111,-1.76173 -1.51273,-1.42178 0.35645,0.71964 3.20578,3.9998 6.19231,7.12862 3.83966,4.02259 12.3261,10.88109 17.04123,13.77221 0.33948,0.20818 1.30079,0.80416 2.13624,1.3244 4.22836,2.63314 16.06861,8.1254 19.55723,9.0719 0.31329,0.085 2.02217,0.58221 3.79752,1.10494 5.95735,1.75406 11.37944,2.71228 20.69647,3.65756 2.0299,0.20595 17.82537,-0.0757 19.7471,-0.35208 z m -49.93849,-63.9595 c -0.48024,-0.29175 -0.49067,-0.46799 -0.0671,-1.13516 0.4688,-0.73848 0.16352,-1.12279 -4.69933,-5.91585 l -5.2007,-5.12606 1.78505,-4.38754 1.78504,-4.38754 8.23081,-0.005 c 6.56724,-0.004 8.79694,-0.13843 11.03187,-0.66412 1.54058,-0.36238 2.83795,-0.61036 2.88303,-0.55107 0.0451,0.0593 0.38262,1.8161 0.75009,3.90403 1.1343,6.44496 1.29179,6.77762 3.86039,8.15424 2.60828,1.39788 4.6594,2.32861 5.13175,2.32861 0.18336,0 0.33338,0.16467 0.33338,0.36593 0,0.54147 -2.01067,3.27434 -2.5777,3.50358 -0.69713,0.28184 -1.04346,-0.87006 -0.51165,-1.70175 0.35013,-0.54756 0.34247,-0.73943 -0.035,-0.87632 -0.26581,-0.0964 -1.76496,-0.63647 -3.33143,-1.20017 -1.56648,-0.56369 -3.10447,-1.19036 -3.41777,-1.39258 -0.3133,-0.20222 -2.02218,-2.26444 -3.79752,-4.5827 l -3.22789,-4.21502 -5.03243,0.16401 c -5.71291,0.1862 -6.19127,0.40607 -7.86979,3.61741 l -0.86579,1.65642 3.22121,3.72142 c 1.77166,2.04677 3.63052,4.0274 4.1308,4.40139 1.2631,0.94426 1.14059,1.73083 -0.51559,3.31029 -1.05565,1.00674 -1.5726,1.26961 -1.9937,1.0138 z m 28.13274,-6.14763 c 0.0182,-0.43206 0.10821,-0.51995 0.22943,-0.22408 0.1097,0.26773 0.0962,0.58762 -0.03,0.71087 -0.12619,0.12324 -0.21594,-0.0958 -0.19945,-0.48679 z m -8.1281,-9.52876 c -0.9278,-0.22715 -1.59661,-0.6646 -1.85153,-1.21103 -0.4078,-0.87411 -0.18244,-2.90713 0.42628,-3.84562 0.62318,-0.96077 12.602,-1.98229 13.14695,-1.12113 0.13785,0.21783 0.34311,1.3921 0.45614,2.60948 0.17482,1.88294 0.0982,2.29136 -0.51304,2.73546 -1.21993,0.88633 -9.13745,1.45162 -11.6648,0.83284 z m -18.14109,-13.81793 c -0.75357,-0.38854 -1.27484,-1.29767 -2.21352,-3.86053 -0.6753,-1.84377 -1.37776,-3.44282 -1.56104,-3.55344 -0.75491,-0.45567 0.14736,-1.29003 1.39505,-1.29003 1.41492,0 2.03789,0.77308 1.31165,1.62771 -0.33233,0.39109 -0.0788,1.11029 1.11914,3.17499 1.20543,2.07756 1.48069,2.86226 1.24161,3.53944 -0.28495,0.80711 -0.37852,0.8333 -1.29289,0.36186 z m -6.41613,-17.06942 c -2.91445,-0.79165 -3.04921,-1.04351 -1.42799,-2.66898 0.76264,-0.76465 1.8161,-2.34077 2.34101,-3.50249 1.11107,-2.45899 1.76559,-2.89473 4.34809,-2.89473 2.71442,0 3.84961,1.33001 3.84961,4.51027 0,3.92801 -4.02058,5.93855 -9.11072,4.55593 z m 17.43378,-13.44052 c -0.93253,-0.45463 -1.434,-1.04049 -1.78224,-2.0822 -0.81784,-2.4464 -1.23615,-6.39116 -1.24879,-11.77629 l -0.0121,-5.14743 -0.98055,1.13811 c -0.53931,0.62597 -1.81537,1.55127 -2.83569,2.05624 l -1.85514,0.91812 -0.36451,-0.93636 c -0.46327,-1.19004 -0.66294,-1.1753 -2.07411,0.1531 -1.7773,1.67304 -7.803,4.39385 -7.803,3.52331 0,-0.15904 0.24301,-0.55266 0.54004,-0.8747 0.65275,-0.70774 1.19156,-2.62756 0.73532,-2.62001 -0.17929,0.003 -1.07965,0.26172 -2.0008,0.57499 -2.94405,1.00124 -12.57291,2.13258 -13.17185,1.54762 -0.13417,-0.13104 0.0643,-0.53827 0.44097,-0.90496 0.37671,-0.36669 1.68565,-2.75294 2.90877,-5.30278 1.22311,-2.54984 2.50598,-5.18906 2.85081,-5.86494 0.62181,-1.21879 4.27897,-5.53694 4.27897,-5.05236 0,0.13885 0.22836,0.0673 0.50747,-0.15889 1.22209,-0.99056 4.09967,-1.66187 8.03695,-1.87494 2.2975,-0.12433 4.26271,-0.14019 4.36714,-0.0352 0.39658,0.39854 5.40962,1.47651 5.79229,1.24553 0.22061,-0.13317 0.29043,-0.0672 0.15517,0.14652 -0.20061,0.31702 1.40785,1.035 1.74081,0.77707 0.0532,-0.0412 0.59155,0.37307 1.19642,0.92056 0.60487,0.54749 1.25579,0.99544 1.44648,0.99544 0.19069,0 0.24961,0.15344 0.13094,0.34098 -0.11868,0.18755 0.0482,0.59883 0.3709,0.91397 0.32267,0.31514 0.6233,0.70412 0.66805,0.8644 0.0448,0.16027 0.29499,0.26822 0.55607,0.23989 0.26108,-0.0283 0.47469,0.12466 0.47469,0.33998 0,0.21532 0.0997,0.29413 0.22152,0.17514 0.35063,-0.34244 1.63373,1.09239 1.89862,2.12316 0.13239,0.51515 0.39633,0.93665 0.58652,0.93665 0.1902,0 0.2386,0.41724 0.10754,0.92721 -0.14681,0.57131 -0.0767,0.92721 0.18264,0.92721 0.23151,0 0.42092,0.3338 0.42092,0.74178 0,0.40797 -0.19224,0.74177 -0.42722,0.74177 -0.27215,0 -0.34451,0.40385 -0.19937,1.11265 0.1427,0.69682 0.0717,1.11266 -0.18987,1.11266 -0.26161,0 -0.33257,0.41584 -0.18988,1.11266 0.14086,0.68783 0.071,1.11265 -0.18303,1.11265 -0.22599,0 -0.31253,0.25035 -0.1923,0.55633 0.12022,0.30598 0.0456,0.55633 -0.1659,0.55633 -0.21146,0 -0.34958,0.20862 -0.30693,0.46361 0.0427,0.25498 -0.12075,0.93344 -0.36311,1.50768 -0.24235,0.57425 -0.44065,1.27372 -0.44065,1.55438 0,0.28066 -0.16342,0.60894 -0.36317,0.7295 -0.19974,0.12057 -0.2669,0.46421 -0.14924,0.76366 0.11766,0.29945 0.0105,0.54445 -0.23811,0.54445 -0.24861,0 -0.38133,0.20713 -0.29493,0.4603 0.0864,0.25316 -0.0702,0.68233 -0.3481,0.9537 -0.3445,0.33645 -0.50521,1.53987 -0.50521,3.783 0,1.80928 -0.14233,3.3755 -0.31629,3.4805 -0.17396,0.10501 -0.90024,-0.0938 -1.61395,-0.44171 z m 111.45316,-2.75088 c -0.3982,-0.86322 -1.28409,-2.47833 -1.96867,-3.58916 -0.68462,-1.11082 -1.18669,-2.18968 -1.11579,-2.39746 0.0709,-0.20778 1.03016,1.33572 2.13167,3.43001 1.10147,2.09429 1.92933,3.87941 1.8397,3.96694 -0.0896,0.0875 -0.48874,-0.54712 -0.88691,-1.41033 z M 465.19205,332.2629 c -0.44185,-1.35964 -1.22938,-1.69003 -1.98202,-0.83153 -0.37132,0.42355 -0.83783,0.77008 -1.03668,0.77008 -0.19886,0 0.0398,-0.41724 0.53034,-0.92721 0.49055,-0.50997 1.18316,-0.92721 1.53913,-0.92721 0.63596,0 1.80354,2.0514 1.3948,2.4506 -0.11347,0.11082 -0.31398,-0.12981 -0.44557,-0.53473 z m 5.17651,-0.24532 c -0.53599,-1.14891 -1.35904,-1.18916 -2.13693,-0.10449 -0.6667,0.92962 -0.79701,0.61524 -0.19805,-0.47779 0.59849,-1.09217 2.19914,-0.93524 2.66493,0.26126 0.49526,1.27223 0.2329,1.52749 -0.32995,0.32102 z m 84.2351,-34.08336 c 0,-0.0802 -0.26521,-0.24515 -0.58935,-0.36664 -0.33795,-0.12665 -0.49039,-0.0645 -0.35734,0.14577 0.22301,0.35242 0.94669,0.52126 0.94669,0.22087 z m -4.17727,-2.26499 c -0.52216,-0.29152 -1.12027,-0.53004 -1.32913,-0.53004 -0.20887,0 0.0475,0.23852 0.56962,0.53004 0.52216,0.29152 1.12027,0.53004 1.32913,0.53004 0.20887,0 -0.0475,-0.23852 -0.56962,-0.53004 z m -11.77231,-5.00696 c -0.3133,-0.19774 -0.74052,-0.35952 -0.94938,-0.35952 -0.20887,0 -0.12342,0.16178 0.18987,0.35952 0.3133,0.19775 0.74052,0.35953 0.94938,0.35953 0.20887,0 0.12342,-0.16178 -0.18987,-0.35953 z m -18.71069,-4.6747 c -0.12619,-0.12324 -0.45373,-0.13641 -0.72786,-0.0293 -0.30294,0.11839 -0.21296,0.20628 0.22943,0.22407 0.40032,0.0161 0.62461,-0.0716 0.49843,-0.19479 z m -157.97584,-2.64724 c -33.16497,-30.006 -37.07629,-33.66059 -36.64606,-34.24065 0.2649,-0.35716 5.60829,-6.08169 11.8742,-12.72118 11.84537,-12.55162 14.29833,-15.29864 18.40294,-20.60904 16.673,-21.57097 22.53327,-47.23491 15.24166,-66.74793 -5.00275,-13.38781 -16.79943,-22.53423 -32.1256,-24.9082 -4.14316,-0.64177 -12.84692,-0.55151 -17.46858,0.18114 -29.89859,4.73969 -59.76961,29.75644 -71.78524,60.11957 -2.98942,7.55418 -5.06942,16.63197 -5.13898,22.42811 -0.0159,1.32591 -0.15718,2.73028 -0.31393,3.12081 -0.37394,0.93163 -51.36039,18.20015 -51.73628,17.52247 -0.66337,-1.19597 -1.27724,-10.10244 -1.24389,-18.04708 0.0388,-9.25042 0.51459,-13.99179 2.27015,-22.62402 5.61429,-27.60592 21.0009,-54.554 43.03951,-75.37927 22.75405,-21.501328 49.98246,-34.811532 79.97188,-39.093068 5.82737,-0.831963 22.91679,-0.946099 28.10164,-0.187684 18.42599,2.695267 32.44069,8.165305 46.13986,18.008723 4.74093,3.40655 13.58393,12.049259 17.18541,16.796159 16.3611,21.56463 22.59378,48.14525 18.16207,77.45607 -3.15222,20.84846 -12.36242,42.61195 -25.65751,60.6281 -1.27952,1.73389 -2.43741,3.33286 -2.57307,3.55328 -0.1397,0.22699 7.47997,7.38127 17.57321,16.49989 l 17.81986,16.09914 -1.25687,1.30261 c -0.69127,0.71644 -7.63269,8.062 -15.42537,16.32348 -7.79267,8.26147 -14.86933,15.71588 -15.7259,16.56536 l -1.55741,1.5445 -37.1277,-33.59129 z"
         id="path4199"
         inkscape:connector-curvature="0" />
      <path
         style="fill:#246488"
         d="m 495.74211,474.22832 c -9.23034,-0.79555 -19.8907,-3.11203 -28.391,-6.16935 -9.96389,-3.58372 -21.4114,-9.86084 -29.71104,-16.29174 -4.1339,-3.20308 -12.78562,-11.64854 -16.10175,-15.71783 -11.59425,-14.22757 -18.71495,-30.62007 -21.34681,-49.14233 -0.70693,-4.9752 -0.80043,-16.98661 -0.17466,-22.43858 2.14852,-18.71894 9.61804,-35.9489 22.18844,-51.1822 2.95506,-3.58104 11.01389,-11.45106 14.67527,-14.33144 18.76808,-14.76465 40.71596,-22.66667 64.93758,-23.37985 40.68736,-1.19798 78.2911,19.75845 96.96365,54.03746 12.86304,23.61394 15.14462,51.87988 6.21142,76.95154 -6.80937,19.11096 -19.93121,36.19401 -37.00651,48.17792 -12.03054,8.44339 -25.91925,14.43579 -40.5353,17.48933 -2.50637,0.52361 -5.15514,1.02242 -5.88616,1.1085 -0.73102,0.0861 -2.69624,0.33613 -4.36715,0.55574 -4.21349,0.5538 -16.65302,0.74677 -21.45598,0.33283 z m 18.9876,-9.07164 c 3.9406,-0.34867 12.38217,-1.86711 16.70908,-3.00554 11.13299,-2.92918 22.96054,-8.6406 32.7206,-15.80051 27.89798,-20.46566 41.59883,-53.67675 35.62149,-86.34721 -1.75517,-9.59327 -3.5266,-14.84871 -8.00202,-23.74014 -2.81415,-5.59093 -6.23757,-11.18733 -8.02924,-13.12573 -0.36551,-0.39545 -0.66457,-0.82846 -0.66457,-0.96225 0,-0.1338 -0.43945,-0.7282 -0.97657,-1.32089 -0.53712,-0.59269 -1.42851,-1.66177 -1.9809,-2.37572 -1.11001,-1.43465 -10.29382,-10.35813 -12.29504,-11.94651 -0.69668,-0.55296 -2.12114,-1.63017 -3.16546,-2.39382 -1.04431,-0.76364 -1.95572,-1.52124 -2.02534,-1.68354 -0.0696,-0.1623 -0.35444,-0.29509 -0.63292,-0.29509 -0.27848,0 -0.5633,-0.14092 -0.63292,-0.31315 -0.20563,-0.50868 -9.32013,-5.74274 -13.22816,-7.59635 -8.24489,-3.91063 -19.54867,-7.26343 -28.86101,-8.56045 -7.71897,-1.07509 -21.49029,-1.03034 -29.05102,0.0944 -17.20802,2.55987 -31.70632,8.58967 -45.94998,19.11043 -3.59117,2.65253 -11.85887,10.48079 -14.70252,13.92105 -4.38227,5.30167 -10.34109,14.34511 -11.94425,18.12725 -0.32129,0.75799 -0.89054,2.04575 -1.265,2.8617 -3.30974,7.21199 -5.65543,15.26954 -6.91015,23.73667 -0.74737,5.04342 -0.63475,19.38779 0.19207,24.4629 3.97166,24.37873 17.29272,45.16031 38.42737,59.94879 3.82161,2.67412 6.58611,4.31051 11.96218,7.08084 2.83491,1.46084 11.05747,4.87621 14.04764,5.83492 3.60091,1.15453 11.15513,2.88994 14.62363,3.35944 1.67091,0.22617 3.55068,0.4866 4.17727,0.57873 0.62659,0.0921 2.93359,0.27356 5.12665,0.40319 2.19307,0.12962 4.04666,0.2858 4.11908,0.347 0.20519,0.17343 9.4151,-0.1195 12.59001,-0.40041 z m -48.79812,-8.17213 c -7.7485,-3.3689 -12.83773,-6.18911 -19.19799,-10.63859 -5.39061,-3.77116 -14.26782,-12.14949 -17.7998,-16.79946 -0.92448,-1.2171 -2.13196,-2.79705 -2.6833,-3.51101 -5.99892,-7.76823 -11.44373,-19.18973 -14.23297,-29.85628 -2.33948,-8.94665 -3.18621,-21.20174 -2.11406,-30.59806 4.04994,-35.49389 30.24615,-65.47767 66.56115,-76.18489 7.8499,-2.31449 17.19033,-3.82325 24.40414,-3.942 6.68275,-0.11001 11.96219,0.0197 11.96219,0.29378 0,0.15299 -3.63138,0.27817 -8.06973,0.27817 -9.441,0 -11.80732,0.20702 -19.46229,1.70271 -14.35912,2.8056 -29.8341,9.83665 -41.27887,18.75505 -31.66219,24.67291 -42.5301,66.07127 -26.90593,102.49079 6.99313,16.30076 20.78322,31.68533 37.37786,41.69966 2.96375,1.78852 11.34894,5.93954 13.90798,6.88504 1.38401,0.51134 2.33709,1.12894 1.6899,1.09508 -0.19842,-0.0104 -2.06965,-0.76191 -4.15828,-1.66999 z m 1.53851,-56.50933 c -0.13777,-0.21771 -0.0785,-0.68923 0.13176,-1.04783 0.32009,-0.54598 -0.45601,-1.47432 -4.7733,-5.70968 l -5.15553,-5.05769 1.69299,-4.21444 1.693,-4.21445 6.2338,0.1201 c 4.49866,0.0867 7.13227,-0.0419 9.4617,-0.46192 1.77534,-0.32011 3.83758,-0.6827 4.58277,-0.80575 l 1.35488,-0.22372 0.87891,4.20906 c 1.19578,5.72652 1.52452,6.41667 3.50284,7.35378 0.90353,0.428 2.41178,1.18429 3.35166,1.68064 0.93989,0.49636 1.9225,0.90717 2.18358,0.91291 0.26108,0.006 0.47469,0.17512 0.47469,0.37638 0,0.54147 -2.01067,3.27434 -2.5777,3.50358 -0.69178,0.27968 -1.0452,-0.86734 -0.52022,-1.68834 0.3844,-0.60116 0.2667,-0.75825 -0.93583,-1.24897 -0.75654,-0.30872 -1.48038,-0.56132 -1.60852,-0.56132 -0.12814,0 -1.13553,-0.44598 -2.23863,-0.99106 -1.66503,-0.82277 -2.5985,-1.74381 -5.49674,-5.42358 l -3.4911,-4.43251 -4.95188,0.16599 c -2.72354,0.0913 -5.29561,0.34678 -5.71572,0.56775 -0.42011,0.22097 -1.39426,1.44256 -2.16478,2.71464 l -1.40094,2.31288 2.24853,2.63567 c 1.2367,1.44962 3.11646,3.54917 4.17724,4.66567 1.7424,1.83389 1.88463,2.11044 1.47239,2.86275 -0.70465,1.2859 -2.11887,2.45928 -2.40985,1.99946 z m 27.92224,-5.81046 c 0.0182,-0.43206 0.10821,-0.51995 0.22943,-0.22408 0.1097,0.26773 0.0962,0.58762 -0.03,0.71087 -0.12619,0.12324 -0.21594,-0.0958 -0.19945,-0.48679 z m -7.74423,-9.4533 c -0.58774,-0.16104 -1.31401,-0.49171 -1.61395,-0.73483 -0.66631,-0.54007 -0.67963,-2.37592 -0.0281,-3.86831 0.47114,-1.07914 0.58044,-1.11729 4.44495,-1.55168 2.17907,-0.24494 4.9212,-0.4564 6.09362,-0.46992 l 2.13169,-0.0246 0.48152,2.21607 c 0.6622,3.04756 0.0846,3.94351 -2.74123,4.25172 -3.62507,0.3954 -7.6815,0.47937 -8.76853,0.18153 z m -18.52496,-13.89339 c -0.75357,-0.38854 -1.27484,-1.29767 -2.21352,-3.86053 -0.6753,-1.84377 -1.37776,-3.44282 -1.56104,-3.55344 -0.75491,-0.45567 0.14736,-1.29003 1.39505,-1.29003 1.41492,0 2.03789,0.77308 1.31165,1.62771 -0.33233,0.39109 -0.0788,1.11029 1.11914,3.17499 1.20543,2.07756 1.48069,2.86226 1.24161,3.53944 -0.28495,0.80711 -0.37852,0.8333 -1.29289,0.36186 z m -6.22958,-17.03839 c -1.04432,-0.29377 -2.02693,-0.54149 -2.18357,-0.5505 -0.6371,-0.0366 -0.20336,-0.92013 1.23536,-2.51645 0.8361,-0.92768 1.71579,-2.37193 1.95486,-3.20944 0.62127,-2.17649 1.52243,-2.82084 3.94507,-2.82084 2.8465,0 3.97245,1.27839 3.97245,4.51027 0,3.87046 -4.05747,5.95598 -8.92417,4.58696 z m 17.26687,-13.46212 c -0.95278,-0.4644 -1.45138,-1.04317 -1.80188,-2.09163 -0.81784,-2.4464 -1.23615,-6.39116 -1.24879,-11.77629 l -0.0121,-5.14743 -0.98055,1.13811 c -0.53931,0.62597 -1.81537,1.55127 -2.83569,2.05624 l -1.85514,0.91812 -0.36451,-0.93636 c -0.46327,-1.19004 -0.66294,-1.1753 -2.07411,0.1531 -1.7773,1.67304 -7.803,4.39385 -7.803,3.52331 0,-0.15904 0.24301,-0.55266 0.54004,-0.8747 0.65275,-0.70774 1.19156,-2.62756 0.73532,-2.62001 -0.17929,0.003 -1.07808,0.26119 -1.9973,0.57381 -3.26667,1.11099 -13.26533,2.173 -12.87891,1.36795 0.0734,-0.15299 1.29438,-2.61475 2.71322,-5.47056 1.41883,-2.85582 2.86728,-5.77655 3.21876,-6.4905 0.35149,-0.71396 1.57994,-2.22873 2.7299,-3.36616 1.64187,-1.62398 2.61631,-2.24119 4.53801,-2.87436 6.52902,-2.1512 18.12045,0.22068 20.39003,4.17228 0.4648,0.80926 1.3275,1.64431 1.97231,1.90911 3.54392,1.45531 3.75072,6.98858 0.57854,15.47966 -1.14028,3.05223 -1.44042,4.42279 -1.5588,7.11804 -0.0806,1.83589 -0.26844,3.46001 -0.41734,3.60916 -0.14891,0.14915 -0.86352,-0.0178 -1.58803,-0.37089 z m -14.96839,-8.55466 c -0.44185,-1.35964 -1.22938,-1.69003 -1.98202,-0.83153 -0.37132,0.42355 -0.83783,0.77008 -1.03668,0.77008 -0.19886,0 0.0398,-0.41724 0.53034,-0.92721 0.49055,-0.50997 1.18316,-0.92721 1.53913,-0.92721 0.63596,0 1.80354,2.0514 1.3948,2.4506 -0.11347,0.11082 -0.31398,-0.12981 -0.44557,-0.53473 z m 5.17651,-0.24532 c -0.53599,-1.14891 -1.35904,-1.18916 -2.13693,-0.10449 -0.6667,0.92962 -0.79701,0.61524 -0.19805,-0.47779 0.59849,-1.09217 2.19914,-0.93524 2.66493,0.26126 0.49526,1.27223 0.2329,1.52749 -0.32995,0.32102 z m 62.13828,-42.72132 c 0.27413,-0.10713 0.60167,-0.094 0.72786,0.0293 0.12619,0.12324 -0.0981,0.2109 -0.49842,0.19479 -0.44239,-0.0178 -0.53238,-0.10568 -0.22944,-0.22407 z m -3.91619,-0.8593 c -0.47873,-0.20091 -0.54892,-0.31875 -0.18987,-0.31875 0.31329,0 0.9114,0.14344 1.32913,0.31875 0.47873,0.20092 0.54892,0.31875 0.18987,0.31875 -0.31329,0 -0.9114,-0.14343 -1.32913,-0.31875 z m -1.78009,-0.62424 c 0.27414,-0.10714 0.60168,-0.094 0.72786,0.0293 0.12619,0.12325 -0.0981,0.2109 -0.49842,0.1948 -0.44239,-0.0178 -0.53237,-0.10568 -0.22944,-0.22407 z m -1.92249,-0.36316 c 0.26108,-0.10289 0.6883,-0.10289 0.94938,0 0.26108,0.10289 0.0475,0.18707 -0.47469,0.18707 -0.52216,0 -0.73577,-0.0842 -0.47469,-0.18707 z m -2.27851,-0.37088 c 0.26108,-0.10289 0.6883,-0.10289 0.94938,0 0.26108,0.10288 0.0475,0.18707 -0.47469,0.18707 -0.52216,0 -0.73577,-0.0842 -0.47469,-0.18707 z m -2.08141,-0.38228 c 0.36949,-0.094 0.88215,-0.0879 1.13926,0.0138 0.2571,0.1016 -0.0452,0.17853 -0.6718,0.17097 -0.62659,-0.008 -0.83695,-0.0907 -0.46746,-0.18471 z m -2.65826,-0.37089 c 0.36948,-0.094 0.88215,-0.0879 1.13925,0.0138 0.25711,0.1016 -0.0452,0.17854 -0.67179,0.17098 -0.62659,-0.008 -0.83695,-0.0907 -0.46746,-0.18472 z m -3.80475,-0.37951 c 0.57438,-0.085 1.51426,-0.085 2.08864,0 0.57437,0.085 0.10443,0.15451 -1.04432,0.15451 -1.14875,0 -1.61869,-0.0695 -1.04432,-0.15451 z m -112.62975,76.94623 c -0.10535,-0.25498 -0.19155,-0.0464 -0.19155,0.46361 0,0.50997 0.0862,0.71859 0.19155,0.4636 0.10534,-0.25498 0.10534,-0.67223 0,-0.92721 z m 0.7595,-4.45063 c -0.10535,-0.25498 -0.19154,-0.0464 -0.19154,0.46361 0,0.50997 0.0862,0.71859 0.19154,0.46361 0.10535,-0.25499 0.10535,-0.67223 0,-0.92722 z m 0.38766,-1.83124 c -0.12122,-0.29587 -0.21121,-0.20799 -0.22943,0.22407 -0.0165,0.39098 0.0733,0.61003 0.19945,0.48679 0.12619,-0.12324 0.13968,-0.44313 0.03,-0.71086 z m 0.37184,-1.87761 c -0.10534,-0.25498 -0.19154,-0.0464 -0.19154,0.46361 0,0.50996 0.0862,0.71859 0.19154,0.4636 0.10535,-0.25498 0.10535,-0.67223 0,-0.92721 z m 1.88468,-6.21233 c 4.30558,-14.06497 11.27274,-26.27852 21.36856,-37.45944 1.56562,-1.73389 3.11224,-3.40288 3.43693,-3.70886 0.32469,-0.30598 1.01757,-1.07048 1.53973,-1.69888 0.52215,-0.6284 -0.65976,0.45644 -2.62648,2.41076 -9.60516,9.54459 -16.94614,20.81162 -21.88871,33.59503 -1.32991,3.43969 -3.09344,9.27563 -3.36226,11.12657 l -0.21546,1.48354 0.39132,-1.2981 c 0.21522,-0.71395 0.82559,-2.71673 1.35637,-4.45062 z m 29.57311,-45.61892 c 0.37804,-0.40798 0.6019,-0.74177 0.49746,-0.74177 -0.10443,0 -0.49918,0.33379 -0.87722,0.74177 -0.37803,0.40797 -0.60189,0.74177 -0.49746,0.74177 0.10443,0 0.49918,-0.3338 0.87722,-0.74177 z M 364.34795,285.42091 C 345.4458,268.28952 328.81531,253.23939 327.39131,251.97618 l -2.58909,-2.29676 11.45061,-12.05377 c 6.29785,-6.62958 11.90212,-12.63793 12.45394,-13.35188 0.55182,-0.71396 1.8753,-2.29949 2.94107,-3.52342 5.65089,-6.48946 9.7596,-12.64449 13.8645,-20.76959 3.54629,-7.0194 6.03987,-14.15219 7.41962,-21.22345 1.27072,-6.51257 1.44522,-15.69404 0.40345,-21.22844 -1.7534,-9.31492 -5.68605,-16.79399 -11.93636,-22.70039 -6.7203,-6.35054 -14.45176,-9.81827 -24.58312,-11.02605 -11.32201,-1.34972 -24.77045,1.30201 -37.22882,7.34068 -10.41622,5.04882 -18.0326,10.43447 -26.79644,18.94814 -3.25777,3.16477 -7.17141,7.33967 -8.69698,9.27755 -11.81185,15.00419 -18.33766,30.24357 -19.80421,46.24773 l -0.44846,4.894 -4.96893,1.69503 c -17.36467,5.92353 -46.38066,15.64642 -46.47815,15.57423 -0.52393,-0.38794 -1.27867,-10.57317 -1.29043,-17.41423 -0.0343,-19.93722 4.48802,-38.08591 14.32465,-57.48726 10.22613,-20.16956 24.27341,-37.13013 42.52583,-51.34534 20.24449,-15.766654 43.9556,-25.80436 68.92497,-29.178247 5.90736,-0.798209 21.20885,-0.918896 26.58263,-0.209665 15.02159,1.982546 27.86059,6.207467 39.17214,12.89035 24.34297,14.381863 39.71848,38.218132 43.64224,67.657462 0.81813,6.13832 0.99206,19.23637 0.34054,25.64453 -2.36129,23.22483 -11.78482,46.86007 -26.7233,67.02493 -1.37876,1.86115 -2.50685,3.45081 -2.50685,3.53258 0,0.0818 7.90359,7.29461 17.56353,16.02852 9.65994,8.73391 17.56353,16.07728 17.56353,16.31859 0,0.56336 -32.91264,35.37701 -33.41817,35.34839 -0.20887,-0.0118 -15.84515,-14.0381 -34.7473,-31.16949 z"
         id="path4197"
         inkscape:connector-curvature="0" />
      <path
         style="fill:#6b4d30"
         d="m 495.55223,473.26973 c -7.64436,-0.57588 -17.8224,-2.66355 -25.9459,-5.32191 -1.9473,-0.63722 -3.74048,-1.09352 -3.98484,-1.01397 -1.18733,0.38654 -13.48418,-5.5615 -19.54821,-9.4555 -30.3693,-19.50174 -47.45941,-51.16008 -46.29102,-85.7512 0.26129,-7.73592 0.90825,-12.37099 2.76047,-19.77737 3.22689,-12.90324 9.76357,-26.0272 18.31236,-36.76651 3.57454,-4.49047 11.29417,-12.16236 16.13444,-16.03467 25.10167,-20.08182 58.52808,-27.91193 90.65174,-21.2351 19.10913,3.97178 35.51102,12.14017 49.68359,24.74317 22.58518,20.08388 34.60638,48.65603 32.72349,77.77761 -0.71223,11.01572 -2.7649,20.18025 -6.72488,30.02402 -3.045,7.56931 -8.14936,16.52305 -12.83929,22.52189 -2.32405,2.97264 -1.41982,0.93399 1.48802,-3.35485 3.08453,-4.54947 6.68317,-10.56933 6.68181,-11.17744 0,-0.21255 -0.81886,1.03219 -1.81867,2.76608 -7.28494,12.63398 -18.15731,24.57558 -30.07962,33.03767 -14.87889,10.56059 -32.7821,17.08076 -51.80715,18.86757 -3.73341,0.35064 -15.52497,0.44214 -19.39634,0.15051 z m 24.494,-8.46239 c 16.32861,-2.53244 32.54343,-9.3505 45.52085,-19.14077 4.5637,-3.44289 13.1468,-11.75265 16.44593,-15.92222 4.85323,-6.13369 9.02826,-12.98887 11.97176,-19.65694 5.16326,-11.69665 7.32837,-21.93848 7.32837,-34.66597 0,-15.78426 -3.13246,-28.05039 -10.75317,-42.10733 -12.39593,-22.8652 -35.30298,-39.85688 -62.34759,-46.24737 -0.41854,-0.0989 -1.01732,-0.21775 -1.33061,-0.26411 -0.3133,-0.0464 -1.21751,-0.29696 -2.00936,-0.55689 -0.79185,-0.25993 -1.66819,-0.38698 -1.94743,-0.28233 -0.27922,0.10465 -0.65667,0.0492 -0.83877,-0.12322 -0.54847,-0.51931 -11.5724,-1.48306 -16.94871,-1.4817 -6.76348,0.002 -18.47383,1.12014 -21.61091,2.06403 -0.99386,0.29903 -0.45108,-1.167 1.38257,-3.73428 0.87417,-1.22393 1.69192,-2.50032 1.81721,-2.83644 0.15933,-0.42743 1.06343,-0.74611 3.00783,-1.06023 1.52901,-0.24701 3.89079,-0.6707 5.24841,-0.94154 l 2.46838,-0.49242 -2.65826,0.17648 c -9.69335,0.64354 -16.18255,1.87032 -24.6229,4.65496 -32.59957,10.75525 -57.5468,36.12665 -66.31648,67.44402 -6.85256,24.47119 -3.43978,50.89553 9.25495,71.6588 3.24757,5.31164 3.65357,5.16952 0.78403,-0.27446 l -2.5092,-4.76038 1.4511,-0.55436 c 0.7981,-0.30491 1.5883,-0.77609 1.756,-1.04707 0.1677,-0.27098 0.68472,-0.92396 1.14894,-1.45105 l 0.84405,-0.95835 1.82074,3.37261 c 3.5308,6.54022 6.7511,11.13009 12.25254,17.46351 4.13188,4.75673 7.29381,7.66375 14.44192,13.27762 2.60031,2.04221 10.0722,6.62943 14.09687,8.65454 11.17957,5.6253 23.63987,9.21488 36.35694,10.47377 3.84323,0.38046 20.66587,-0.0872 24.494,-0.68091 z m -54.11464,-7.82279 c -7.74278,-3.36641 -12.73031,-6.1291 -19.20593,-10.63859 -2.49344,-1.73641 -6.0977,-4.80795 -5.88525,-5.01544 0.0995,-0.0971 0.58786,0.13523 1.08533,0.51638 3.85645,2.95473 10.08509,7.33022 12.56625,8.82752 2.96375,1.78852 11.34894,5.93954 13.90798,6.88504 1.38401,0.51134 2.33709,1.12894 1.6899,1.09508 -0.19842,-0.0104 -2.06965,-0.76191 -4.15828,-1.66999 z m -30.40794,-20.27056 c -4.01939,-4.01321 -6.99763,-7.34601 -6.99763,-7.8307 0,-0.59955 1.22113,0.35072 2.45495,1.91044 0.75367,0.95274 3.08815,3.44018 5.18773,5.52763 2.09957,2.08746 3.7571,3.97206 3.6834,4.18801 -0.0737,0.21595 -2.02151,-1.49197 -4.32845,-3.79538 z m 32.1271,-36.53518 c -0.0187,-0.82096 1.26114,-3.07239 1.74653,-3.07239 1.02281,0 0.87504,0.77995 -0.40196,2.12158 -0.73387,0.77101 -1.33892,1.19887 -1.34457,0.95081 z m 22.24233,-3.3452 c -0.49865,-0.48701 -0.17715,-1.49018 0.72238,-2.25405 0.52216,-0.44341 0.94938,-1.04203 0.94938,-1.33026 0,-0.34146 0.26463,-0.45648 0.7595,-0.33008 0.99794,0.25487 0.96081,0.55599 -0.28481,2.30929 -1.06361,1.49712 -1.7395,2.00255 -2.14645,1.6051 z m 5.49926,-2.16885 c 0.0182,-0.43206 0.10821,-0.51995 0.22943,-0.22408 0.1097,0.26773 0.0962,0.58762 -0.03,0.71087 -0.12619,0.12324 -0.21594,-0.0958 -0.19945,-0.48679 z m -7.52251,-9.33657 c -1.2558,-0.20725 -2.41794,-1.82928 -2.15602,-3.0092 0.64062,-2.88584 0.53044,-2.81812 5.38949,-3.31257 6.6902,-0.68078 7.1609,-0.6446 7.48883,0.57566 0.53375,1.98611 0.60399,3.28931 0.22918,4.2521 -0.32536,0.8358 -0.66624,1.00588 -2.39386,1.19443 -2.76849,0.30216 -7.53164,0.46891 -8.55762,0.29958 z m -18.74668,-14.01012 c -0.75357,-0.38854 -1.27484,-1.29767 -2.21352,-3.86053 -0.6753,-1.84377 -1.37776,-3.44282 -1.56104,-3.55344 -0.75491,-0.45567 0.14736,-1.29003 1.39505,-1.29003 1.41492,0 2.03789,0.77308 1.31165,1.62771 -0.33233,0.39109 -0.0788,1.11029 1.11914,3.17499 1.20543,2.07756 1.48069,2.86226 1.24161,3.53944 -0.28495,0.80711 -0.37852,0.8333 -1.29289,0.36186 z m -6.39912,-17.06517 c -1.13756,-0.3092 -2.14123,-0.6334 -2.23037,-0.72046 -0.0891,-0.0871 0.54586,-0.94376 1.4111,-1.90378 0.98332,-1.09102 1.79423,-2.48814 2.16274,-3.72619 0.68389,-2.29756 1.28972,-2.72002 3.90063,-2.72002 2.71442,0 3.84961,1.33001 3.84961,4.51027 0,3.92224 -4.02144,5.93886 -9.09371,4.56018 z m 17.43641,-13.43534 c -0.95278,-0.4644 -1.45138,-1.04317 -1.80188,-2.09163 -0.81784,-2.4464 -1.23615,-6.39116 -1.24879,-11.77629 l -0.0121,-5.14743 -0.98055,1.13811 c -0.53931,0.62597 -1.81537,1.55127 -2.83569,2.05624 l -1.85514,0.91812 -0.36451,-0.93636 c -0.46327,-1.19004 -0.66294,-1.1753 -2.07411,0.1531 -1.7773,1.67304 -7.803,4.39385 -7.803,3.52331 0,-0.15904 0.24301,-0.55266 0.54004,-0.8747 0.65275,-0.70774 1.19156,-2.62756 0.73532,-2.62001 -0.17929,0.003 -1.07808,0.26119 -1.9973,0.57381 -3.26667,1.11099 -13.26533,2.173 -12.87891,1.36795 0.0734,-0.15299 1.29438,-2.61475 2.71322,-5.47056 1.41883,-2.85582 2.86728,-5.77655 3.21876,-6.4905 0.35149,-0.71396 1.57994,-2.22873 2.7299,-3.36616 1.64187,-1.62398 2.61631,-2.24119 4.53801,-2.87436 6.52902,-2.1512 18.12045,0.22068 20.39003,4.17228 0.4648,0.80926 1.3275,1.64431 1.97231,1.90911 3.54392,1.45531 3.75072,6.98858 0.57854,15.47966 -1.14028,3.05223 -1.44042,4.42279 -1.5588,7.11804 -0.0806,1.83589 -0.26844,3.46001 -0.41734,3.60916 -0.14891,0.14915 -0.86352,-0.0178 -1.58803,-0.37089 z m -14.96839,-8.55466 c -0.44185,-1.35964 -1.22938,-1.69003 -1.98202,-0.83153 -0.37132,0.42355 -0.83783,0.77008 -1.03668,0.77008 -0.19886,0 0.0398,-0.41724 0.53034,-0.92721 0.49055,-0.50997 1.18316,-0.92721 1.53913,-0.92721 0.63596,0 1.80354,2.0514 1.3948,2.4506 -0.11347,0.11082 -0.31398,-0.12981 -0.44557,-0.53473 z m 5.17651,-0.24532 c -0.53599,-1.14891 -1.35904,-1.18916 -2.13693,-0.10449 -0.6667,0.92962 -0.79701,0.61524 -0.19805,-0.47779 0.59849,-1.09217 2.19914,-0.93524 2.66493,0.26126 0.49526,1.27223 0.2329,1.52749 -0.32995,0.32102 z m 129.63372,83.96954 c 0.33403,-0.63092 0.53993,-1.21297 0.45756,-1.29345 -0.0824,-0.0805 -0.43402,0.43573 -0.78138,1.14713 -0.78099,1.59952 -0.51038,1.72179 0.32382,0.14632 z M 362.12544,283.23425 c -20.29448,-18.34903 -36.88112,-33.48873 -36.8592,-33.64379 0.0219,-0.15506 5.10745,-5.64359 11.30118,-12.19675 18.40266,-19.4706 23.10529,-25.51333 29.11584,-37.41295 10.29619,-20.38426 11.28664,-42.02529 2.59707,-56.74548 -17.63408,-29.87226 -64.91169,-25.3907 -98.18889,9.30756 -7.54464,7.86683 -12.56251,14.88675 -17.3486,24.27045 -5.30869,10.40832 -8.77625,23.04614 -8.77625,31.98582 l 0,1.61531 -25.65545,8.63879 c -14.11049,4.75135 -25.71284,8.57902 -25.78299,8.50595 -1.01767,-1.06005 -1.70927,-20.1796 -0.99742,-27.57399 4.59474,-47.72837 37.47015,-93.05424 83.38564,-114.965128 27.59054,-13.166218 55.94052,-16.691875 82.18548,-10.220739 32.8044,8.088476 57.21781,31.655737 66.29299,63.995337 2.77351,9.88346 3.80516,19.09439 3.48825,31.1444 -0.21795,8.28697 -0.63211,12.37411 -1.95434,19.28604 -3.58409,18.73587 -12.3889,38.58229 -24.53629,55.3059 -1.68759,2.32334 -3.01162,4.36009 -2.94229,4.52609 0.0693,0.166 8.03146,7.44791 17.6936,16.18201 15.2537,13.78859 17.50448,15.95856 17.08884,16.47521 -0.80216,0.9971 -32.5604,34.49088 -32.89541,34.69309 -0.17198,0.10381 -16.91727,-14.8241 -37.21176,-33.17313 z"
         id="path4195"
         inkscape:connector-curvature="0" />
      <path
         style="fill:#03446a"
         d="m 495.55223,473.26973 c -7.64436,-0.57588 -17.8224,-2.66355 -25.9459,-5.32191 -1.9473,-0.63722 -3.74048,-1.09352 -3.98484,-1.01397 -1.18733,0.38654 -13.48418,-5.5615 -19.54821,-9.4555 -30.3693,-19.50174 -47.45941,-51.16008 -46.29102,-85.7512 0.26129,-7.73592 0.90825,-12.37099 2.76047,-19.77737 1.76694,-7.0654 3.78855,-12.42324 7.3814,-19.56288 4.9999,-9.93569 10.14528,-17.04591 18.22168,-25.17992 27.1796,-27.37346 66.29221,-37.77913 105.19174,-27.98562 11.21932,2.82462 24.63222,9.06465 34.65895,16.12423 6.80107,4.78847 14.9684,12.35751 20.15927,18.68247 9.32815,11.36617 16.61205,26.12785 19.76475,40.05564 4.95554,21.89208 1.94786,44.76951 -8.53295,64.90497 -2.18091,4.18987 -6.29518,10.65538 -8.90339,13.99152 -2.32405,2.97264 -1.41982,0.93399 1.48802,-3.35485 3.08453,-4.54947 6.68317,-10.56933 6.68181,-11.17744 0,-0.21255 -0.81886,1.03219 -1.81867,2.76608 -7.28494,12.63398 -18.15731,24.57558 -30.07962,33.03767 -14.87889,10.56059 -32.7821,17.08076 -51.80715,18.86757 -3.73341,0.35064 -15.52497,0.44214 -19.39634,0.15051 z m 24.494,-8.46239 c 16.32861,-2.53244 32.54343,-9.3505 45.52085,-19.14077 4.5637,-3.44289 13.1468,-11.75265 16.44593,-15.92222 4.85323,-6.13369 9.02826,-12.98887 11.97176,-19.65694 5.16326,-11.69665 7.32837,-21.93848 7.32837,-34.66597 0,-15.78426 -3.13246,-28.05039 -10.75317,-42.10733 -12.39593,-22.8652 -35.30298,-39.85688 -62.34759,-46.24737 -0.41854,-0.0989 -1.01732,-0.21775 -1.33061,-0.26411 -0.3133,-0.0464 -1.21751,-0.29696 -2.00936,-0.55689 -0.79185,-0.25993 -1.66819,-0.38698 -1.94743,-0.28233 -0.27922,0.10465 -0.65667,0.0492 -0.83877,-0.12322 -0.54847,-0.51931 -11.5724,-1.48306 -16.94871,-1.4817 -6.76348,0.002 -18.47383,1.12014 -21.61091,2.06403 -0.99386,0.29903 -0.45108,-1.167 1.38257,-3.73428 0.87417,-1.22393 1.69192,-2.50032 1.81721,-2.83644 0.15933,-0.42743 1.06343,-0.74611 3.00783,-1.06023 1.52901,-0.24701 3.89079,-0.6707 5.24841,-0.94154 l 2.46838,-0.49242 -2.65826,0.17648 c -9.69335,0.64354 -16.18255,1.87032 -24.6229,4.65496 -32.59957,10.75525 -57.5468,36.12665 -66.31648,67.44402 -6.85256,24.47119 -3.43978,50.89553 9.25495,71.6588 3.24757,5.31164 3.65357,5.16952 0.78403,-0.27446 l -2.5092,-4.76038 1.4511,-0.55436 c 0.7981,-0.30491 1.5883,-0.77609 1.756,-1.04707 0.1677,-0.27098 0.68472,-0.92396 1.14894,-1.45105 l 0.84405,-0.95835 1.82074,3.37261 c 3.5308,6.54022 6.7511,11.13009 12.25254,17.46351 4.13188,4.75673 7.29381,7.66375 14.44192,13.27762 2.60031,2.04221 10.0722,6.62943 14.09687,8.65454 11.17957,5.6253 23.63987,9.21488 36.35694,10.47377 3.84323,0.38046 20.66587,-0.0872 24.494,-0.68091 z m -51.15394,-93.94932 c -0.51369,-0.39336 -1.21473,-1.81659 -1.81555,-3.6858 -0.53831,-1.67475 -1.14714,-3.14664 -1.35296,-3.27088 -0.58999,-0.35612 -0.0236,-0.91639 0.92643,-0.91639 1.1551,0 1.42152,0.32565 0.95817,1.17121 -0.29067,0.53046 -0.21064,0.95049 0.32638,1.71294 1.80168,2.55796 2.94679,5.66309 2.07916,5.63797 -0.15665,-0.005 -0.66138,-0.29661 -1.12163,-0.64905 z m -6.1886,-17.01876 c -0.93988,-0.32939 -1.77191,-0.65151 -1.84895,-0.71582 -0.077,-0.0643 0.48197,-0.82668 1.24225,-1.69415 0.76028,-0.86748 1.57753,-2.25237 1.81612,-3.07754 0.6176,-2.13601 1.0619,-2.4636 3.65236,-2.69302 2.29376,-0.20313 2.30653,-0.19878 3.08648,1.05069 1.48479,2.37861 0.74929,5.68576 -1.51932,6.83151 -1.713,0.86515 -4.44922,0.99212 -6.42894,0.29833 z m 137.29859,62.14786 c 0.33403,-0.63092 0.53993,-1.21297 0.45756,-1.29345 -0.0824,-0.0805 -0.43402,0.43573 -0.78138,1.14713 -0.78099,1.59952 -0.51038,1.72179 0.32382,0.14632 z M 362.12544,283.23425 c -20.29448,-18.34903 -36.88112,-33.48873 -36.8592,-33.64379 0.0219,-0.15506 5.10745,-5.64359 11.30118,-12.19675 18.40266,-19.4706 23.10529,-25.51333 29.11584,-37.41295 10.29619,-20.38426 11.28664,-42.02529 2.59707,-56.74548 -17.63408,-29.87226 -64.91169,-25.3907 -98.18889,9.30756 -7.54464,7.86683 -12.56251,14.88675 -17.3486,24.27045 -5.30869,10.40832 -8.77625,23.04614 -8.77625,31.98582 l 0,1.61531 -25.65545,8.63879 c -14.11049,4.75135 -25.71284,8.57902 -25.78299,8.50595 -1.01767,-1.06005 -1.70927,-20.1796 -0.99742,-27.57399 4.59474,-47.72837 37.47015,-93.05424 83.38564,-114.965128 27.59054,-13.166218 55.94052,-16.691875 82.18548,-10.220739 32.8044,8.088476 57.21781,31.655737 66.29299,63.995337 2.77351,9.88346 3.80516,19.09439 3.48825,31.1444 -0.21795,8.28697 -0.63211,12.37411 -1.95434,19.28604 -3.58409,18.73587 -12.3889,38.58229 -24.53629,55.3059 -1.68759,2.32334 -3.01162,4.36009 -2.94229,4.52609 0.0693,0.166 8.03146,7.44791 17.6936,16.18201 15.2537,13.78859 17.50448,15.95856 17.08884,16.47521 -0.80216,0.9971 -32.5604,34.49088 -32.89541,34.69309 -0.17198,0.10381 -16.91727,-14.8241 -37.21176,-33.17313 z"
         id="path4193"
         inkscape:connector-curvature="0" />
    </g>
    <text
       xml:space="preserve"
       style="font-style:normal;font-weight:normal;font-size:147.77096558px;line-height:125%;font-family:Sans;letter-spacing:0px;word-spacing:0px;fill:#03446a;fill-opacity:1;stroke:none"
       x="102.26514"
       y="384.11765"
       id="text3892"
       sodipodi:linespacing="125%"
       transform="scale(0.82854941,1.2069286)"><tspan
         sodipodi:role="line"
         x="102.26514"
         y="384.11765"
         id="tspan3898">Success</tspan></text>
  </g>
</svg>
