<?xml version="1.0" encoding="UTF-8" standalone="no"?>
<!-- Creator: CorelDRAW X8 -->

<svg
   xmlns:dc="http://purl.org/dc/elements/1.1/"
   xmlns:cc="http://creativecommons.org/ns#"
   xmlns:rdf="http://www.w3.org/1999/02/22-rdf-syntax-ns#"
   xmlns:svg="http://www.w3.org/2000/svg"
   xmlns="http://www.w3.org/2000/svg"
   xmlns:sodipodi="http://sodipodi.sourceforge.net/DTD/sodipodi-0.dtd"
   xmlns:inkscape="http://www.inkscape.org/namespaces/inkscape"
   xml:space="preserve"
   width="1052"
   height="744"
   version="1.1"
   style="clip-rule:evenodd;fill-rule:evenodd;image-rendering:optimizeQuality;shape-rendering:geometricPrecision;text-rendering:geometricPrecision"
   viewBox="0 0 1134.4768 655.91041"
   id="svg2"
   inkscape:version="0.91 r13725"
   sodipodi:docname="osoe-Careers.And.Assignments.Person.Staff.Client.Supplier.svg"><metadata
     id="metadata195"><rdf:RDF><cc:Work
         rdf:about=""><dc:format>image/svg+xml</dc:format><dc:type
           rdf:resource="http://purl.org/dc/dcmitype/StillImage" /><dc:title></dc:title></cc:Work></rdf:RDF></metadata><sodipodi:namedview
     pagecolor="#ffffff"
     bordercolor="#666666"
     borderopacity="1"
     objecttolerance="10"
     gridtolerance="10"
     guidetolerance="10"
     inkscape:pageopacity="0"
     inkscape:pageshadow="2"
     inkscape:window-width="1366"
     inkscape:window-height="705"
     id="namedview193"
     showgrid="false"
     units="px"
     showborder="true"
     inkscape:zoom="0.50373353"
     inkscape:cx="452.36604"
     inkscape:cy="412.37776"
     inkscape:window-x="-8"
     inkscape:window-y="-8"
     inkscape:window-maximized="1"
     inkscape:current-layer="Layer_x0020_1" /><defs
     id="defs4"><style
       type="text/css"
       id="style6"><![CDATA[
    .fil0 {fill:black}
   ]]></style></defs><g
     id="Layer_x0020_1"
     transform="matrix(0.8434325,0,0,0.7283115,0,-72.028251)"><metadata
       id="CorelCorpID_0Corel-Layer" /><g
       id="_2188994986160" /><g
       id="_2188994987504" /><g
       id="_2188994986544" /><g
       id="_2188994989712" /><g
       id="_2188994988272" /><g
       id="_2188994957840" /><g
       id="_2188994958448" /><g
       id="_2188994957424" /><g
       id="_2188994960432" /><g
       id="_2188994960912" /><g
       id="_2188994961264" /><g
       id="_2188994959728" /><g
       id="_2188994960528" /><g
       id="_2188994961968" /><g
       id="_2188994963056" /><g
       id="_2188994962864"
       transform="matrix(0.80545858,0,0,0.74221788,204.04858,148.4825)"
       style="fill:#044466;fill-opacity:1"><g
         id="g26"
         style="fill:#044466;fill-opacity:1"><g
           id="g28"
           style="fill:#044466;fill-opacity:1"><path
             class="fil0"
             d="m 1231,286 c 20,0 37,-17 37,-38 0,-21 -17,-38 -37,-38 -21,0 -38,17 -38,38 0,21 17,38 38,38 z"
             id="path30"
             inkscape:connector-curvature="0"
             style="fill:#044466;fill-opacity:1" /><path
             class="fil0"
             d="m 1275,413 0,8 -32,0 0,77 105,0 0,-77 -31,0 0,-8 c 0,-3 -3,-6 -6,-6 l -1,0 c 1,-2 1,-4 0,-6 -8,-60 -22,-86 -54,-106 -1,0 -2,0 -2,-1 -4,-2 -9,-5 -14,-6 l -9,10 -10,-10 c 0,0 0,0 0,0 -7,2 -13,5 -19,10 -4,3 -8,6 -11,9 -10,7 -17,15 -25,22 -18,18 -30,29 -51,28 -9,-1 -17,6 -18,15 0,4 1,7 3,10 -1,0 -2,0 -3,0 -51,0 -93,42 -93,94 0,51 42,93 93,93 52,0 94,-42 94,-93 0,-39 -24,-73 -59,-87 26,-4 43,-22 58,-36 0,0 0,-1 0,-1 1,3 2,6 2,6 l 0,47 c 0,4 1,7 2,11 0,0 0,1 0,2 l 0,141 c 0,9 8,17 17,17 10,0 18,-8 18,-17 l 0,-121 c 0,0 1,0 2,0 0,0 0,0 0,0 l 0,121 c 0,9 8,17 17,17 10,0 18,-8 18,-17 l 0,-55 -28,0 0,-88 29,0 c 2,-4 2,-7 2,-11 l 0,-51 c 5,12 9,28 12,51 0,1 1,1 1,2 l -1,0 c -3,0 -6,3 -6,6 z m -225,129 0,-43 c 0,0 1,0 1,0 0,0 0,0 0,0 l 0,43 c 0,0 0,1 0,1 0,0 0,-1 -1,-1 z m 1,-66 0,0 -3,-4 3,-22 0,0 3,22 -3,4 z m 9,72 c 2,-1 3,-3 3,-6 l 0,-49 c 1,1 1,1 2,1 1,1 1,1 2,1 2,0 4,-1 5,-3 0,1 0,1 0,2 1,2 4,3 6,3 1,0 2,0 3,-1 0,0 0,0 1,0 l 0,57 c 0,1 0,2 0,3 -8,-2 -15,-4 -22,-8 z m 6,-71 c 0,2 0,4 -1,6 l 0,-16 c 0,1 1,2 1,3 0,2 0,5 0,7 z m 15,-13 0,19 c -4,-8 -3,-14 0,-19 z m 16,93 c -1,0 -1,0 -2,0 1,-1 1,-2 1,-4 l 0,-51 c 1,0 1,0 1,0 0,0 0,0 0,0 l 0,51 c 0,2 1,3 2,4 -1,0 -1,0 -2,0 z m 0,-82 0,0 -4,-5 4,-26 0,0 4,26 -4,5 z m 14,81 c 1,-1 1,-2 1,-3 l 0,-58 c 0,0 1,1 1,1 1,1 2,1 3,1 3,0 5,-1 6,-3 0,-1 0,-1 1,-2 1,2 2,3 4,3 1,0 2,0 2,-1 1,0 1,0 1,0 l 0,48 c 0,3 2,5 5,6 -8,4 -15,7 -24,8 z m 2,-73 0,-19 c 3,5 4,11 0,19 z m 15,-13 c 0,-1 1,-2 1,-3 l 0,16 c 0,-2 -1,-4 -1,-6 0,-2 0,-5 0,-7 z m 14,74 c 0,-1 0,-1 0,-2 l 0,-43 c 1,0 1,0 1,0 0,0 0,0 0,0 l 0,43 c 0,0 0,1 0,1 0,0 0,0 -1,1 z m 1,-68 0,0 -3,-4 3,-22 0,0 4,22 -4,4 z m 36,0 c 0,22 -9,42 -23,56 l 0,-39 c 0,1 1,1 1,1 1,1 2,1 3,1 1,0 3,-1 4,-3 15,-27 -5,-39 -12,-43 0,-1 0,-1 -1,-1 -1,-1 -3,-1 -4,-2 l -4,3 -3,-3 c 0,0 0,0 0,0 -2,1 -4,1 -5,2 0,0 -1,0 -1,1 -2,1 -7,4 -10,8 -5,-8 -13,-12 -16,-15 -1,0 -1,0 -1,0 -2,-1 -4,-2 -6,-3 l -4,4 -4,-4 c 0,0 0,0 0,0 -2,1 -4,2 -6,3 0,0 0,0 0,0 -4,3 -12,7 -17,15 -3,-4 -8,-7 -10,-8 0,-1 -1,-1 -1,-1 -1,-1 -3,-1 -5,-2 l -3,3 -3,-3 c 0,0 0,0 0,0 -2,1 -4,1 -5,2 -1,0 -1,0 -1,1 -7,4 -27,16 -12,43 1,2 3,3 5,3 0,0 1,0 2,-1 0,0 1,0 1,0 l 0,37 c -14,-14 -22,-34 -22,-55 0,-45 36,-82 81,-82 45,0 82,37 82,82 z m -22,7 0,-16 c 2,4 3,9 0,16 z m -120,-16 0,16 c -3,-7 -2,-12 0,-16 z m 194,-94 0,0 -10,-13 7,-47 c 1,-2 1,-4 1,-6 l 2,-8 0,0 9,61 -9,13 z m 54,39 c 2,4 6,6 11,6 1,0 1,0 2,-1 4,0 7,-2 9,-5 l 4,0 c 0,0 1,1 1,1 l 0,8 -32,0 0,-8 c 0,0 1,-1 1,-1 l 4,0 z"
             id="path32"
             inkscape:connector-curvature="0"
             style="fill:#044466;fill-opacity:1" /><circle
             class="fil0"
             cx="1097"
             cy="423"
             r="16"
             id="circle34"
             style="fill:#044466;fill-opacity:1" /><circle
             class="fil0"
             cx="1143"
             cy="432"
             r="13"
             id="circle36"
             style="fill:#044466;fill-opacity:1" /><circle
             class="fil0"
             cx="1051"
             cy="432"
             r="13"
             id="circle38"
             style="fill:#044466;fill-opacity:1" /></g></g><g
         id="g40"
         style="fill:#044466;fill-opacity:1" /><g
         id="g42"
         style="fill:#044466;fill-opacity:1" /><g
         id="g44"
         style="fill:#044466;fill-opacity:1" /><g
         id="g46"
         style="fill:#044466;fill-opacity:1" /><g
         id="g48"
         style="fill:#044466;fill-opacity:1" /><g
         id="g50"
         style="fill:#044466;fill-opacity:1" /><g
         id="g52"
         style="fill:#044466;fill-opacity:1" /><g
         id="g54"
         style="fill:#044466;fill-opacity:1" /><g
         id="g56"
         style="fill:#044466;fill-opacity:1" /><g
         id="g58"
         style="fill:#044466;fill-opacity:1" /><g
         id="g60"
         style="fill:#044466;fill-opacity:1" /><g
         id="g62"
         style="fill:#044466;fill-opacity:1" /><g
         id="g64"
         style="fill:#044466;fill-opacity:1" /><g
         id="g66"
         style="fill:#044466;fill-opacity:1" /><g
         id="g68"
         style="fill:#044466;fill-opacity:1" /></g><g
       id="_2190353363856"
       transform="matrix(0.69470345,0,0,0.75995073,104.74787,114.56574)"
       style="fill:#044466;fill-opacity:1"><g
         id="g71"
         style="fill:#044466;fill-opacity:1"><g
           id="g73"
           style="fill:#044466;fill-opacity:1"><g
             id="g75"
             style="fill:#044466;fill-opacity:1"><path
               class="fil0"
               d="M 445,0 258,0 c -12,0 -21,10 -21,22 l 0,96 c 0,12 9,22 21,22 l 17,0 0,38 c 0,2 1,5 4,6 1,0 2,1 2,1 2,0 4,-1 5,-2 l 50,-43 109,0 c 12,0 22,-10 22,-22 l 0,-96 C 467,10 457,0 445,0 Z m -133,66 -10,9 2,14 c 1,1 0,2 -1,3 0,0 -1,0 -1,0 -1,0 -1,0 -1,0 l -13,-6 -12,6 c -1,0 -2,0 -3,0 -1,-1 -1,-2 -1,-3 l 3,-14 -10,-9 c -1,-1 -1,-2 -1,-3 0,-1 1,-2 2,-2 l 14,-2 6,-12 c 0,-1 1,-2 2,-2 1,0 2,1 3,2 l 6,12 14,2 c 1,0 1,1 2,2 0,1 0,2 -1,3 z m 63,0 -10,9 3,14 c 0,1 -1,2 -1,3 -1,0 -1,0 -2,0 0,0 -1,0 -1,0 l -12,-6 -13,6 c -1,0 -2,0 -2,0 -1,-1 -2,-2 -2,-3 l 3,-14 -10,-9 c -1,-1 -1,-2 -1,-3 0,-1 1,-2 2,-2 l 14,-2 6,-12 c 1,-1 2,-2 3,-2 1,0 2,1 2,2 l 6,12 14,2 c 1,0 2,1 2,2 0,1 0,2 -1,3 z m 64,0 -10,9 2,14 c 0,1 0,2 -1,3 -1,0 -1,0 -2,0 0,0 0,0 -1,0 l -12,-6 -12,6 c -1,0 -2,0 -3,0 -1,-1 -1,-2 -1,-3 l 2,-14 -10,-9 c -1,-1 -1,-2 -1,-3 1,-1 2,-2 3,-2 l 13,-2 6,-12 c 1,-1 2,-2 3,-2 1,0 2,1 2,2 l 6,12 14,2 c 1,0 2,1 2,2 1,1 0,2 0,3 z"
               id="path77"
               inkscape:connector-curvature="0"
               style="fill:#044466;fill-opacity:1" /><path
               class="fil0"
               d="m 149,66 c -46,0 -71,24 -70,70 0,62 27,100 70,99 0,0 70,3 70,-99 0,-46 -23,-70 -70,-70 z"
               id="path79"
               inkscape:connector-curvature="0"
               style="fill:#044466;fill-opacity:1" /><path
               class="fil0"
               d="m 274,283 -71,-29 -16,-13 c -5,-4 -11,-4 -15,0 l -23,23 -23,-23 c -4,-4 -10,-4 -15,0 L 95,254 25,283 C 2,292 2,372 0,379 l 298,0 c -2,-7 -2,-87 -24,-96 z"
               id="path81"
               inkscape:connector-curvature="0"
               style="fill:#044466;fill-opacity:1" /></g></g></g><g
         id="g83"
         style="fill:#044466;fill-opacity:1" /><g
         id="g85"
         style="fill:#044466;fill-opacity:1" /><g
         id="g87"
         style="fill:#044466;fill-opacity:1" /><g
         id="g89"
         style="fill:#044466;fill-opacity:1" /><g
         id="g91"
         style="fill:#044466;fill-opacity:1" /><g
         id="g93"
         style="fill:#044466;fill-opacity:1" /><g
         id="g95"
         style="fill:#044466;fill-opacity:1" /><g
         id="g97"
         style="fill:#044466;fill-opacity:1" /><g
         id="g99"
         style="fill:#044466;fill-opacity:1" /><g
         id="g101"
         style="fill:#044466;fill-opacity:1" /><g
         id="g103"
         style="fill:#044466;fill-opacity:1" /><g
         id="g105"
         style="fill:#044466;fill-opacity:1" /><g
         id="g107"
         style="fill:#044466;fill-opacity:1" /><g
         id="g109"
         style="fill:#044466;fill-opacity:1" /><g
         id="g111"
         style="fill:#044466;fill-opacity:1" /></g><g
       id="_2189204567520"
       transform="translate(-3.8805897e-7,13.478323)"
       style="fill:#044466;fill-opacity:1"><g
         id="g114"
         transform="matrix(0.78943228,0,0,0.80220492,159.22748,138.25876)"
         style="fill:#044466;fill-opacity:1"><path
           class="fil0"
           d="m 506,531 0,-30 102,0 0,30 -102,0 z m 93,-247 c 6,0 10,-4 10,-10 0,-5 -4,-9 -10,-9 -5,0 -10,4 -10,9 0,6 5,10 10,10 z m 64,0 c 5,0 10,-4 10,-10 0,-5 -5,-9 -10,-9 -5,0 -10,4 -10,9 0,6 5,10 10,10 z m -55,167 0,-30 -102,0 0,30 102,0 z m 0,130 -142,0 0,-359 256,0 0,173 -114,0 0,10 -118,0 0,62 118,0 0,18 -118,0 0,62 118,0 0,34 z m 29,-306 c 0,14 12,25 26,25 14,0 26,-11 26,-25 0,-15 -12,-26 -26,-26 -14,0 -26,11 -26,26 z m -64,0 c 0,14 12,25 26,25 14,0 26,-11 26,-25 0,-15 -12,-26 -26,-26 -14,0 -26,11 -26,26 z m -83,111 211,0 0,-62 -211,0 0,62 z m 16,-46 179,0 0,30 -179,0 0,-30 z m 142,18 25,0 0,-8 -25,0 0,8 z m 162,240 0,14 c 37,1 64,5 64,9 0,5 -42,9 -94,9 -53,0 -95,-4 -95,-9 0,-4 22,-7 53,-9 l 0,-14 -112,0 0,-188 296,0 0,188 -112,0 0,0 z m 92,-16 0,-158 -256,0 0,158 256,0 z M 788,383 c 0,0 2,0 2,0 1,-1 2,-2 1,-3 l -12,-30 21,0 c 4,0 19,2 29,12 7,7 11,16 11,29 l 28,0 c 0,-21 -6,-37 -19,-50 -20,-20 -50,-20 -51,-20 l 0,1 c -2,-1 -3,-1 -3,-1 l -16,0 12,-30 c 1,-1 0,-2 -1,-2 0,-1 -1,-1 -1,-1 -1,0 -1,0 -1,1 l -59,45 c -1,0 -1,1 -1,2 0,0 0,1 1,2 l 59,45 z M 610,604 c -1,-1 -2,-1 -3,0 -1,1 -1,2 -1,3 l 12,30 -21,0 c -4,0 -19,-2 -29,-12 -7,-7 -10,-16 -10,-30 l -29,0 c 0,21 6,38 19,51 21,20 50,19 51,19 l 0,0 c 2,0 4,0 4,0 l 15,1 -12,29 c 0,1 0,3 1,3 0,1 1,1 1,1 1,0 1,0 2,-1 l 59,-45 c 0,0 1,-1 1,-2 0,-1 -1,-1 -1,-2 l -59,-45 z"
           id="path116"
           inkscape:connector-curvature="0"
           style="fill:#044466;fill-opacity:1" /></g><g
         id="g118"
         style="fill:#044466;fill-opacity:1" /><g
         id="g120"
         style="fill:#044466;fill-opacity:1" /><g
         id="g122"
         style="fill:#044466;fill-opacity:1" /><g
         id="g124"
         style="fill:#044466;fill-opacity:1" /><g
         id="g126"
         style="fill:#044466;fill-opacity:1" /><g
         id="g128"
         style="fill:#044466;fill-opacity:1" /><g
         id="g130"
         style="fill:#044466;fill-opacity:1" /><g
         id="g132"
         style="fill:#044466;fill-opacity:1" /><g
         id="g134"
         style="fill:#044466;fill-opacity:1" /><g
         id="g136"
         style="fill:#044466;fill-opacity:1" /><g
         id="g138"
         style="fill:#044466;fill-opacity:1" /><g
         id="g140"
         style="fill:#044466;fill-opacity:1" /><g
         id="g142"
         style="fill:#044466;fill-opacity:1" /><g
         id="g144"
         style="fill:#044466;fill-opacity:1" /><g
         id="g146"
         style="fill:#044466;fill-opacity:1" /></g><g
       id="_2189204507424"
       transform="matrix(0.7136634,0,0,0.7346787,237.56678,268.79702)"
       style="fill:#044466;fill-opacity:1"><g
         id="g149"
         style="fill:#044466;fill-opacity:1"><path
           class="fil0"
           d="m 603,985 -45,-28 5,-13 -1,1 c -4,1 -8,2 -12,2 -6,0 -12,-2 -17,-5 -9,-5 -14,-14 -16,-24 l -6,-58 c 0,-1 0,-2 0,-3 l -27,74 c -4,11 -1,21 2,31 1,3 19,54 19,54 l -37,50 c -7,10 -5,24 5,32 4,3 9,4 14,4 7,0 13,-3 18,-9 l 44,-60 c 5,-6 6,-14 3,-22 l -2,-5 17,11 -5,60 c -1,13 8,24 20,25 1,0 2,0 2,0 12,0 22,-9 23,-21 l 7,-74 c 1,-9 -3,-17 -11,-22 z"
           id="path151"
           inkscape:connector-curvature="0"
           style="fill:#044466;fill-opacity:1" /><path
           class="fil0"
           d="m 576,853 2,15 14,-6 c 5,-19 -6,-39 -25,-46 -18,-6 -37,1 -47,18 5,-6 12,-9 20,-10 18,-2 34,11 36,29 z"
           id="path153"
           inkscape:connector-curvature="0"
           style="fill:#044466;fill-opacity:1" /><path
           class="fil0"
           d="m 576,801 c 22,0 40,-18 40,-40 0,-22 -18,-40 -40,-40 -22,0 -40,18 -40,40 0,22 18,40 40,40 z"
           id="path155"
           inkscape:connector-curvature="0"
           style="fill:#044466;fill-opacity:1" /><path
           class="fil0"
           d="m 833,957 -121,0 c -9,0 -17,8 -17,17 l 0,48 c 0,10 8,18 17,18 l 121,0 c 9,0 17,-8 17,-18 l 0,-48 c 0,-9 -8,-17 -17,-17 z"
           id="path157"
           inkscape:connector-curvature="0"
           style="fill:#044466;fill-opacity:1" /><path
           class="fil0"
           d="m 698,933 68,0 c 9,0 17,-7 17,-17 l 0,-43 c 0,-9 -8,-17 -17,-17 l -68,0 c -9,0 -17,8 -17,17 l 0,43 c 0,10 8,17 17,17 z"
           id="path159"
           inkscape:connector-curvature="0"
           style="fill:#044466;fill-opacity:1" /><path
           class="fil0"
           d="m 817,1057 -150,0 0,-149 c 0,-7 -6,-13 -13,-13 l -6,0 -13,0 c 1,-4 2,-10 0,-14 -4,-11 -16,-15 -26,-11 l -42,17 -4,-33 c -1,-11 -11,-18 -22,-17 -10,1 -18,11 -17,21 l 6,58 c 1,7 5,12 10,15 3,2 6,3 10,3 2,0 5,-1 7,-2 l 43,-16 c 2,3 6,5 10,5 l 11,0 20,0 0,150 c 0,7 6,13 13,13 l 16,0 c 2,9 11,17 21,17 11,0 20,-8 22,-17 l 49,0 c 2,9 10,17 21,17 10,0 19,-8 21,-17 l 13,0 c 8,0 13,-6 13,-13 0,-8 -5,-14 -13,-14 z"
           id="path161"
           inkscape:connector-curvature="0"
           style="fill:#044466;fill-opacity:1" /></g><g
         id="g163"
         style="fill:#044466;fill-opacity:1" /><g
         id="g165"
         style="fill:#044466;fill-opacity:1" /><g
         id="g167"
         style="fill:#044466;fill-opacity:1" /><g
         id="g169"
         style="fill:#044466;fill-opacity:1" /><g
         id="g171"
         style="fill:#044466;fill-opacity:1" /><g
         id="g173"
         style="fill:#044466;fill-opacity:1" /><g
         id="g175"
         style="fill:#044466;fill-opacity:1" /><g
         id="g177"
         style="fill:#044466;fill-opacity:1" /><g
         id="g179"
         style="fill:#044466;fill-opacity:1" /><g
         id="g181"
         style="fill:#044466;fill-opacity:1" /><g
         id="g183"
         style="fill:#044466;fill-opacity:1" /><g
         id="g185"
         style="fill:#044466;fill-opacity:1" /><g
         id="g187"
         style="fill:#044466;fill-opacity:1" /><g
         id="g189"
         style="fill:#044466;fill-opacity:1" /><g
         id="g191"
         style="fill:#044466;fill-opacity:1" /></g><path
       style="fill:none;fill-rule:evenodd;stroke:#044466;stroke-width:6.90902758;stroke-linecap:butt;stroke-linejoin:miter;stroke-miterlimit:4;stroke-dasharray:none;stroke-opacity:1"
       d="M 298.34437,467.70076 480.57865,568.44712"
       id="path3523"
       inkscape:connector-curvature="0" /><path
       style="clip-rule:evenodd;fill:none;fill-rule:evenodd;stroke:#044466;stroke-width:6.59417486;stroke-linecap:butt;stroke-linejoin:miter;stroke-miterlimit:4;stroke-dasharray:none;stroke-opacity:1;image-rendering:optimizeQuality;shape-rendering:geometricPrecision;text-rendering:geometricPrecision"
       d="m 766.41918,683.57542 1.52822,162.31797"
       id="path3523-2"
       inkscape:connector-curvature="0" /><path
       style="clip-rule:evenodd;fill:none;fill-rule:evenodd;stroke:#044466;stroke-width:6.37880836;stroke-linecap:butt;stroke-linejoin:miter;stroke-miterlimit:4;stroke-dasharray:none;stroke-opacity:1;image-rendering:optimizeQuality;shape-rendering:geometricPrecision;text-rendering:geometricPrecision"
       d="m 905.33745,575.19441 89.33502,-62.33507"
       id="path3523-7"
       inkscape:connector-curvature="0" /><text
       xml:space="preserve"
       style="font-style:normal;font-weight:normal;font-size:47.20116425px;line-height:125%;font-family:sans-serif;letter-spacing:0px;word-spacing:0px;fill:#044466;fill-opacity:1;stroke:none;stroke-width:1px;stroke-linecap:butt;stroke-linejoin:miter;stroke-opacity:1"
       x="144.07478"
       y="453.99707"
       id="text4355"
       sodipodi:linespacing="125%"
       transform="scale(0.98708362,1.0130854)"><tspan
         sodipodi:role="line"
         id="tspan4357"
         x="144.07478"
         y="453.99707">Client</tspan></text>
<text
       xml:space="preserve"
       style="font-style:normal;font-weight:normal;font-size:48.6243782px;line-height:125%;font-family:sans-serif;letter-spacing:0px;word-spacing:0px;fill:#044466;fill-opacity:1;stroke:none;stroke-width:1px;stroke-linecap:butt;stroke-linejoin:miter;stroke-opacity:1"
       x="1169.8131"
       y="596.22137"
       id="text4359"
       sodipodi:linespacing="125%"
       transform="scale(0.94072227,1.063013)"><tspan
         sodipodi:role="line"
         id="tspan4361"
         x="1169.8131"
         y="596.22137">Staff</tspan></text>
<text
       xml:space="preserve"
       style="font-style:normal;font-weight:normal;font-size:48.6243782px;line-height:125%;font-family:sans-serif;letter-spacing:0px;word-spacing:0px;clip-rule:evenodd;fill:#044466;fill-opacity:1;fill-rule:evenodd;stroke:none;stroke-width:1px;stroke-linecap:butt;stroke-linejoin:miter;stroke-opacity:1;image-rendering:optimizeQuality;shape-rendering:geometricPrecision;text-rendering:geometricPrecision"
       x="932.61627"
       y="997.7204"
       id="text4359-1"
       sodipodi:linespacing="125%"
       transform="scale(0.94072226,1.063013)"><tspan
         sodipodi:role="line"
         id="tspan4361-7"
         x="932.61627"
         y="997.7204">Suppliers</tspan></text>
</g></svg>