<?xml version="1.0" encoding="UTF-8" standalone="no"?>
<!-- Created with Inkscape (http://www.inkscape.org/) -->

<svg
   xmlns:dc="http://purl.org/dc/elements/1.1/"
   xmlns:cc="http://creativecommons.org/ns#"
   xmlns:rdf="http://www.w3.org/1999/02/22-rdf-syntax-ns#"
   xmlns:svg="http://www.w3.org/2000/svg"
   xmlns="http://www.w3.org/2000/svg"
   xmlns:sodipodi="http://sodipodi.sourceforge.net/DTD/sodipodi-0.dtd"
   xmlns:inkscape="http://www.inkscape.org/namespaces/inkscape"
   width="1052.3622"
   height="744.09448"
   id="svg2"
   version="1.1"
   inkscape:version="0.91 r13725"
   sodipodi:docname="osoe-what.makes.erp.different-screenshot.002.en.svg">
  <defs
     id="defs4">
    <marker
       inkscape:stockid="Arrow1Lstart"
       orient="auto"
       refY="0"
       refX="0"
       id="Arrow1Lstart"
       style="overflow:visible">
      <path
         id="path3793"
         d="M 0,0 5,-5 -12.5,0 5,5 0,0 z"
         style="fill-rule:evenodd;stroke:#000000;stroke-width:1pt;marker-start:none"
         transform="matrix(0.8,0,0,0.8,10,0)"
         inkscape:connector-curvature="0" />
    </marker>
    <marker
       inkscape:stockid="Arrow1Lend"
       orient="auto"
       refY="0"
       refX="0"
       id="Arrow1Lend"
       style="overflow:visible">
      <path
         id="path3796"
         d="M 0,0 5,-5 -12.5,0 5,5 0,0 z"
         style="fill-rule:evenodd;stroke:#000000;stroke-width:1pt;marker-start:none"
         transform="matrix(-0.8,0,0,-0.8,-10,0)"
         inkscape:connector-curvature="0" />
    </marker>
    <filter
       id="filter5555"
       inkscape:label="Drop shadow"
       width="1.5"
       height="1.5"
       x="-0.25"
       y="-0.25"
       color-interpolation-filters="sRGB">
      <feGaussianBlur
         id="feGaussianBlur5557"
         in="SourceAlpha"
         stdDeviation="2"
         result="blur" />
      <feColorMatrix
         id="feColorMatrix5559"
         result="bluralpha"
         type="matrix"
         values="1 0 0 0 0 0 1 0 0 0 0 0 1 0 0 0 0 0 0.5 0 " />
      <feOffset
         id="feOffset5561"
         in="bluralpha"
         dx="4"
         dy="4"
         result="offsetBlur" />
      <feMerge
         id="feMerge5563">
        <feMergeNode
           id="feMergeNode5565"
           in="offsetBlur" />
        <feMergeNode
           id="feMergeNode5567"
           in="SourceGraphic" />
      </feMerge>
    </filter>
  </defs>
  <sodipodi:namedview
     id="base"
     pagecolor="#ffffff"
     bordercolor="#666666"
     borderopacity="1.0"
     inkscape:pageopacity="0.0"
     inkscape:pageshadow="2"
     inkscape:zoom="0.68539683"
     inkscape:cx="507.65855"
     inkscape:cy="372.04724"
     inkscape:document-units="px"
     inkscape:current-layer="layer1"
     showgrid="false"
     inkscape:window-width="1366"
     inkscape:window-height="705"
     inkscape:window-x="-8"
     inkscape:window-y="-8"
     inkscape:window-maximized="1" />
  <metadata
     id="metadata7">
    <rdf:RDF>
      <cc:Work
         rdf:about="">
        <dc:format>image/svg+xml</dc:format>
        <dc:type
           rdf:resource="http://purl.org/dc/dcmitype/StillImage" />
        <dc:title />
      </cc:Work>
    </rdf:RDF>
  </metadata>
  <g
     inkscape:label="Calque 1"
     inkscape:groupmode="layer"
     id="layer1"
     transform="translate(0,-308.26769)">
    <rect
       style="fill:#ffffff;fill-rule:evenodd;stroke:#000000;stroke-width:1.00089943px;stroke-linecap:butt;stroke-linejoin:miter;stroke-opacity:1"
       id="rect3016"
       width="1053.8384"
       height="749.93054"
       x="-1.8931067"
       y="306.80869" />
    <text
       xml:space="preserve"
       style="font-size:65.53527069px;font-style:normal;font-weight:normal;line-height:125%;letter-spacing:0px;word-spacing:0px;fill:#000000;fill-opacity:1;stroke:none;font-family:Sans"
       x="72.457527"
       y="1002.4706"
       id="text5588"
       sodipodi:linespacing="125%"
       transform="scale(1.0472894,0.95484589)"><tspan
         sodipodi:role="line"
         x="72.457527"
         y="1002.4706"
         id="tspan5592" /></text>
    <g
       id="g4242"
       transform="translate(-24.803145,-13.131079)"
       style="fill:#04446a;fill-opacity:1">
      <path
         style="fill:#04446a;fill-opacity:1"
         d="m 384.04904,1003.0319 c -2.87945,-3.15539 -5.78434,-8.91585 -7.08949,-14.0586 -1.22555,-4.82909 -1.69826,-18.32477 -0.84918,-24.24393 1.17652,-8.20185 4.4398,-15.47183 8.87339,-19.76825 1.7231,-1.66979 1.95777,-1.7625 1.95777,-0.77348 0,0.61804 -0.45935,1.54745 -1.02077,2.06536 -1.58106,1.45851 -4.25613,7.42666 -5.22241,11.65133 -1.29242,5.65055 -1.85227,15.89697 -1.28491,23.51608 0.71737,9.63347 2.7228,16.36228 6.30663,21.16059 2.29461,3.0722 1.03192,3.4129 -1.67103,0.4509 z m 48.25912,1.8403 c 0,-0.3606 0.57252,-1.4222 1.27226,-2.3591 3.53667,-4.73552 5.54231,-11.51097 6.25988,-21.1472 0.51127,-6.86577 0.0203,-17.52228 -1.02663,-22.28434 -1.15184,-5.23911 -4.29112,-12.2695 -5.94355,-13.31051 -0.30908,-0.19471 -0.5527,-0.89681 -0.54138,-1.56021 0.0173,-1.01317 0.46454,-0.72164 2.79474,1.82169 5.69085,6.21133 8.51214,15.69961 8.51214,28.62718 0,11.93107 -2.18359,20.25247 -7.03213,26.79849 -2.21946,2.9965 -4.29533,4.6464 -4.29533,3.414 z m 171.01292,-1.8403 c -2.87945,-3.15539 -5.78434,-8.91585 -7.08949,-14.0586 -1.22555,-4.82909 -1.69825,-18.32477 -0.84918,-24.24393 1.17652,-8.20185 4.4398,-15.47183 8.87339,-19.76825 1.7231,-1.66979 1.95777,-1.7625 1.95777,-0.77348 0,0.61804 -0.45934,1.54745 -1.02077,2.06536 -1.58106,1.45851 -4.25613,7.42666 -5.22241,11.65133 -1.29241,5.65055 -1.85227,15.89697 -1.28491,23.51608 0.71737,9.63347 2.72281,16.36228 6.30663,21.16059 2.29461,3.0722 1.03192,3.4129 -1.67103,0.4509 z m 51.49959,1.8403 c 0,-0.3606 0.57252,-1.4222 1.27227,-2.3591 3.53667,-4.73552 5.5423,-11.51097 6.25987,-21.1472 0.51127,-6.86577 0.0203,-17.52228 -1.02662,-22.28434 -1.15184,-5.23911 -4.29113,-12.2695 -5.94356,-13.31051 -0.30908,-0.19471 -0.5527,-0.89681 -0.54137,-1.56021 0.0173,-1.01317 0.46453,-0.72164 2.79474,1.82169 5.69085,6.21133 8.51214,15.69961 8.51214,28.62718 0,11.93107 -2.1836,20.25247 -7.03213,26.79849 -2.21946,2.9965 -4.29534,4.6464 -4.29534,3.414 z m -328.59772,-1.5399 c -1.0974,-1.2361 -0.95143,-3.2744 0.29135,-4.06809 1.40021,-0.89425 2.63878,-0.0559 2.63878,1.78599 0,1.3232 0.18791,1.5904 0.94514,1.3437 2.24777,-0.7323 3.47838,-1.6241 4.44819,-3.22363 0.85542,-1.41087 8.64872,-27.55757 8.64872,-29.01667 0,-0.24673 -1.24118,-0.4486 -2.75817,-0.4486 -2.29321,0 -2.70292,-0.1468 -2.43036,-0.87081 0.1803,-0.47894 0.32782,-0.96319 0.32782,-1.0761 0,-0.11291 0.91139,-0.37299 2.0253,-0.57796 3.08585,-0.56782 3.59164,-0.99709 5.51992,-4.68487 3.32107,-6.35146 7.50153,-9.85646 11.75594,-9.85646 2.93246,0 4.56568,1.30939 4.35764,3.49365 -0.14508,1.52337 -0.36342,1.73631 -1.7803,1.73631 -1.37195,0 -1.65716,-0.24849 -1.89558,-1.65156 -0.15435,-0.90837 -0.46053,-1.58964 -0.6804,-1.51394 -0.21986,0.0757 -0.91789,0.13763 -1.55116,0.13763 -2.38886,0 -5.78683,5.26982 -7.26256,11.26329 -0.32212,1.30825 -0.21577,1.39873 1.64403,1.39873 1.60198,0 1.95358,0.18724 1.80915,0.96342 -0.12849,0.69044 -0.79005,1.00968 -2.33494,1.1267 l -2.15566,0.1633 -2.36849,8.36981 c -4.39935,15.54648 -7.78041,22.46906 -12.21364,25.00696 -2.70151,1.5465 -5.70834,1.6323 -6.98072,0.1992 z m 231.46084,0.2681 c -6.47392,-2.1531 -6.68465,-7.4067 -0.4327,-10.78748 2.25145,-1.21749 2.39376,-1.42636 2.12443,-3.11812 -0.3226,-2.02638 0.32887,-3.11027 2.78804,-4.63869 l 1.58666,-0.98614 -1.39857,-0.54202 c -0.76921,-0.29811 -2.06073,-1.42694 -2.87004,-2.50851 -1.25881,-1.68231 -1.435,-2.35334 -1.21913,-4.6433 0.51637,-5.47791 4.83422,-8.90124 11.74118,-9.30881 3.13682,-0.1851 4.56538,-0.0272 5.84211,0.64581 1.07876,0.56863 3.0399,0.89082 5.42245,0.89082 3.69009,0 3.72955,0.0156 3.47438,1.3763 -0.22856,1.21873 -0.52916,1.37631 -2.62551,1.37631 l -2.36739,0 -0.002,2.61498 c -10e-4,1.60239 -0.40169,3.28312 -1.03418,4.34042 -1.82774,3.05562 -6.28621,5.70662 -9.59731,5.70662 -2.0654,0 -5.56872,2.07172 -5.56872,3.29311 0,1.1217 0.0841,1.15509 7.83115,3.10891 4.49611,1.13393 6.75098,3.03592 6.75098,5.69447 0,2.72835 -1.31498,4.62542 -4.38803,6.33032 -2.50739,1.391 -3.50964,1.6041 -8.27868,1.7601 -3.65947,0.1197 -6.19198,-0.077 -7.77896,-0.6051 z m 12.99063,-2.0333 c 3.58325,-0.9133 5.13023,-4.60412 2.5254,-6.02514 -0.5578,-0.30429 -3.38163,-1.15104 -6.27519,-1.88164 -5.06398,-1.27863 -5.32181,-1.29264 -6.88453,-0.37399 -1.89947,1.11661 -3.52314,4.06472 -3.11495,5.65583 0.80502,3.13794 7.05514,4.33114 13.74927,2.62494 z m 0.94962,-20.83829 c 2.47175,-1.34842 4.30521,-8.25702 2.71096,-10.21511 -0.94427,-1.15978 -3.76839,-1.80534 -5.60838,-1.28201 -4.22747,1.20237 -7.14135,7.1962 -5.24983,10.79888 1.14904,2.18853 4.83619,2.50453 8.14725,0.69824 z m 42.79873,22.99849 c -0.90882,-0.9264 -0.80668,-2.9527 0.2006,-3.97949 1.07702,-1.09785 3.25994,-1.12125 3.66724,-0.0393 0.56474,1.50019 1.86724,0.86659 5.37616,-2.61499 l 3.46777,-3.44076 -0.95786,-9.80147 c -0.52683,-5.3908 -1.10923,-10.4162 -1.29423,-11.16755 -0.37719,-1.53189 -2.57945,-2.64059 -4.20225,-2.11557 -0.86328,0.27929 -1.02071,0.11191 -0.87381,-0.92903 0.151,-1.06992 0.68906,-1.37741 3.41966,-1.9542 4.6963,-0.99201 4.95204,-0.94412 5.64276,1.05666 0.54286,1.57249 2.11425,14.85577 2.198,18.58014 0.0296,1.3183 0.11062,1.28349 1.92116,-0.82578 2.72328,-3.17262 8.33073,-11.75907 8.33073,-12.75651 0,-0.46646 -0.60759,-1.33528 -1.3502,-1.93071 -2.24514,-1.80018 -1.52168,-4.85635 1.1496,-4.85635 2.9641,0 3.8397,4.20434 1.75302,8.4174 -3.24687,6.55549 -17.66938,24.09498 -22.48865,27.34881 -2.58434,1.7449 -4.85964,2.13 -5.9597,1.0087 z M 395.06982,992.03446 c -0.35488,-0.43587 -0.56692,-1.48662 -0.4712,-2.33501 0.20169,-1.78746 1.56611,-2.28505 3.44908,-1.25783 1.81841,0.992 2.57259,0.46763 5.55637,-3.86328 l 2.69159,-3.90681 -1.35983,-4.12266 c -1.56898,-4.75676 -2.20734,-5.56581 -4.77973,-6.05773 -1.26759,-0.2424 -1.87292,-0.66157 -1.87292,-1.29693 0,-0.71798 0.84789,-1.11057 3.60491,-1.66918 3.50496,-0.71014 3.63206,-0.6962 4.58471,0.50302 0.5389,0.67837 1.2665,2.26221 1.61689,3.51964 0.91137,3.27053 1.25222,3.43336 2.58513,1.23497 3.67131,-6.05519 10.29168,-7.96414 10.29168,-2.96755 0,1.70268 -0.0883,1.7394 -4.29091,1.78489 -2.9243,0.0317 -2.95185,0.048 -4.9365,2.92968 l -1.99579,2.89786 1.62693,5.63525 c 0.89481,3.09938 1.85585,5.88298 2.13564,6.18577 0.33138,0.35862 1.15812,-0.16912 2.3717,-1.51394 1.78177,-1.97445 2.92861,-2.59965 2.92861,-1.59654 0,0.79192 -3.09254,4.86925 -4.40265,5.80463 -2.87884,2.05542 -4.72362,0.74979 -6.14027,-4.34572 -0.50507,-1.81673 -1.10002,-3.50339 -1.32209,-3.74814 -0.22208,-0.24475 -1.18441,0.79505 -2.13853,2.31067 -3.47684,5.52294 -7.86354,8.17085 -9.73282,5.87494 z m 107.25269,0.0196 c -4.58014,-1.73798 -7.3336,-6.09787 -7.35334,-11.64342 -0.0236,-6.61246 3.98302,-11.67193 9.68517,-12.23043 l 2.64946,-0.2595 -3.14612,-2.54863 c -5.75111,-4.65891 -6.91323,-8.11691 -3.74246,-11.13612 1.4097,-1.34233 2.12067,-1.59407 4.45565,-1.57767 1.52806,0.0107 3.2846,0.32039 3.90342,0.68815 1.99848,1.18766 3.8183,2.86159 4.47893,4.11987 1.03917,1.97926 -0.77004,1.56962 -2.81122,-0.63651 -1.98706,-2.14764 -5.20235,-3.28011 -7.15943,-2.52164 -1.27451,0.49394 -1.54801,1.0608 -1.31948,2.7348 0.17324,1.26898 1.4334,2.48145 5.48559,5.27797 4.92262,3.39722 9.29047,8.25821 10.39825,11.57225 1.66343,4.97631 0.99728,10.7455 -1.66238,14.39703 -2.6638,3.65722 -9.35511,5.47406 -13.86204,3.76385 z m 8.83123,-2.94315 c 3.86052,-3.58269 2.82753,-15.10835 -1.65279,-18.44101 -1.6409,-1.22058 -4.34335,-1.41221 -6.13464,-0.435 -4.44348,2.42406 -4.00048,15.58016 0.65017,19.30911 2.02118,1.6206 5.1274,1.43211 7.13726,-0.4331 z m 22.99787,2.85092 c -0.46679,-0.47581 -0.8487,-1.57292 -0.8487,-2.43803 0,-2.00625 1.27229,-3.30314 3.24048,-3.30314 1.95347,0 3.24047,1.29362 3.24047,3.25714 0,2.86511 -3.67035,4.48387 -5.63225,2.48403 z m 189.80544,-0.33816 c -3.77328,-1.98323 -5.54271,-5.37785 -5.843,-11.20971 -0.21593,-4.19342 -0.0994,-4.92729 1.21882,-7.67365 1.6009,-3.3354 4.54187,-5.57658 8.08744,-6.16307 2.54007,-0.42017 2.68313,1.02285 0.176,1.77522 -2.84993,0.85524 -3.84303,3.63957 -3.81831,10.70525 0.0318,9.07155 2.20743,12.79277 6.56601,11.2303 2.37643,-0.85191 3.50995,-3.60523 3.33954,-8.11174 -0.0819,-2.166 -0.17873,-5.54847 -0.21516,-7.51658 l -0.0662,-3.5784 2.16032,0 2.16032,0 -0.0663,3.5784 c -0.0364,1.96811 -0.13325,5.35058 -0.21515,7.51658 -0.17041,4.50651 0.9631,7.25983 3.33954,8.11174 4.35858,1.56247 6.53426,-2.15875 6.56601,-11.2303 0.0247,-7.06568 -0.96838,-9.85001 -3.81831,-10.70525 -2.50713,-0.75237 -2.36407,-2.19539 0.176,-1.77522 3.44844,0.57043 6.46425,2.82267 8.008,5.98046 2.00332,4.09789 1.99738,10.02764 -0.0141,14.14236 -1.84493,3.77383 -4.79871,5.85161 -8.31868,5.85161 -3.40576,0 -5.14429,-1.07443 -6.60535,-4.08221 l -1.2261,-2.52406 -1.18732,2.47735 c -1.39,2.90024 -2.57406,3.76838 -5.69637,4.17652 -1.73793,0.22717 -2.86272,-0.006 -4.70761,-0.9756 z m -33.49117,-6.77931 0,-7.43206 -7.56111,0 -7.5611,0 0,-1.65157 0,-1.65157 7.5611,0 7.56111,0 0,-7.43205 0,-7.43206 1.62024,0 1.62023,0 0,7.43206 0,7.43205 7.56111,0 7.5611,0 0,1.65157 0,1.65157 -7.5611,0 -7.56111,0 0,7.43206 0,7.43205 -1.62023,0 -1.62024,0 0,-7.43205 z m -238.1748,-3.30314 0,-1.37631 16.74244,0 16.74245,0 0,1.37631 0,1.37631 -16.74245,0 -16.74244,0 0,-1.37631 z m 0,-11.01045 0,-1.37631 16.74244,0 16.74245,0 0,1.37631 0,1.3763 -16.74245,0 -16.74244,0 0,-1.3763 z"
         id="path4256"
         inkscape:connector-curvature="0" />
      <path
         style="fill:#04446a;fill-opacity:1"
         d="m 384.06954,1002.7867 c -3.10035,-3.37862 -5.92886,-9.18714 -7.23547,-14.85846 -1.36931,-5.94347 -1.35908,-21.18679 0.0183,-27.1712 1.28417,-5.5797 4.12484,-11.28063 7.40883,-14.86876 3.13123,-3.42123 3.72391,-2.35986 0.83586,1.49686 -3.4262,4.57536 -5.4081,12.09639 -6.02665,22.87038 -0.79697,13.88151 2.04263,27.35941 6.92196,32.85438 0.58573,0.6596 0.97093,1.4869 0.856,1.8383 -0.11492,0.3514 -1.36537,-0.6212 -2.77878,-2.1615 z m 48.25831,2.0994 c -0.0108,-0.4829 0.43965,-1.3018 1.00107,-1.8197 1.44868,-1.3364 4.15022,-7.17567 5.11931,-11.06523 1.3772,-5.52755 2.12378,-14.90593 1.73109,-21.74565 -0.61855,-10.77399 -2.60045,-18.29502 -6.02664,-22.87038 -2.92859,-3.91085 -2.26115,-4.90135 0.91145,-1.35261 3.22178,3.60373 5.44994,8.03426 7.06005,14.03832 1.01644,3.79031 1.18106,5.82378 1.18106,14.58886 0,11.12108 -0.70471,15.2283 -3.73207,21.75136 -1.5492,3.33806 -7.21197,9.96203 -7.24532,8.47503 z m 171.01373,-2.0994 c -3.10035,-3.37862 -5.92886,-9.18714 -7.23547,-14.85846 -1.36931,-5.94347 -1.35908,-21.18679 0.0183,-27.1712 1.28418,-5.5797 4.12485,-11.28063 7.40883,-14.86876 3.13124,-3.42123 3.72391,-2.35986 0.83586,1.49686 -3.4262,4.57536 -5.40809,12.09639 -6.02665,22.87038 -0.79697,13.88151 2.04264,27.35941 6.92196,32.85438 0.58573,0.6596 0.97093,1.4869 0.85601,1.8383 -0.11493,0.3514 -1.36538,-0.6212 -2.77879,-2.1615 z m 51.49878,2.0994 c -0.0109,-0.4829 0.43965,-1.3018 1.00108,-1.8197 1.44867,-1.3364 4.15021,-7.17567 5.1193,-11.06523 1.3772,-5.52755 2.12379,-14.90593 1.7311,-21.74565 -0.61856,-10.77399 -2.60045,-18.29502 -6.02664,-22.87038 -2.92859,-3.91085 -2.26115,-4.90135 0.91145,-1.35261 3.22177,3.60373 5.44994,8.03426 7.06004,14.03832 1.01644,3.79031 1.18106,5.82378 1.18106,14.58886 0,11.12108 -0.70471,15.2283 -3.73207,21.75136 -1.5492,3.33806 -7.21197,9.96203 -7.24532,8.47503 z m -328.57401,-1.5049 c -1.71001,-1.9261 -0.61689,-4.84635 1.64561,-4.39621 0.66874,0.13305 0.9772,0.70311 0.99073,1.83101 0.0119,0.9919 0.33138,1.6958 0.81012,1.7848 1.30018,0.242 4.18353,-1.8911 5.17897,-3.83138 0.51173,-0.99745 2.66779,-7.94499 4.79124,-15.43898 l 3.86082,-13.62544 -2.82418,0 c -2.48015,0 -2.79242,-0.12385 -2.56338,-1.01665 0.17979,-0.70078 1.04297,-1.17115 2.77822,-1.51394 1.93715,-0.38266 2.74761,-0.87796 3.51615,-2.14885 0.54931,-0.90836 2.01051,-3.26185 3.24711,-5.22997 3.93284,-6.25934 9.47128,-8.82679 12.9771,-6.01579 1.57883,1.26592 1.83405,2.78066 0.63886,3.79175 -1.34645,1.13907 -2.72273,0.45842 -2.75895,-1.36447 -0.0291,-1.46638 -0.20016,-1.62864 -1.60349,-1.5213 -0.86398,0.0661 -2.186,0.57146 -2.93782,1.12307 -1.51869,1.11427 -4.68333,7.12842 -5.21192,9.90486 -0.33527,1.761 -0.30887,1.7892 1.67493,1.7892 1.61605,0 1.95059,0.17261 1.68775,0.87081 -0.1803,0.47895 -0.32782,0.97442 -0.32782,1.10105 0,0.12663 -0.93897,0.23023 -2.0866,0.23023 l -2.0866,0 -1.48192,5.3676 c -3.86818,14.01076 -6.85996,21.71208 -9.72961,25.0456 -3.40906,3.9601 -8.20291,5.4959 -10.18532,3.263 z m 232.69031,0.492 c -6.19338,-1.537 -8.00669,-5.41071 -4.18165,-8.93323 1.11609,-1.02782 2.80435,-2.19603 3.75168,-2.59601 1.45187,-0.61301 1.62971,-0.87857 1.13221,-1.6906 -0.92743,-1.51377 -0.0452,-3.77117 2.00229,-5.123 1.03003,-0.68008 1.87578,-1.36183 1.87946,-1.51501 0.004,-0.15318 -0.74426,-0.61733 -1.66209,-1.03146 -0.91782,-0.41412 -2.13209,-1.52747 -2.69837,-2.47411 -2.70047,-4.51428 0.39425,-10.52584 6.56023,-12.74339 2.86029,-1.02869 8.45421,-1.02224 10.22873,0.0118 0.816,0.47549 2.89247,0.79449 5.24837,0.80628 3.81153,0.0191 3.88825,0.047 3.45194,1.25818 -0.34462,0.95663 -0.98629,1.30136 -2.81801,1.51394 l -2.37179,0.27526 -0.0194,2.82142 c -0.0327,4.75029 -3.77973,8.4372 -9.51742,9.36471 -2.87168,0.46421 -5.45354,1.52106 -6.3221,2.58785 -1.00467,1.23396 0.49834,2.38249 4.11258,3.14265 4.63014,0.97383 8.66317,2.65302 9.58138,3.98929 2.37323,3.45379 -0.62345,8.28343 -6.18413,9.96673 -2.97929,0.9018 -9.25899,1.092 -12.17389,0.3687 z m 13.04336,-2.7726 c 3.49638,-1.56998 3.673,-4.63626 0.34424,-5.97616 -1.64003,-0.66015 -9.99104,-2.84801 -10.87077,-2.84801 -0.92335,0 -3.9336,2.85941 -4.44023,4.21774 -0.96698,2.59254 0.75851,4.74153 4.6238,5.75873 2.34398,0.6168 7.74242,0.015 10.34296,-1.1523 z m -0.59274,-20.17974 c 3.11645,-2.08147 4.72546,-8.35195 2.72213,-10.60841 -3.64065,-4.10067 -11.20477,0.42473 -11.34083,6.78489 -0.10033,4.68976 4.35944,6.66825 8.6187,3.82352 z m 43.01549,22.80644 c -0.95442,-0.9729 -0.78869,-2.8927 0.33957,-3.93349 1.3201,-1.21777 2.56796,-1.14929 3.48926,0.19148 0.74677,1.08681 0.78786,1.07981 2.86605,-0.48403 1.15962,-0.87263 2.99879,-2.54553 4.08704,-3.71756 l 1.97863,-2.13096 -0.97947,-10.18467 c -0.53871,-5.60157 -1.1539,-10.62509 -1.36708,-11.16338 -0.49598,-1.25239 -1.96387,-2.04917 -3.77513,-2.04917 -1.05271,0 -1.37891,-0.24551 -1.24786,-0.93918 0.12717,-0.67312 1.16868,-1.14369 3.67642,-1.66107 1.92443,-0.39703 3.81033,-0.60008 4.19089,-0.45122 1.22357,0.4786 1.75448,2.97492 2.62248,12.33063 0.46758,5.03985 0.90967,9.22553 0.98243,9.30151 0.16835,0.17582 6.65168,-8.7818 8.46758,-11.69913 2.15269,-3.45841 2.18696,-3.86024 0.4414,-5.17575 -2.45337,-1.84893 -1.89947,-5.00892 0.87799,-5.00892 2.70549,0 3.7336,3.61946 2.13552,7.51814 -2.35395,5.74275 -17.1898,23.89532 -23.16892,28.34857 -2.21202,1.6475 -4.52465,2.0215 -5.6168,0.9082 z M 395.15073,992.16633 c -1.37727,-1.40389 -0.40624,-4.29408 1.44269,-4.29408 0.43702,0 1.26581,0.43354 1.84175,0.96342 1.01046,0.92964 1.12265,0.87679 3.2008,-1.50779 1.18451,-1.35916 2.73679,-3.48549 3.44951,-4.72518 l 1.29586,-2.25398 -1.34008,-4.01622 c -1.65416,-4.95745 -2.04708,-5.44981 -4.69343,-5.88116 -3.30684,-0.53901 -2.50881,-1.88484 1.68001,-2.83324 3.22188,-0.72947 3.52503,-0.71571 4.17441,0.18954 0.59995,0.83635 1.93524,4.21497 2.68293,6.7885 0.13298,0.45774 1.07873,-0.45813 2.36757,-2.29277 2.34519,-3.33836 5.03296,-5.35098 7.14599,-5.35098 1.66319,0 2.70963,1.18581 2.47419,2.80372 -0.27157,1.86627 -1.71409,2.52806 -3.77883,1.73364 -2.18834,-0.84198 -3.46038,-0.0937 -5.84399,3.43777 l -1.6785,2.48679 1.7895,5.87384 c 0.98423,3.23061 2.09709,5.97835 2.47302,6.10609 0.37594,0.12773 1.52359,-0.70262 2.55033,-1.84524 1.02674,-1.14261 2.01938,-1.92195 2.20586,-1.73186 0.54157,0.55204 -1.88467,4.15469 -3.80188,5.6453 -3.31009,2.57355 -4.94149,1.53038 -6.54396,-4.18444 -0.46022,-1.64128 -0.95485,-3.3389 -1.09917,-3.7725 -0.16536,-0.49679 -1.13586,0.53885 -2.62416,2.80029 -1.29896,1.97374 -3.13103,4.24845 -4.07126,5.0549 -1.80316,1.5466 -4.21286,1.91295 -5.29916,0.80564 z m 108.15395,0.0616 c -2.8464,-0.68025 -6.07083,-3.4286 -7.3251,-6.24355 -1.31677,-2.95523 -1.31846,-8.12937 -0.004,-11.08013 1.45366,-3.26229 5.03129,-6.17609 8.09865,-6.59597 1.37191,-0.18779 2.66302,-0.38389 2.86913,-0.43577 0.20629,-0.0519 -0.99961,-1.20914 -2.6796,-2.57168 -5.14739,-4.17475 -6.67592,-7.60649 -4.56897,-10.25787 2.83709,-3.57016 8.85659,-3.14147 12.16498,0.86637 2.75374,3.33591 1.54891,3.84269 -1.58191,0.66537 -2.52617,-2.56368 -5.52526,-3.37168 -7.53428,-2.02986 -0.71805,0.47958 -1.30554,1.20445 -1.30554,1.61081 0,1.3374 2.11522,3.51607 6.35447,6.5451 4.71653,3.37006 7.61097,6.40667 9.4076,9.8697 0.99581,1.91945 1.22895,3.25302 1.23857,7.08472 0.0108,4.29751 -0.13367,4.96032 -1.61321,7.40191 -2.60564,4.29991 -8.20506,6.4413 -13.52101,5.17085 z m 7.26567,-2.40288 c 2.17088,-1.14431 3.03282,-3.69387 2.9434,-8.70637 -0.097,-5.43955 -1.92954,-9.72058 -4.74355,-11.08174 -2.27907,-1.1024 -3.1812,-1.10586 -5.24099,-0.0201 -2.30194,1.21339 -3.34112,4.0535 -3.31026,9.04706 0.0546,8.82908 4.75215,13.71263 10.3514,10.76115 z m 23.62639,1.99515 c -1.18045,-1.3296 -1.13593,-3.55395 0.0938,-4.6884 2.14109,-1.97513 5.49328,-0.45707 5.49328,2.48768 0,2.8194 -3.73256,4.28962 -5.58712,2.20072 z m 191.37427,0.37095 c -2.60184,-0.75392 -5.73453,-4.00535 -6.73087,-6.98602 -0.95921,-2.86955 -1.07547,-7.69632 -0.25768,-10.69809 1.06823,-3.92106 5.97529,-8.05831 9.59893,-8.09307 1.54791,-0.0149 1.30039,1.291 -0.29023,1.53117 -3.1349,0.47333 -4.85903,5.95478 -4.25229,13.51909 0.53924,6.72264 1.95891,9.16064 5.33431,9.16064 3.98654,0 5.62201,-4.5955 4.59249,-12.90438 -0.70526,-5.69187 -0.3522,-6.91443 1.9968,-6.91443 2.349,0 2.70206,1.22256 1.9968,6.91443 -1.04077,8.39966 0.60231,12.90438 4.70685,12.90438 3.75785,0 5.1408,-3.17971 5.14793,-11.83623 0.006,-7.088 -0.61706,-8.87425 -3.61538,-10.36764 -3.87806,-1.93158 -1.46789,-2.86226 2.57001,-0.99241 2.7228,1.26086 5.43654,4.37224 6.1738,7.07845 0.82004,3.01004 0.70063,7.90182 -0.26072,10.68102 -2.93502,8.485 -13.46412,9.96078 -15.96463,2.23765 l -0.62689,-1.93621 -1.14404,2.39682 c -1.85925,3.8952 -5.07158,5.43595 -8.97519,4.30483 z m -35.10513,-7.34676 0,-7.43206 -7.56111,0 -7.5611,0 0,-1.37631 0,-1.3763 7.54586,0 7.54587,0 0.15026,-7.56969 0.15026,-7.56969 1.48522,-0.1742 1.48521,-0.17419 0,7.74388 0,7.74389 7.56111,0 7.5611,0 0,1.3763 0,1.37631 -7.5611,0 -7.56111,0 0,7.43206 0,7.43205 -1.62023,0 -1.62024,0 0,-7.43205 z m -238.1748,-3.30314 0,-1.37631 16.74244,0 16.74245,0 0,1.37631 0,1.37631 -16.74245,0 -16.74244,0 0,-1.37631 z m 0,-11.01045 0,-1.37631 16.74244,0 16.74245,0 0,1.37631 0,1.3763 -16.74245,0 -16.74244,0 0,-1.3763 z"
         id="path4254"
         inkscape:connector-curvature="0" />
      <path
         style="fill:#04446a;fill-opacity:1"
         d="m 384.06636,1002.7281 c -2.95773,-3.35333 -5.76959,-9.06103 -7.18302,-14.58059 -0.78768,-3.07596 -0.97981,-5.85344 -0.95205,-13.76307 0.039,-11.10565 0.88164,-15.70264 4.05631,-22.1288 1.88343,-3.81242 6.88948,-9.83018 6.92941,-8.32981 0.0135,0.50664 -0.58477,1.65927 -1.32946,2.56139 -2.11873,2.56666 -4.43834,8.19059 -5.48909,13.30837 -1.27791,6.22423 -1.30542,23.10003 -0.0476,29.17771 1.18834,5.74176 2.87508,10.06178 5.07634,13.0014 2.71228,3.622 1.94802,4.1647 -1.06088,0.7534 z m 48.2418,2.3297 c 0,-0.3632 0.83003,-1.7688 1.84452,-3.1235 3.52658,-4.70944 5.48595,-12.26963 6.07525,-23.44124 0.71311,-13.51883 -1.94588,-26.36269 -6.64338,-32.08988 -2.37857,-2.89995 -1.3956,-3.57802 1.13106,-0.78022 6.39891,7.08561 9.45261,18.40298 8.77125,32.50732 -0.38424,7.95397 -1.75482,13.84332 -4.42872,19.03015 -1.82478,3.53977 -6.74998,9.30217 -6.74998,7.89737 z m 171.03024,-2.3297 c -2.95773,-3.35333 -5.76958,-9.06103 -7.18302,-14.58059 -0.78768,-3.07596 -0.97981,-5.85344 -0.95204,-13.76307 0.039,-11.10565 0.88163,-15.70264 4.0563,-22.1288 1.88343,-3.81242 6.88948,-9.83018 6.92941,-8.32981 0.0135,0.50664 -0.58477,1.65927 -1.32945,2.56139 -2.11873,2.56666 -4.43835,8.19059 -5.4891,13.30837 -1.27791,6.22423 -1.30542,23.10003 -0.0476,29.17771 1.18834,5.74176 2.87509,10.06178 5.07634,13.0014 2.71229,3.622 1.94802,4.1647 -1.06088,0.7534 z m 51.48227,2.3297 c 0,-0.3632 0.83004,-1.7688 1.84453,-3.1235 3.52657,-4.70944 5.48595,-12.26963 6.07524,-23.44124 0.71312,-13.51883 -1.94588,-26.36269 -6.64338,-32.08988 -2.37857,-2.89995 -1.3956,-3.57802 1.13106,-0.78022 6.39892,7.08561 9.45261,18.40298 8.77126,32.50732 -0.38425,7.95397 -1.75482,13.84332 -4.42872,19.03015 -1.82479,3.53977 -6.74999,9.30217 -6.74999,7.89737 z m -328.24781,-1.5269 c -2.24426,-1.6023 -1.00934,-5.18479 1.50667,-4.37079 0.84722,0.27409 1.09573,0.741 0.97106,1.82449 -0.21532,1.8712 0.9009,2.1088 3.18616,0.6781 2.51706,-1.5758 3.45742,-3.8796 7.6171,-18.66134 l 3.74169,-13.29636 -2.63056,0 c -2.20871,0 -2.63056,-0.16494 -2.63056,-1.02856 0,-0.787 0.51719,-1.09927 2.20224,-1.32965 2.69317,-0.36821 3.68398,-1.23909 5.62982,-4.94832 4.27388,-8.14705 10.49067,-11.84012 14.50838,-8.61867 1.57883,1.26592 1.83405,2.78066 0.63886,3.79175 -1.34686,1.13941 -2.72289,0.45851 -2.75748,-1.36447 -0.0288,-1.51609 -0.17313,-1.63439 -1.89027,-1.549 -2.69165,0.13385 -5.45076,3.49143 -7.18185,8.73965 l -1.35406,4.10518 2.07265,0 c 1.80674,0 2.0364,0.14125 1.79017,1.10105 -0.21892,0.85335 -0.73667,1.10104 -2.30154,1.10104 l -2.01908,0 -2.82653,9.77178 c -3.20612,11.08408 -6.00111,17.66722 -8.88005,20.91552 -3.26488,3.6837 -6.91914,4.9048 -9.39282,3.1386 z m 231.07449,-0.2099 c -3.11186,-1.0951 -4.8699,-2.8324 -4.88958,-4.83203 -0.0165,-1.67587 2.72663,-4.7136 5.34212,-5.91583 1.89197,-0.86966 2.09507,-1.13276 1.60091,-2.07394 -0.8815,-1.67895 -0.0782,-3.67844 1.9737,-4.91248 1.03006,-0.6195 1.87283,-1.28915 1.87283,-1.48812 0,-0.19896 -0.71915,-0.68624 -1.59811,-1.08283 -1.99596,-0.90058 -3.80268,-3.80291 -3.80268,-6.10866 0,-3.19147 2.54831,-6.57469 6.47665,-8.59861 2.71594,-1.39928 8.39837,-1.70619 11.0084,-0.59456 1.19133,0.50739 3.58669,0.89002 5.57182,0.89002 3.30218,0 3.47321,0.064 3.30954,1.23867 -0.14564,1.04532 -0.55195,1.26399 -2.60293,1.40085 l -2.43036,0.16218 0,2.90855 c 0,5.02181 -3.65667,8.38423 -10.55041,9.70141 -3.134,0.5988 -5.65196,2.09815 -5.65196,3.36552 0,0.74389 2.10608,1.55877 9.10076,3.52123 6.11916,1.71683 7.42932,5.56927 3.4197,10.05543 -2.74769,3.0742 -12.51601,4.3461 -18.1504,2.3632 z m 11.82791,-1.2364 c 4.56155,-1.0732 6.71295,-4.03482 4.44854,-6.12372 -0.95126,-0.87752 -10.23193,-3.68036 -12.19526,-3.68306 -1.36125,-0.002 -5.20223,3.99131 -5.20223,5.40837 0,0.62432 0.54683,1.757 1.21517,2.51711 2.06729,2.351 6.62912,3.0824 11.73378,1.8813 z m 0.38284,-20.30477 c 2.41584,-0.93304 3.88876,-2.69404 4.84813,-5.79634 1.09011,-3.52511 0.4149,-5.81886 -2.01489,-6.84477 -3.35404,-1.41616 -7.15322,0.50325 -9.09685,4.5959 -1.35204,2.84695 -1.42572,4.65 -0.25941,6.34735 1.4544,2.11659 3.83467,2.73615 6.52302,1.69786 z m 44.56467,21.94747 c -0.95442,-0.9729 -0.78869,-2.8927 0.33957,-3.93349 1.347,-1.24259 2.50976,-1.1435 3.44589,0.29369 l 0.78476,1.2047 1.57645,-1.1611 c 0.86705,-0.63854 2.72763,-2.36258 4.13463,-3.83114 l 2.55816,-2.67012 -1.0304,-10.63248 c -1.14408,-11.80531 -1.49024,-12.74184 -4.70972,-12.74184 -2.1028,0 -2.55369,-1.45764 -0.59139,-1.91188 3.51328,-0.81328 6.12339,-1.36581 6.50851,-1.37779 1.05277,-0.0328 2.03371,4.39852 2.81365,12.71037 0.46283,4.93238 0.91514,9.04303 1.00514,9.13477 0.24923,0.25404 7.67236,-9.98024 9.32942,-12.86248 l 1.45885,-2.53748 -1.71886,-1.44012 c -2.54547,-2.13268 -2.08623,-5.01852 0.79862,-5.01852 1.50625,0 2.89304,1.93363 2.89304,4.03383 0,4.01805 -7.79535,15.20516 -18.61313,26.71174 -5.50941,5.86024 -9.17502,7.87244 -10.98319,6.02934 z M 395.35133,991.96185 c -2.36482,-2.41055 0.54892,-5.46204 3.03001,-3.17327 0.93252,0.86024 1.0793,0.83497 2.39802,-0.41289 0.77258,-0.73107 2.36614,-2.76468 3.54123,-4.51913 l 2.13654,-3.18991 -1.43113,-4.38036 c -1.52595,-4.67064 -2.70836,-6.03077 -5.24275,-6.03077 -2.26438,0 -1.89381,-1.50677 0.52523,-2.13563 5.56168,-1.44584 5.26813,-1.5174 6.82319,1.66353 0.77716,1.58971 1.41301,3.29592 1.41301,3.79158 0,1.72874 0.6941,1.58377 2.14366,-0.44774 2.12413,-2.97688 5.78817,-6.17487 7.07474,-6.17487 1.81856,0 3.20342,1.05021 3.20342,2.42931 0,2.06657 -1.30498,2.80875 -3.64915,2.07539 -2.46564,-0.77135 -3.6682,-0.0839 -6.06504,3.46716 l -1.67629,2.48352 1.61983,5.51915 c 0.89091,3.03553 1.76686,5.76164 1.94656,6.05802 0.57991,0.95644 1.42986,0.58077 3.23761,-1.43101 0.97357,-1.08344 1.91907,-1.72423 2.10111,-1.42398 0.18204,0.30025 -0.90991,1.9299 -2.42657,3.62146 -4.30698,4.80365 -6.06113,4.11961 -7.87866,-3.07232 -0.52284,-2.06885 -1.07907,-3.7611 -1.23606,-3.76056 -0.15699,5.4e-4 -1.0119,1.17729 -1.89981,2.61498 -0.88791,1.4377 -2.64352,3.66688 -3.90136,4.95372 -2.44967,2.50616 -4.31028,2.98025 -5.78734,1.47462 z m 108.73606,0.35027 c -5.00259,-0.99233 -8.49903,-4.99941 -8.96374,-10.27288 -0.15755,-1.78784 -0.006,-4.30674 0.33641,-5.59756 1.18502,-4.46517 5.92123,-8.32521 10.29883,-8.3936 l 1.89027,-0.0295 -1.62023,-1.19198 c -3.02431,-2.22493 -6.6703,-6.23633 -7.04261,-7.74844 -1.21044,-4.91602 4.28089,-7.94375 9.78545,-5.39536 2.0492,0.9487 4.54822,3.44073 4.54822,4.5355 0,0.88841 -1.5456,0.4821 -1.85307,-0.48714 -0.45568,-1.43646 -3.73988,-3.49797 -6.083,-3.81832 -1.61339,-0.22059 -2.27668,-0.0393 -3.05219,0.83419 -1.84003,2.07253 -0.55882,3.88585 5.91517,8.37186 7.51816,5.20955 10.79884,10.79461 10.33886,17.60099 -0.27432,4.05912 -1.17395,6.17331 -3.69666,8.68742 -2.4954,2.4869 -6.91583,3.67566 -10.80171,2.90485 z m 7.32934,-3.00028 c 4.08849,-4.16754 2.33512,-17.00105 -2.65408,-19.42625 -5.70162,-2.77149 -10.04022,3.43898 -8.46611,12.11877 1.07441,5.92443 3.40442,8.6205 7.45001,8.6205 1.79015,0 2.70215,-0.32627 3.67018,-1.31302 z m 22.78001,2.50835 c -1.18045,-1.3296 -1.13593,-3.55395 0.0938,-4.6884 3.14039,-2.89697 7.4059,1.54347 4.41312,4.59412 -1.34793,1.374 -3.33392,1.41554 -4.50696,0.0943 z m 192.0629,0.45858 c -6.52306,-1.52861 -9.87375,-9.64272 -7.43653,-18.00845 1.00861,-3.46201 3.88163,-6.2687 7.46318,-7.29087 1.40589,-0.40123 2.69505,-0.58795 2.8648,-0.41492 0.52227,0.53237 -0.34984,1.4889 -1.35749,1.4889 -2.86798,0 -4.72169,5.6818 -4.21963,12.93356 0.49472,7.14583 1.8582,9.63787 5.27321,9.63787 1.58571,0 2.32281,-0.3564 3.37617,-1.63246 1.83946,-2.22834 2.19359,-5.06979 1.40124,-11.24315 -0.73913,-5.75871 -0.40853,-6.9432 1.93788,-6.9432 2.34641,0 2.67701,1.18449 1.93788,6.9432 -0.79235,6.17336 -0.43822,9.01481 1.40124,11.24315 1.815,2.19871 4.97021,2.31095 6.57309,0.23382 2.05433,-2.66217 2.88199,-10.78088 1.65335,-16.21808 -0.61742,-2.73232 -2.32039,-4.95471 -3.79669,-4.95471 -1.02754,0 -1.87606,-0.9603 -1.33545,-1.51136 0.18187,-0.18539 1.65304,0.0878 3.26927,0.60715 6.22481,2.00015 9.23981,9.10355 7.2621,17.10967 -0.68571,2.77584 -3.13417,6.02212 -5.47128,7.25406 -0.90267,0.47581 -2.71532,0.88166 -4.02812,0.9019 -2.93928,0.0453 -4.8942,-1.31462 -6.36891,-4.43043 l -1.06384,-2.2477 -1.11793,2.26336 c -1.79944,3.64312 -4.63326,5.11863 -8.21754,4.27869 z m -35.25368,-7.41928 0,-7.41694 -7.69613,-0.15275 c -7.4887,-0.14862 -7.70072,-0.18571 -7.86673,-1.37608 -0.16865,-1.20928 -0.0817,-1.2251 7.5611,-1.37631 l 7.73172,-0.15297 0.15049,-7.60591 c 0.1485,-7.50522 0.16637,-7.6036 1.3502,-7.43205 1.16458,0.16876 1.20411,0.39547 1.34996,7.74354 l 0.15027,7.56969 7.54586,0 7.54586,0 0,1.3763 0,1.37631 -7.5611,0 -7.56111,0 0,7.43206 0,7.43205 -1.35019,0 -1.3502,0 0,-7.41694 z m -238.71488,-3.31825 0,-1.37631 16.74244,0 16.74245,0 0,1.37631 0,1.37631 -16.74245,0 -16.74244,0 0,-1.37631 z m 0,-11.01045 0,-1.37631 16.74244,0 16.74245,0 0,1.37631 0,1.3763 -16.74245,0 -16.74244,0 0,-1.3763 z"
         id="path4252"
         inkscape:connector-curvature="0" />
      <path
         style="fill:#04446a;fill-opacity:1"
         d="m 384.05535,1002.6773 c -3.05065,-3.53127 -5.36132,-8.22118 -6.94281,-14.09162 -1.66408,-6.17699 -1.6715,-22.09612 -0.0132,-28.3044 1.51506,-5.672 4.06392,-10.82578 6.92505,-14.0024 2.9901,-3.31982 3.68246,-2.83292 1.09022,0.7667 -4.39506,6.10306 -6.00806,13.53378 -5.99423,27.61413 0.014,14.26699 1.74652,21.92037 6.26626,27.68129 2.60807,3.3243 1.49328,3.6059 -1.33129,0.3363 z m 48.27339,2.4035 c -0.0113,-0.3758 0.77981,-1.7522 1.75808,-3.0586 4.39418,-5.86799 6.02597,-13.18548 6.04042,-27.08723 0.0148,-14.22922 -1.60561,-21.69673 -6.0682,-27.9649 -1.03408,-1.45247 -1.72958,-2.79434 -1.54555,-2.98193 0.66604,-0.67892 4.83955,4.61062 6.60827,8.3754 3.336,7.10075 4.1442,11.43544 4.15715,22.29617 0.0128,10.75375 -0.80753,15.25737 -3.98581,21.88137 -1.62038,3.37714 -6.92396,9.88042 -6.96436,8.53972 z m 170.99865,-2.4035 c -3.05065,-3.53127 -5.36131,-8.22118 -6.94281,-14.09162 -1.66408,-6.17699 -1.6715,-22.09612 -0.0132,-28.3044 1.51506,-5.672 4.06392,-10.82578 6.92505,-14.0024 2.9901,-3.31982 3.68246,-2.83292 1.09022,0.7667 -4.39506,6.10306 -6.00805,13.53378 -5.99423,27.61413 0.014,14.26699 1.74652,21.92037 6.26626,27.68129 2.60807,3.3243 1.49328,3.6059 -1.33129,0.3363 z m 51.51387,2.4035 c -0.0113,-0.3758 0.77981,-1.7522 1.75807,-3.0586 4.39418,-5.86799 6.02598,-13.18548 6.04043,-27.08723 0.0148,-14.22922 -1.60561,-21.69673 -6.06821,-27.9649 -1.03408,-1.45247 -1.72957,-2.79434 -1.54554,-2.98193 0.66604,-0.67892 4.83955,4.61062 6.60827,8.3754 3.33599,7.10075 4.1442,11.43544 4.15715,22.29617 0.0128,10.75375 -0.80754,15.25737 -3.98581,21.88137 -1.62039,3.37714 -6.92397,9.88042 -6.96436,8.53972 z m -328.38857,-1.7939 c -1.29921,-1.3243 -1.39054,-2.9058 -0.22477,-3.89197 1.2415,-1.05028 2.69873,0.0584 2.49966,1.90187 -0.35187,3.2583 4.72342,0.7916 6.58092,-3.19845 0.48602,-1.04401 2.55065,-7.79767 4.58808,-15.00814 l 3.70442,-13.10995 -2.63329,-0.1664 c -2.19381,-0.13863 -2.63329,-0.34535 -2.63329,-1.23867 0,-0.85026 0.37631,-1.07228 1.81744,-1.07228 2.28731,0 4.35708,-1.63017 5.83264,-4.59385 2.22061,-4.46009 4.29852,-6.9838 7.09743,-8.62007 3.30038,-1.92943 5.62705,-2.08546 7.59293,-0.50919 1.6102,1.29107 1.83019,2.78392 0.56765,3.852 -1.15688,0.97869 -2.65513,-0.0106 -2.65513,-1.75324 0,-1.01084 -0.32936,-1.3518 -1.43147,-1.48184 -2.84976,-0.33627 -6.79336,4.81042 -8.46063,11.04173 l -0.55237,2.06446 2.06622,0 c 1.80032,0 2.02987,0.14169 1.78375,1.10105 -0.21972,0.85646 -0.73667,1.10104 -2.32719,1.10104 l -2.04472,0 -1.15408,3.99129 c -6.30034,21.78919 -8.88682,27.14031 -14.33874,29.66491 -2.81306,1.3027 -4.34427,1.2826 -5.67546,-0.074 z m 232.5813,0.5267 c -3.89573,-0.9986 -6.28824,-3.1826 -6.28824,-5.74034 0,-1.2721 2.70941,-4.12835 5.06367,-5.33812 2.82498,-1.45164 2.68764,-1.26424 1.88568,-2.57321 -0.93114,-1.51983 0.0828,-3.41667 2.61472,-4.89165 l 1.9037,-1.10899 -2.20381,-1.26256 c -4.50398,-2.58033 -5.04977,-7.64768 -1.26343,-11.73021 3.3245,-3.58457 10.17268,-5.2347 14.34368,-3.45624 1.24029,0.52884 3.6028,0.89168 5.80585,0.89168 2.04304,0 3.7146,0.22747 3.7146,0.50549 0,1.67978 -0.76616,2.24712 -3.0346,2.24712 l -2.37896,0 0.3316,2.11378 c 0.73388,4.67817 -3.1796,8.8478 -9.58678,10.21428 -3.84109,0.8192 -5.29118,1.45639 -6.39236,2.80889 -1.12217,1.37827 0.1761,2.24426 5.29425,3.53144 7.16384,1.80167 9.29087,3.30095 9.28388,6.54393 -0.004,2.06729 -2.1934,4.59321 -5.19392,5.99341 -3.37874,1.5768 -10.22501,2.1931 -13.89953,1.2513 z m 12.92822,-2.5027 c 1.34911,-0.6722 2.30305,-1.61901 2.64295,-2.62313 0.80933,-2.39084 -1.07021,-3.68671 -7.64034,-5.2677 l -5.45288,-1.31214 -1.86,1.17178 c -1.77295,1.11693 -3.12563,3.16345 -3.12563,4.72887 0,1.29969 2.18786,3.60052 3.94955,4.15352 2.65421,0.8331 9.05854,0.3585 11.48635,-0.8512 z m -0.98386,-20.04195 c 2.15192,-1.33741 3.7266,-3.86963 4.20635,-6.76414 1.2035,-7.2612 -7.99908,-8.03141 -11.50235,-0.96269 -1.66184,3.35319 -1.56636,5.24849 0.36352,7.21568 1.90416,1.94098 4.34257,2.12077 6.93248,0.51115 z m 43.32548,21.99715 c -0.79966,-1.5231 -0.17844,-3.218 1.45805,-3.97806 1.17968,-0.54789 1.47693,-0.46172 2.31523,0.67113 l 0.96179,1.29973 1.5535,-1.1444 c 0.85442,-0.62944 2.71512,-2.35679 4.13488,-3.83857 l 2.58139,-2.69416 -0.85597,-9.3234 c -1.23062,-13.40412 -1.4513,-14.00285 -5.1611,-14.00285 -1.00614,0 -1.57606,-0.28449 -1.57606,-0.78675 0,-0.51802 1.06073,-1.00108 3.10545,-1.41422 1.708,-0.34511 3.53568,-0.75255 4.0615,-0.90544 1.49911,-0.43587 2.39502,2.56891 3.06444,10.27785 0.32796,3.77679 0.73492,7.97477 0.90435,9.32884 l 0.30806,2.46194 1.58302,-1.91142 c 2.37788,-2.87119 9.11691,-13.16107 9.113,-13.91472 -0.002,-0.3623 -0.73098,-1.08074 -1.62023,-1.59653 -0.93943,-0.5449 -1.61683,-1.39337 -1.61683,-2.02514 0,-1.26817 1.35767,-2.81754 2.46894,-2.81754 1.2905,0 2.93185,2.10818 2.93185,3.76573 0,3.82507 -7.37092,14.63873 -17.61406,25.84104 -6.61223,7.23144 -10.65068,9.46964 -12.1012,6.70694 z m -218.9525,-11.30425 c -1.09114,-1.11224 -1.0836,-2.65502 0.0175,-3.58654 0.72834,-0.61615 1.1283,-0.57948 2.51271,0.23043 1.62869,0.95282 1.66323,0.94687 3.19561,-0.54963 0.85201,-0.83206 2.44015,-2.83161 3.52919,-4.44343 l 1.98008,-2.93057 -1.2388,-3.92073 c -1.44116,-4.5611 -3.06123,-6.50586 -5.4197,-6.50586 -2.11118,0 -2.23224,-1.49573 -0.15957,-1.97154 0.81687,-0.18753 2.41926,-0.57962 3.56086,-0.87131 2.53749,-0.64837 3.15446,-0.0192 4.54153,4.63129 0.51917,1.74061 1.10639,3.16509 1.30494,3.16551 0.19856,4.2e-4 0.8516,-0.80438 1.45121,-1.78844 1.7217,-2.8256 5.07921,-5.86417 6.88691,-6.2327 2.75325,-0.5613 4.65358,2.46694 2.62501,4.18306 -0.67038,0.56712 -1.23691,0.56246 -2.98176,-0.0245 -2.07942,-0.69954 -2.21126,-0.66898 -3.80087,0.88119 -0.90571,0.88322 -2.13437,2.40896 -2.73036,3.39052 l -1.08362,1.78466 1.45909,5.09687 c 2.28584,7.98485 2.79415,8.4477 5.54353,5.04772 0.94405,-1.16744 1.74334,-1.73606 1.95338,-1.38964 0.46379,0.76493 -5.14775,6.66877 -6.3386,6.66877 -1.61577,0 -2.87088,-1.92161 -3.90203,-5.97414 -0.55342,-2.17504 -1.17435,-3.88832 -1.37984,-3.80731 -0.20548,0.081 -1.4498,1.75758 -2.76516,3.7257 -3.52134,5.26886 -6.78669,7.20342 -8.76129,5.19064 z m 139.03174,-0.23594 c -0.59409,-0.60557 -1.08016,-1.59652 -1.08016,-2.20209 0,-0.60558 0.48607,-1.59652 1.08016,-2.20209 0.59409,-0.60558 1.56623,-1.10105 2.16032,-1.10105 0.59408,0 1.56623,0.49547 2.16031,1.10105 0.59409,0.60557 1.08016,1.59651 1.08016,2.20209 0,0.60557 -0.48607,1.59652 -1.08016,2.20209 -0.59408,0.60558 -1.56623,1.10105 -2.16031,1.10105 -0.59409,0 -1.56623,-0.49547 -2.16032,-1.10105 z m -33.53497,-0.7309 c -5.88555,-3.16847 -7.63851,-11.93704 -3.5966,-17.99073 1.78815,-2.67818 3.78188,-3.96656 7.2215,-4.66666 l 3.06312,-0.62347 -2.79616,-2.09225 c -3.32895,-2.49093 -5.33194,-5.02567 -5.78135,-7.31619 -0.26566,-1.35402 -0.0172,-2.02787 1.30239,-3.53242 1.47927,-1.68659 1.90121,-1.85671 4.54404,-1.83205 3.26937,0.0305 5.85916,1.28243 7.61221,3.67984 1.57504,2.15397 0.56253,2.68174 -1.16411,0.60679 -2.65492,-3.19052 -7.12618,-4.49851 -8.96619,-2.62292 -2.00059,2.03928 -0.46504,4.20865 6.29846,8.89818 2.28591,1.58496 5.13227,4.14043 6.32523,5.67882 6.15433,7.93638 4.51245,18.90717 -3.32856,22.2408 -3.05861,1.30038 -7.88089,1.10821 -10.73398,-0.42774 z m 10.49577,-1.50071 c 4.0878,-3.27765 2.71397,-16.35215 -2.02796,-19.29968 -5.47633,-3.40401 -10.12628,1.83963 -9.26529,10.44825 0.37451,3.74457 1.73118,7.03748 3.65025,8.85994 1.62759,1.54565 5.71035,1.54111 7.643,-0.009 z m 179.66209,-4.63481 0,-7.41694 -7.69613,-0.15275 c -7.51799,-0.14921 -7.70012,-0.18141 -7.8687,-1.39142 -0.1722,-1.23592 -0.1551,-1.23867 7.69612,-1.23867 l 7.86871,0 0,-7.74561 c 0,-7.71759 0.004,-7.74497 1.21518,-7.56969 1.18436,0.17146 1.21899,0.36789 1.36543,7.74561 l 0.15027,7.56969 7.54586,0 7.54586,0 0,1.3763 0,1.37631 -7.5611,0 -7.56111,0 0,7.43206 0,7.43205 -1.35019,0 -1.3502,0 0,-7.41694 z m 33.21485,6.77449 c -4.13139,-2.32917 -5.88437,-5.89226 -5.91344,-12.01957 -0.0255,-5.37805 1.11846,-8.31224 4.1532,-10.65255 1.88274,-1.45193 6.23056,-2.88548 6.81049,-2.24555 0.1928,0.21275 0.10751,0.48063 -0.18954,0.5953 -4.2097,1.62506 -5.21924,3.38683 -5.5417,9.67093 -0.47209,9.19996 1.25955,13.64232 5.3178,13.64232 1.58374,0 2.3145,-0.35899 3.39488,-1.66777 1.90342,-2.30583 2.22329,-4.77835 1.43445,-11.08796 -0.74337,-5.94595 -0.44673,-7.06308 1.87552,-7.06308 2.32225,0 2.61889,1.11713 1.87552,7.06308 -0.78884,6.30961 -0.46897,8.78213 1.43445,11.08796 1.08037,1.30878 1.81114,1.66777 3.39488,1.66777 4.05825,0 5.78989,-4.44236 5.3178,-13.64232 -0.32246,-6.2841 -1.332,-8.04587 -5.5417,-9.67093 -0.29705,-0.11467 -0.38234,-0.38255 -0.18954,-0.5953 0.57993,-0.63993 4.92775,0.79362 6.81049,2.24555 4.81086,3.71001 5.89332,13.28 2.14363,18.95177 -1.91281,2.8933 -4.44346,4.3628 -7.51326,4.3628 -3.32694,0 -5.00608,-1.10183 -6.63084,-4.35111 l -1.26532,-2.53042 -0.92462,2.34682 c -1.24376,3.15683 -3.24958,4.53912 -6.55597,4.51797 -1.43936,-0.009 -3.10309,-0.29077 -3.69718,-0.62571 z m -271.92973,-10.09274 0,-1.37631 16.74244,0 16.74245,0 0,1.37631 0,1.37631 -16.74245,0 -16.74244,0 0,-1.37631 z m 0,-11.01045 0,-1.37631 16.74244,0 16.74245,0 0,1.37631 0,1.3763 -16.74245,0 -16.74244,0 0,-1.3763 z"
         id="path4250"
         inkscape:connector-curvature="0" />
      <path
         style="fill:#04446a;fill-opacity:1"
         d="m 384.13593,1002.7515 c -3.17624,-3.70117 -5.55676,-8.69735 -7.03282,-14.76032 -1.72414,-7.08198 -1.69362,-20.39223 0.0627,-27.3698 1.51297,-6.0106 4.19785,-11.43119 7.18555,-14.50711 2.26723,-2.33417 3.6622,-2.7408 1.68948,-0.49247 -4.65312,5.30319 -7.19417,15.55965 -7.19417,29.03791 0,12.5305 2.34888,22.78535 6.29554,27.48529 1.03821,1.2364 1.79544,2.5299 1.68275,2.8745 -0.1127,0.3447 -1.32278,-0.676 -2.68907,-2.268 z m 48.19674,2.2745 c -0.0135,-0.4061 0.76535,-1.6804 1.73074,-2.8318 3.96254,-4.726 6.33956,-15.05007 6.33956,-27.53449 0,-12.43587 -2.08369,-21.75246 -6.1579,-27.53312 -1.10612,-1.56942 -1.90746,-2.95916 -1.78076,-3.08831 0.12671,-0.12916 1.24597,0.8004 2.48724,2.06568 9.19287,9.37064 11.45196,35.21621 4.39319,50.26121 -1.58484,3.3779 -6.96676,10.02523 -7.01207,8.66083 z m 171.0753,-2.2745 c -3.17624,-3.70117 -5.55676,-8.69735 -7.03281,-14.76032 -1.72415,-7.08198 -1.69363,-20.39223 0.0627,-27.3698 1.51296,-6.0106 4.19785,-11.43119 7.18555,-14.50711 2.26723,-2.33417 3.6622,-2.7408 1.68947,-0.49247 -4.65312,5.30319 -7.19417,15.55965 -7.19417,29.03791 0,12.5305 2.34889,22.78535 6.29554,27.48529 1.03821,1.2364 1.79544,2.5299 1.68275,2.8745 -0.1127,0.3447 -1.32278,-0.676 -2.68907,-2.268 z m 51.43721,2.2745 c -0.0135,-0.4061 0.76536,-1.6804 1.73075,-2.8318 3.96254,-4.726 6.33956,-15.05007 6.33956,-27.53449 0,-12.43587 -2.0837,-21.75246 -6.1579,-27.53312 -1.10613,-1.56942 -1.90747,-2.95916 -1.78077,-3.08831 0.12671,-0.12916 1.24597,0.8004 2.48725,2.06568 9.19287,9.37064 11.45195,35.21621 4.39318,50.26121 -1.58483,3.3779 -6.96675,10.02523 -7.01207,8.66083 z m -327.70551,-1.2983 c -2.01819,-1.0034 -2.20683,-3.79343 -0.30673,-4.53666 1.27482,-0.49866 2.35878,0.71938 1.98633,2.23196 -0.76419,3.1037 4.70939,0.5269 6.53815,-3.07787 0.42061,-0.82911 2.38909,-7.30265 4.37438,-14.38564 1.98529,-7.083 3.72423,-13.18785 3.8643,-13.56633 0.18304,-0.49458 -0.52118,-0.68816 -2.5035,-0.68816 -2.39812,0 -2.75818,-0.14373 -2.75818,-1.10104 0,-0.88292 0.36006,-1.10105 1.81744,-1.10105 2.45334,0 4.2067,-1.53889 6.4851,-5.69183 4.4906,-8.18522 12.20504,-11.70367 14.91572,-6.80285 0.72859,1.31728 0.71482,1.54728 -0.14516,2.42389 -1.29811,1.32321 -2.88212,0.31134 -2.66468,-1.70219 0.13855,-1.28293 -0.0308,-1.43956 -1.55628,-1.43956 -2.38108,0 -5.91825,3.70333 -7.36151,7.70731 -2.07861,5.76664 -2.08263,5.50523 0.0847,5.50523 1.56662,0 1.92668,0.20576 1.92668,1.10105 0,0.91391 -0.36006,1.10104 -2.11844,1.10104 -1.91703,0 -2.17077,0.1701 -2.669,1.7892 -0.30282,0.98406 -1.67416,5.6291 -3.04743,10.3223 -4.46696,15.26607 -8.13572,21.0675 -14.03833,22.1989 -0.89113,0.1708 -2.16172,0.041 -2.82353,-0.2877 z m 231.54695,-0.2071 c -3.15515,-0.8442 -5.94087,-3.2464 -5.94087,-5.12286 0,-1.54328 1.95114,-3.75184 4.7652,-5.39389 1.38923,-0.81064 2.60632,-1.53245 2.70465,-1.60402 0.0983,-0.0716 -0.10122,-0.66344 -0.44345,-1.31525 -0.77155,-1.46953 0.37224,-3.50819 2.73795,-4.88002 1.69259,-0.98152 2.04417,-1.73649 0.80863,-1.73649 -1.39478,0 -4.06186,-2.7975 -4.68352,-4.91255 -0.51969,-1.7681 -0.45002,-2.44977 0.46614,-4.56095 2.38196,-5.48895 10.50428,-8.61711 16.14098,-6.2164 1.08573,0.46242 3.5734,0.82579 5.65348,0.82579 2.04304,0 3.7146,0.22747 3.7146,0.50549 0,1.65743 -0.76958,2.24712 -2.93264,2.24712 l -2.27701,0 0.0395,2.65425 c 0.0709,4.77261 -3.32504,8.18609 -9.46393,9.51274 -3.5759,0.77276 -6.96906,2.46066 -6.96906,3.46669 0,1.25396 1.17944,1.86036 6.03066,3.10061 7.60476,1.94421 9.81916,4.05067 8.50975,8.09494 -0.82353,2.5436 -4.39897,4.8176 -8.80404,5.5996 -4.346,0.7714 -6.38517,0.7178 -10.057,-0.2648 z m 11.92205,-1.6245 c 4.35723,-1.5671 5.55896,-4.11034 2.93596,-6.2135 -1.75146,-1.40434 -10.61475,-3.64391 -12.5061,-3.16003 -2.01675,0.51596 -4.51222,3.40362 -4.51222,5.22135 0,1.62439 1.61616,3.49408 3.78082,4.37398 2.06373,0.8388 7.6892,0.7177 10.30154,-0.2218 z m 0.55492,-20.7722 c 2.16628,-1.46744 4.26548,-5.39576 4.26548,-7.98217 0,-1.23771 -0.45272,-2.29668 -1.39049,-3.25259 -1.21591,-1.23942 -1.72669,-1.38445 -4.06822,-1.15511 -1.82761,0.17901 -3.11747,0.68063 -4.06286,1.58004 -2.94317,2.80003 -4.33359,7.80444 -2.74805,9.89083 1.83694,2.41719 5.2192,2.80553 8.00414,0.919 z m 43.49884,22.4387 c -0.48827,-0.4977 -0.88776,-1.2588 -0.88776,-1.6913 0,-1.0261 1.9381,-2.98859 2.95144,-2.98859 0.43511,0 1.05125,0.49547 1.36919,1.10104 0.31795,0.60555 0.77837,1.10105 1.02316,1.10105 0.70435,0 4.61331,-3.37921 6.52105,-5.6373 l 1.73944,-2.05889 -0.88777,-9.50208 c -1.21183,-12.97044 -1.4638,-13.63101 -5.19958,-13.63101 -2.77195,0 -1.89233,-1.50816 1.25936,-2.15926 5.30475,-1.09588 5.43188,-1.07337 6.1441,1.08807 0.35461,1.07618 0.93098,5.41154 1.28084,9.63415 0.96875,11.69261 0.67795,11.45376 5.65175,4.64206 2.31843,-3.17513 4.72648,-6.84506 5.35121,-8.15542 1.05089,-2.20416 1.06769,-2.42136 0.22444,-2.90239 -2.55181,-1.45568 -3.17973,-3.11389 -1.7363,-4.58523 1.05047,-1.07079 1.88073,-1.09221 3.23369,-0.0835 1.41765,1.057 1.31455,4.81404 -0.21577,7.86206 -2.87502,5.72637 -18.03228,24.11565 -22.12802,26.84644 -2.80607,1.871 -4.60983,2.2258 -5.69447,1.1201 z M 395.31076,991.72367 c -0.80934,-0.91161 -0.87281,-1.34199 -0.36532,-2.47735 0.70875,-1.5856 1.53257,-1.72011 3.20817,-0.52378 1.69031,1.20684 2.75017,0.45358 5.83309,-4.14568 l 2.60325,-3.88366 -1.24209,-3.98016 c -1.51395,-4.85137 -2.82438,-6.45752 -5.26854,-6.45752 -3.17271,0 -2.18793,-1.48238 1.57936,-2.37739 l 3.37549,-0.80193 1.19597,1.43652 c 0.65779,0.79008 1.4936,2.62024 1.85736,4.06701 0.36376,1.44678 0.83866,2.6305 1.05531,2.6305 0.21667,0 0.90513,-0.84313 1.52993,-1.87363 1.51109,-2.49227 5.06908,-5.71959 6.79139,-6.16023 2.6185,-0.66991 4.77794,2.89507 2.5048,4.13514 -0.67121,0.36617 -1.64566,0.34145 -2.97867,-0.0756 -1.8468,-0.57775 -2.09298,-0.51069 -3.63094,0.98911 -0.9074,0.88488 -2.15125,2.43474 -2.76411,3.44411 -1.21932,2.00823 -1.31336,1.26701 1.28637,10.13864 1.29574,4.42173 2.229,4.75036 4.72497,1.66377 0.99085,-1.22533 1.65955,-1.70891 1.65955,-1.20014 0,1.01619 -3.43515,5.22732 -4.92875,6.04213 -2.38764,1.30254 -3.80891,-0.61172 -5.51408,-7.42668 l -0.6781,-2.71013 -3.12528,4.54636 c -2.18129,3.17312 -3.67758,4.78159 -4.95373,5.32511 -2.36668,1.00799 -2.58945,0.98874 -3.7554,-0.32454 z m 139.07231,0.002 c -0.59409,-0.60557 -1.08016,-1.59652 -1.08016,-2.20209 0,-0.60558 0.48607,-1.59652 1.08016,-2.20209 0.59409,-0.60558 1.56623,-1.10105 2.16032,-1.10105 0.59408,0 1.56623,0.49547 2.16031,1.10105 0.59409,0.60557 1.08016,1.59651 1.08016,2.20209 0,0.60557 -0.48607,1.59652 -1.08016,2.20209 -0.59408,0.60558 -1.56623,1.10105 -2.16031,1.10105 -0.59409,0 -1.56623,-0.49547 -2.16032,-1.10105 z m -32.67477,-0.22453 c -4.27433,-1.93098 -6.45316,-5.6671 -6.45066,-11.06119 0.003,-6.71284 3.17687,-10.80133 9.30647,-11.98874 l 3.18271,-0.61654 -3.07532,-2.3077 c -3.77743,-2.83456 -5.60959,-5.36027 -5.60959,-7.73305 0,-6.06292 10.45899,-6.643 13.4506,-0.746 1.13963,2.24643 0.48168,2.06617 -1.84821,-0.50634 -4.15736,-4.59032 -11.60678,-3.00929 -8.51128,1.80638 0.43894,0.68287 2.47669,2.40002 4.52832,3.81591 5.8677,4.04944 7.92841,6.09755 9.89928,9.83877 1.62434,3.08338 1.83344,3.95593 1.82402,7.61153 -0.0155,6.03958 -2.21629,9.84499 -6.82993,11.80996 -2.43149,1.03559 -7.6543,1.07635 -9.86641,0.077 z m 9.33324,-1.75313 c 2.13784,-1.42785 2.98889,-4.32818 2.67025,-9.10008 -0.29988,-4.49097 -1.65579,-8.34718 -3.53195,-10.04486 -0.62515,-0.56569 -2.1906,-1.14961 -3.47876,-1.29762 -4.66322,-0.53577 -7.36801,3.96745 -6.70831,11.1687 0.77555,8.46569 5.86402,12.73673 11.04877,9.27386 z m 179.96442,-4.90387 0,-7.43206 -7.56111,0 -7.5611,0 0,-1.37631 0,-1.3763 7.5611,0 7.56111,0 0,-7.43206 0,-7.43206 1.3502,0 1.35019,0 0,7.43206 0,7.43206 7.59867,0 c 7.57118,0 7.59805,0.004 7.42609,1.23867 -0.16821,1.20727 -0.36091,1.24256 -7.59867,1.39184 l -7.42609,0.15317 0,7.41652 0,7.41652 -1.35019,0 -1.3502,0 0,-7.43205 z m 33.11186,6.62502 c -3.8399,-1.70228 -6.56116,-8.11278 -5.89531,-13.88767 0.70698,-6.13167 3.83086,-9.73462 9.3738,-10.81137 2.24261,-0.43564 2.26409,0.30043 0.0386,1.32135 -3.06949,1.40808 -3.87755,3.19416 -4.13242,9.13404 -0.39814,9.27919 1.42288,13.6828 5.60822,13.56187 4.46461,-0.129 5.93578,-4.65617 4.52501,-13.92464 -0.67134,-4.41048 -0.14757,-6.05693 1.92679,-6.05693 2.07436,0 2.59812,1.64645 1.9268,6.05693 -1.22411,8.04209 -0.33834,12.12843 2.93081,13.52078 4.97225,2.11772 7.61053,-2.62576 7.20365,-12.95178 -0.24228,-6.14845 -1.02342,-7.9135 -4.13365,-9.34027 -2.22554,-1.02092 -2.20406,-1.75699 0.0386,-1.32135 6.36507,1.23645 10.25632,7.27208 9.40612,14.58959 -0.7127,6.13396 -4.18019,10.31989 -8.93439,10.78555 -3.61433,0.354 -5.59493,-0.81294 -7.19152,-4.23716 l -1.27606,-2.73679 -1.22715,2.72665 c -0.76828,1.70708 -1.81294,3.03544 -2.79375,3.55244 -1.93795,1.02154 -5.1139,1.0296 -7.39406,0.0188 z m -271.28667,-9.92816 0,-1.37631 16.47241,0 16.47241,0 0,1.37631 0,1.37631 -16.47241,0 -16.47241,0 0,-1.37631 z m 0,-11.01045 0,-1.37631 16.47241,0 16.47241,0 0,1.37631 0,1.3763 -16.47241,0 -16.47241,0 0,-1.3763 z"
         id="path4248"
         inkscape:connector-curvature="0" />
      <path
         style="fill:#04446a;fill-opacity:1"
         d="m 383.63198,1002.0482 c -4.3745,-5.60805 -6.60337,-12.07732 -7.52938,-21.85396 -1.30984,-13.82896 1.8219,-26.96493 8.04567,-33.74732 2.81819,-3.07113 3.65292,-3.09643 1.25332,-0.038 -4.26296,5.43339 -5.97828,12.2266 -6.39476,25.32538 -0.45867,14.42529 1.33312,23.72226 5.79645,30.0758 2.76363,3.934 1.85561,4.1186 -1.1713,0.2381 z m 50.81442,-0.2381 c 4.46333,-6.35353 6.25512,-15.6505 5.79645,-30.07579 -0.41473,-13.04355 -2.13483,-19.89531 -6.34054,-25.25661 -2.08322,-2.65563 -2.03515,-3.27516 0.096,-1.23633 6.88068,6.58278 10.50684,20.48168 9.14906,35.06793 -0.94239,10.12392 -3.15457,16.46588 -7.65464,21.9447 -3.02748,3.6859 -3.73623,3.3852 -1.04628,-0.4439 z m 168.45762,0.2381 c -4.3745,-5.60805 -6.60337,-12.07732 -7.52938,-21.85396 -1.30984,-13.82896 1.8219,-26.96493 8.04567,-33.74732 2.81819,-3.07113 3.65292,-3.09643 1.25332,-0.038 -4.26296,5.43339 -5.97827,12.2266 -6.39476,25.32538 -0.45867,14.42529 1.33312,23.72226 5.79645,30.0758 2.76363,3.934 1.85561,4.1186 -1.1713,0.2381 z m 54.0549,-0.2381 c 4.46332,-6.35353 6.25512,-15.6505 5.79645,-30.07579 -0.41473,-13.04355 -2.13483,-19.89531 -6.34054,-25.25661 -2.08323,-2.65563 -2.03515,-3.27516 0.0959,-1.23633 6.88068,6.58278 10.50683,20.48168 9.14906,35.06793 -0.9424,10.12392 -3.15457,16.46588 -7.65464,21.9447 -3.02748,3.6859 -3.73624,3.3852 -1.04628,-0.4439 z m -329.25575,2.0099 c -1.01228,-0.4041 -2.33064,-2.0643 -2.33064,-2.9349 0,-0.1497 0.38143,-0.661 0.84762,-1.1362 1.24761,-1.27173 2.87373,-0.24818 2.52869,1.5917 -0.21503,1.1466 -0.0529,1.3958 0.90818,1.3958 1.97639,0 4.04167,-1.4409 5.27714,-3.68159 0.64834,-1.17586 2.78593,-7.82706 4.75021,-14.78045 1.96428,-6.95339 3.69567,-13.07607 3.84752,-13.60594 0.23725,-0.82782 -0.10908,-0.96342 -2.46068,-0.96342 -2.37673,0 -2.73679,-0.14485 -2.73679,-1.10104 0,-0.90846 0.36006,-1.10105 2.05848,-1.10105 2.56721,0 3.71235,-1.04585 6.53021,-5.96399 3.76663,-6.57406 8.4434,-9.69949 12.40663,-8.29118 0.94094,0.33435 1.9487,1.06104 2.23948,1.61486 0.68958,1.31342 0.67832,1.39867 -0.31895,2.41523 -1.2476,1.27172 -2.87372,0.24818 -2.52869,-1.59166 0.22725,-1.21177 0.0719,-1.3958 -1.17821,-1.3958 -3.42897,0 -6.29593,3.10595 -8.1306,8.80836 -0.5358,1.66533 -1.0863,3.33754 -1.22334,3.71603 -0.17027,0.47027 0.36763,0.68815 1.69891,0.68815 1.56878,0 1.94806,0.2082 1.94806,1.06939 0,0.85857 -0.43903,1.10277 -2.2269,1.23868 l -2.2269,0.16928 -1.03711,3.5784 c -4.80527,16.57988 -7.35746,23.13926 -10.47069,26.91064 -2.28574,2.769 -5.90809,4.2543 -8.17163,3.3507 z m 233.68385,0.2233 c -5.15736,-0.8855 -7.53323,-2.2839 -8.30327,-4.88718 -0.52364,-1.77029 1.50765,-4.49651 4.50325,-6.04385 2.98212,-1.54037 2.973,-1.52713 2.1414,-3.11104 -0.72594,-1.38265 0.371,-3.26818 2.72645,-4.68648 0.89791,-0.54067 1.6273,-1.11542 1.62087,-1.27722 -0.006,-0.16181 -0.78146,-0.6658 -1.72229,-1.11998 -3.68407,-1.77847 -4.92073,-6.24285 -2.76941,-9.99765 2.59051,-4.52135 9.85808,-7.00995 15.23556,-5.21705 1.4865,0.49561 4.32355,0.90111 6.30456,0.90111 3.06251,0 3.55275,0.13039 3.27401,0.87081 -0.1803,0.47894 -0.32782,1.09828 -0.32782,1.3763 0,0.27803 -1.12404,0.5055 -2.49786,0.5055 -2.46488,0 -2.49375,0.021 -2.18644,1.58727 0.76284,3.88793 -2.69648,8.76038 -7.02884,9.90012 -5.90221,1.55273 -6.94199,1.8951 -8.09571,2.66566 -1.48268,0.99028 -1.64203,2.63409 -0.30909,3.18838 0.51983,0.21617 3.05955,0.94927 5.64384,1.62913 2.58429,0.67985 5.32929,1.65726 6.1,2.17202 4.1446,2.76816 1.9904,8.51465 -3.90991,10.42995 -2.78111,0.9028 -8.23021,1.4866 -10.3993,1.1142 z m 9.58398,-2.1537 c 2.69362,-1.1472 3.91799,-2.3733 3.91799,-3.92339 0,-2.04802 -1.77736,-3.10634 -7.81823,-4.65533 -5.47839,-1.40475 -5.66907,-1.41691 -7.21265,-0.46006 -2.83837,1.75949 -3.9449,4.31325 -2.97976,6.87698 0.99321,2.6383 9.80139,3.9895 14.09265,2.1618 z m 1.44244,-21.68001 c 3.09206,-3.0549 3.90626,-7.99522 1.68998,-10.25435 -1.01562,-1.03526 -1.89538,-1.35128 -3.76176,-1.35128 -4.14579,0 -7.87448,4.30531 -7.87448,9.09223 0,4.78209 6.09184,6.32149 9.94626,2.5134 z m 42.22826,23.33191 c -0.47686,-0.4861 -0.86703,-1.0062 -0.86703,-1.1559 0,-0.7595 1.22767,-2.44358 2.14684,-2.94502 0.82569,-0.45044 1.26814,-0.3209 2.13187,0.62412 l 1.08994,1.1925 2.18578,-1.544 c 3.02304,-2.13547 5.94755,-5.55655 5.94755,-6.95741 0,-3.65034 -1.79914,-19.68667 -2.33904,-20.8487 -0.5099,-1.09744 -1.10373,-1.4106 -2.93077,-1.54559 -3.71652,-0.27458 -2.85464,-1.49116 1.71271,-2.41755 l 4.004,-0.81213 0.59473,1.33054 c 0.75282,1.6842 1.49726,7.07492 1.97953,14.33442 0.2068,3.11285 0.56518,5.77891 0.79639,5.92457 0.89284,0.56247 10.76458,-13.44806 10.76458,-15.2777 0,-0.5553 -0.59422,-1.28562 -1.32049,-1.62293 -1.75911,-0.817 -2.12417,-1.99134 -1.10967,-3.5696 0.95359,-1.48351 1.03795,-1.50771 2.49152,-0.71474 2.78644,1.5201 2.1804,5.73049 -1.65311,11.48473 -5.83028,8.75151 -18.37388,23.11629 -21.09157,24.15379 -3.14094,1.1991 -3.67468,1.2423 -4.53376,0.3666 z M 395.61041,991.75407 c -1.32577,-1.35141 -1.37465,-1.87958 -0.27746,-2.99798 0.74705,-0.76149 1.02452,-0.75199 2.76651,0.0948 l 1.93619,0.94115 2.09053,-2.47382 c 1.1498,-1.3606 2.63082,-3.51175 3.29116,-4.78032 l 1.20063,-2.3065 -1.19443,-3.78031 c -1.47882,-4.68037 -2.76792,-6.19555 -5.27112,-6.19555 -3.19729,0 -2.21264,-1.35681 1.67224,-2.30431 l 3.54148,-0.86374 0.84448,1.31377 c 1.0199,1.58666 2.2777,5.0688 2.31036,6.3961 0.0356,1.44934 0.75505,1.16345 1.85692,-0.73795 3.51242,-6.06103 8.88571,-8.78779 10.23807,-5.19547 0.77615,2.06173 -0.94935,3.34938 -3.27861,2.44668 -2.25934,-0.87561 -3.66555,-0.19624 -5.83802,2.82049 -2.2588,3.1366 -2.2591,3.0597 0.0423,10.75074 1.58465,5.29572 2.16081,5.63166 4.94349,2.88243 0.97955,-0.96776 1.78098,-1.51968 1.78098,-1.22648 0,0.95509 -3.29787,4.63959 -4.91635,5.49272 -1.48493,0.78274 -1.6526,0.75679 -2.82369,-0.43694 -0.73766,-0.75192 -1.65756,-2.89045 -2.25738,-5.24781 -0.5568,-2.1883 -1.1478,-3.97381 -1.31333,-3.9678 -0.16551,0.006 -1.0176,1.24143 -1.8935,2.74537 -1.83907,3.15771 -5.43103,6.87081 -7.1561,7.39743 -0.82119,0.25068 -1.52931,0.0142 -2.29534,-0.76668 z m 139.01815,-0.2784 c -0.7291,-0.7432 -1.32565,-1.62154 -1.32565,-1.95185 0,-0.77957 2.4757,-3.30314 3.24048,-3.30314 0.76478,0 3.24047,2.52357 3.24047,3.30314 0,0.77957 -2.47569,3.30314 -3.24047,3.30314 -0.32405,0 -1.18572,-0.60808 -1.91483,-1.35129 z m -32.9249,-0.22595 c -4.87619,-2.25804 -7.44465,-7.89728 -6.20102,-13.61476 1.1993,-5.51367 4.95725,-8.96466 10.01451,-9.1965 1.317,-0.0604 2.38157,-0.23363 2.36571,-0.38503 -0.0159,-0.15139 -1.46199,-1.39007 -3.21363,-2.75261 -4.07848,-3.17252 -5.4993,-5.11482 -5.4993,-7.51768 0,-2.35305 1.28744,-3.87986 3.86909,-4.58848 3.26126,-0.89514 8.37404,1.28549 9.63658,4.11006 0.80751,1.80656 -0.0495,1.79755 -1.21311,-0.0128 -1.33043,-2.06975 -4.05348,-3.54772 -6.54072,-3.55006 -2.42857,-0.002 -3.48351,0.74358 -3.48351,2.46291 0,1.81957 1.41415,3.41477 5.57202,6.28537 7.96163,5.49672 11.37295,10.56944 11.37295,16.91184 0,8.15362 -4.44867,12.88759 -12.08426,12.85925 -1.3367,-0.005 -3.40458,-0.46016 -4.59531,-1.01155 z m 9.57247,-1.54162 c 3.97877,-3.61152 3.20347,-15.31881 -1.26847,-19.15447 -1.78715,-1.53287 -4.35469,-1.82802 -6.64574,-0.76396 -5.09442,2.36605 -4.55053,16.49244 0.77673,20.17411 2.20363,1.52293 5.30023,1.412 7.13748,-0.25568 z m 179.72983,-5.13899 0,-7.70731 -7.56111,0 c -7.20105,0 -7.5611,-0.0524 -7.5611,-1.10105 0,-1.04861 0.36005,-1.10104 7.5611,-1.10104 l 7.56111,0 0,-7.43206 c 0,-7.06504 0.0534,-7.43206 1.08016,-7.43206 1.02681,0 1.08015,0.36702 1.08015,7.43206 l 0,7.43206 7.83115,0 c 7.43476,0 7.83114,0.055 7.83114,1.08593 0,1.02294 -0.4464,1.09479 -7.69612,1.23867 l -7.69613,0.15275 -0.15026,7.56969 c -0.14123,7.11477 -0.21426,7.56968 -1.21517,7.56968 -1.00913,0 -1.06492,-0.40378 -1.06492,-7.70732 z m 32.93639,6.68695 c -4.21458,-2.28522 -6.53959,-8.59566 -5.4271,-14.73003 0.98546,-5.43392 3.62022,-8.35443 8.5571,-9.48512 2.63423,-0.60332 3.11352,0.0588 0.57892,0.79979 -0.93516,0.27339 -2.2111,1.1949 -2.83542,2.0478 -1.02398,1.39891 -1.13508,2.2878 -1.13477,9.07909 2.9e-4,6.05143 0.18071,7.86415 0.91968,9.24001 1.83553,3.41755 5.92735,3.69321 8.22845,0.55435 0.91185,-1.24383 1.11302,-2.33207 1.11302,-6.02104 0,-2.47654 -0.18763,-5.78026 -0.41696,-7.34159 -0.43298,-2.94782 0.29681,-4.59327 2.0372,-4.59327 1.74039,0 2.47018,1.64545 2.0372,4.59327 -0.22933,1.56133 -0.41696,4.86505 -0.41696,7.34159 0,3.68897 0.20116,4.77721 1.11302,6.02104 1.48779,2.02944 3.61449,2.71727 5.69087,1.84057 2.67848,-1.13091 3.39808,-3.26758 3.60792,-10.71285 0.17003,-6.03308 0.0779,-6.8206 -1.06222,-9.07658 -0.93424,-1.84863 -1.69013,-2.59603 -3.00367,-2.96988 -2.5881,-0.73662 -2.13618,-1.41044 0.54008,-0.80527 5.81563,1.31509 8.70522,5.4897 8.70522,12.57647 0,7.41939 -3.34466,12.0599 -9.03916,12.54126 -2.48362,0.20994 -3.0365,0.054 -4.61791,-1.30239 -0.98807,-0.84748 -2.19919,-2.50741 -2.69138,-3.68871 l -0.89488,-2.14784 -1.18747,2.67828 c -0.69428,1.56594 -1.8438,3.07349 -2.76779,3.62985 -2.05865,1.23959 -5.27339,1.21062 -7.63299,-0.0688 z m -271.1112,-9.71482 0,-1.37631 16.20237,0 16.20237,0 0,1.37631 0,1.37631 -16.20237,0 -16.20237,0 0,-1.37631 z m 0,-11.01045 0,-1.37631 16.20237,0 16.20237,0 0,1.37631 0,1.3763 -16.20237,0 -16.20237,0 0,-1.3763 z"
         id="path4246"
         inkscape:connector-curvature="0" />
      <path
         style="fill:#04446a;fill-opacity:1"
         d="m 384.12387,1002.2954 c -4.56488,-4.97462 -7.19662,-12.35492 -7.89149,-22.13047 -0.78001,-10.97325 0.54144,-20.44072 3.81396,-27.32501 1.60817,-3.38307 6.21876,-9.33197 6.78513,-8.75465 0.16574,0.16894 -0.33185,0.98586 -1.10576,1.81537 -1.9708,2.11236 -4.01386,6.49065 -5.37987,11.52907 -1.02579,3.78356 -1.16808,5.76189 -1.19965,16.67947 -0.0289,10.02208 0.14691,13.17954 0.92133,16.53951 1.10547,4.7963 3.35911,9.92931 5.48839,12.50061 2.22607,2.6881 1.32554,2.1512 -1.43204,-0.8539 z m 49.5019,0.9915 c 2.21779,-2.7576 4.44853,-7.83152 5.55639,-12.63821 1.37728,-5.97563 1.37728,-26.00234 0,-31.97796 -1.12961,-4.90108 -3.67742,-10.65404 -5.65546,-12.77009 -0.77542,-0.82951 -1.27523,-1.64541 -1.1107,-1.81312 0.52959,-0.53983 4.81766,4.87424 6.42434,8.11131 3.47435,6.99994 4.97017,17.00343 4.18178,27.9661 -0.79775,11.09281 -4.07675,19.23407 -9.64526,23.94777 -1.10238,0.9331 -1.06443,0.8072 0.24891,-0.8258 z m 169.77014,-0.9915 c -4.56488,-4.97462 -7.19662,-12.35492 -7.89149,-22.13047 -0.78001,-10.97325 0.54144,-20.44072 3.81396,-27.32501 1.60818,-3.38307 6.21877,-9.33197 6.78514,-8.75465 0.16574,0.16894 -0.33186,0.98586 -1.10577,1.81537 -1.9708,2.11236 -4.01386,6.49065 -5.37987,11.52907 -1.02579,3.78356 -1.16808,5.76189 -1.19964,16.67947 -0.029,10.02208 0.1469,13.17954 0.92132,16.53951 1.10547,4.7963 3.35911,9.92931 5.48839,12.50061 2.22607,2.6881 1.32554,2.1512 -1.43204,-0.8539 z m 52.74238,0.9915 c 2.21779,-2.7576 4.44853,-7.83152 5.55639,-12.63821 0.76013,-3.29798 0.95714,-6.58903 0.95714,-15.98898 0,-9.39996 -0.19701,-12.69101 -0.95714,-15.98898 -1.12962,-4.90108 -3.67742,-10.65404 -5.65547,-12.77009 -0.77541,-0.82951 -1.27522,-1.64541 -1.1107,-1.81312 0.52959,-0.53983 4.81766,4.87424 6.42435,8.11131 3.47434,6.99994 4.97017,17.00343 4.18178,27.9661 -0.79775,11.09281 -4.07675,19.23407 -9.64527,23.94777 -1.10238,0.9331 -1.06442,0.8072 0.24892,-0.8258 z m -328.4401,0.5051 c -2.473,-0.9325 -2.58188,-4.35877 -0.13851,-4.35877 0.81031,0 1.05332,0.38104 1.05332,1.65157 0,1.4109 0.20429,1.6516 1.40185,1.6516 2.02987,0 4.25299,-1.837 5.48627,-4.5333 0.86306,-1.8869 8.23409,-27.13901 8.23409,-28.20882 0,-0.1591 -1.233,-0.28928 -2.73999,-0.28928 -2.31869,0 -2.71206,-0.14814 -2.5583,-0.96341 0.126,-0.66802 0.86898,-1.05722 2.42322,-1.26936 2.89544,-0.39519 3.33783,-0.81138 5.87229,-5.52436 3.44376,-6.40387 8.27559,-9.80253 12.349,-8.68616 1.79656,0.49237 2.45627,1.31914 2.46812,3.09312 0.006,0.95648 -0.29933,1.23867 -1.34193,1.23867 -1.14017,0 -1.3502,-0.25691 -1.3502,-1.65157 0,-1.53381 -0.14073,-1.65156 -1.9739,-1.65156 -3.36498,0 -6.8806,4.8292 -8.60038,11.81381 -0.32212,1.30825 -0.21577,1.39873 1.64403,1.39873 1.6022,0 1.95349,0.18713 1.80858,0.96342 -0.12332,0.66058 -0.8454,1.04993 -2.29722,1.23867 l -2.11736,0.27526 -2.74936,9.35889 c -3.31997,11.30127 -4.72073,14.89994 -7.37213,18.93958 -2.72586,4.15307 -6.81549,6.52607 -9.50149,5.51327 z m 233.33004,-0.044 c -5.31137,-0.613 -7.7424,-2.3686 -7.7424,-5.59103 0,-1.57108 3.11925,-4.68938 5.83986,-5.83809 1.25015,-0.52784 1.61133,-0.92542 1.21121,-1.33327 -0.31356,-0.31964 -0.57012,-1.25683 -0.57012,-2.08266 0,-1.53184 1.75876,-3.40467 3.82509,-4.07318 1.52597,-0.49369 1.26912,-1.05464 -0.83865,-1.83156 -6.23495,-2.29819 -5.3255,-10.68734 1.52918,-14.10588 3.22365,-1.60768 8.89013,-2.07011 11.03415,-0.90048 0.61692,0.33655 2.98641,0.61191 5.26555,0.61191 3.55678,0 4.09743,0.12337 3.81605,0.87081 -0.1803,0.47894 -0.32782,1.09828 -0.32782,1.3763 0,0.27803 -1.08479,0.5055 -2.41064,0.5055 l -2.41064,0 0.0467,2.3737 c 0.0959,4.87148 -3.52174,8.6198 -9.32503,9.6618 -4.24524,0.76224 -6.69346,2.19407 -6.69346,3.91464 0,1.43296 -0.0267,1.42055 7.2707,3.37736 5.3382,1.43144 7.04142,2.79906 7.04142,5.65402 0,2.36291 -2.04682,5.00231 -4.79033,6.17711 -2.70535,1.1585 -7.79617,1.6918 -11.77083,1.233 z m 9.59764,-1.645 c 2.77862,-0.8486 4.26312,-2.35646 4.26312,-4.33029 0,-2.17057 -1.27142,-2.92123 -7.78874,-4.59857 -4.79701,-1.23459 -5.51343,-1.29734 -6.83832,-0.59896 -4.73944,2.49825 -5.00361,7.70842 -0.48405,9.54662 1.85841,0.7558 8.34852,0.7446 10.84799,-0.019 z m 0.91903,-20.85066 c 2.15525,-1.33943 3.85589,-4.8822 3.87231,-8.06682 0.015,-2.91057 -1.78995,-4.58176 -4.94851,-4.58176 -2.96069,0 -5.03226,1.26309 -6.63032,4.04272 -1.92707,3.35187 -1.90496,7.01036 0.0518,8.57934 1.85425,1.48675 5.28595,1.49864 7.65469,0.0265 z m 43.12991,22.21786 c -0.58683,-0.5982 -0.41056,-2.6644 0.28804,-3.3766 0.90178,-0.91917 2.56411,-0.8257 2.93715,0.1652 0.59969,1.593 2.37815,0.7945 5.98199,-2.68581 l 3.63622,-3.51159 -0.92863,-10.30932 c -0.51074,-5.67012 -1.23526,-10.96455 -1.61003,-11.7654 -0.55393,-1.18369 -1.11006,-1.48777 -2.97271,-1.62538 -3.64376,-0.26921 -2.86121,-1.4774 1.4677,-2.26597 2.06745,-0.37662 4.00513,-0.52971 4.30595,-0.34019 0.93362,0.58817 1.5532,4.11 2.2316,12.68485 0.35932,4.54181 0.81628,8.44558 1.01546,8.67504 0.66822,0.7698 10.83123,-13.72092 10.83123,-15.44348 0,-0.42481 -0.73028,-1.46775 -1.62283,-2.31765 -1.71537,-1.63338 -1.72115,-2.91083 -0.0174,-3.8403 0.64004,-0.34917 1.2986,-0.24811 2.09677,0.32177 1.5438,1.10223 1.55153,4.43208 0.0175,7.53422 -3.30909,6.6917 -19.0941,25.48121 -23.26559,27.69401 -1.53842,0.8161 -3.78661,1.0242 -4.39246,0.4066 z M 395.14017,991.37246 c -0.78695,-1.43339 -0.12698,-2.94969 1.28385,-2.94969 0.69044,0 1.40554,0.24774 1.58912,0.55053 1.06055,1.74918 3.47227,-0.14543 6.89552,-5.41703 l 1.90896,-2.93968 -1.37031,-4.15443 c -1.63021,-4.94242 -2.70444,-6.20664 -5.27385,-6.20664 -1.2516,0 -1.89028,-0.25795 -1.89028,-0.76344 0,-0.50396 1.20238,-0.99471 3.53755,-1.44385 4.19415,-0.80668 4.52839,-0.55552 6.05006,4.54625 0.51917,1.74061 1.06545,3.1587 1.21397,3.15131 0.14852,-0.007 1.10559,-1.26862 2.1268,-2.80275 1.02122,-1.53413 2.62389,-3.38575 3.5615,-4.11472 2.05299,-1.59618 4.84604,-1.76203 5.59667,-0.33233 0.93185,1.77485 -0.17889,2.58532 -3.54319,2.58532 -3.06837,0 -3.09675,0.0152 -5.14083,2.75261 -1.13049,1.51394 -2.05665,3.2353 -2.05815,3.82525 -0.003,1.20041 2.53004,9.95229 3.31655,11.45876 0.41908,0.8027 0.71273,0.86184 1.69914,0.34222 0.65587,-0.3455 1.75612,-1.27765 2.44498,-2.07145 l 1.25249,-1.44328 -0.98245,1.8454 c -1.30221,2.44605 -3.72665,4.48561 -5.33206,4.48561 -1.65091,0 -2.55265,-1.48322 -3.7653,-6.19338 -0.52618,-2.04381 -1.10291,-3.71386 -1.2816,-3.71121 -0.1787,0.003 -1.26051,1.48508 -2.40403,3.29429 -1.14352,1.80921 -2.91399,4.03666 -3.93437,4.94989 -2.07693,1.85883 -4.69766,2.21922 -5.50074,0.75644 z m 106.84202,0.0568 c -4.3224,-1.97903 -6.55231,-5.71238 -6.55231,-10.96994 0,-4.00007 0.88875,-6.51565 3.09735,-8.76696 1.9468,-1.98445 4.41058,-3.06997 7.22278,-3.18229 1.19306,-0.0476 2.16919,-0.26007 2.16919,-0.47204 0,-0.21198 -0.97079,-1.07118 -2.15732,-1.90934 -3.8752,-2.73745 -6.48394,-6.06587 -6.48394,-8.27268 0,-5.76092 8.26981,-6.62011 12.64972,-1.31423 0.7902,0.95726 1.29238,1.88761 1.11595,2.06745 -0.17642,0.17983 -0.9369,-0.47552 -1.68995,-1.45635 -1.75262,-2.28274 -3.91855,-3.41307 -6.54009,-3.41307 -2.43313,0 -3.37531,0.76895 -3.37531,2.75473 0,1.67684 2.09279,3.85206 6.5506,6.80859 3.90709,2.59129 7.81283,6.85896 9.19754,10.04986 1.59311,3.67113 1.5022,9.39804 -0.20279,12.77524 -1.81785,3.60072 -5.36462,5.77167 -9.79666,5.99644 -2.17236,0.11018 -3.96981,-0.12998 -5.20476,-0.69541 z m 8.29165,-1.01196 c 2.50663,-1.06759 3.5856,-3.67835 3.58891,-8.68403 0.005,-7.54713 -3.04235,-12.57882 -7.61808,-12.57882 -2.89714,0 -4.04932,0.71131 -5.34473,3.29961 -1.38827,2.77385 -1.48614,9.37621 -0.18962,12.79204 1.97271,5.19735 5.29025,6.99122 9.56352,5.1712 z m 24.21725,1.19848 c -0.35645,-0.36335 -0.6481,-1.30474 -0.6481,-2.09199 0,-1.81935 0.91557,-2.75261 2.7004,-2.75261 1.78483,0 2.70039,0.93326 2.70039,2.75261 0,0.78725 -0.29164,1.72864 -0.64809,2.09199 -0.83546,0.85161 -3.26914,0.85161 -4.1046,0 z m 156.51487,-7.0467 0,-7.70731 -7.56111,0 c -7.20105,0 -7.5611,-0.0524 -7.5611,-1.10105 0,-1.04861 0.36005,-1.10104 7.5611,-1.10104 l 7.56111,0 0,-7.43206 c 0,-7.06504 0.0534,-7.43206 1.08016,-7.43206 1.02681,0 1.08015,0.36702 1.08015,7.43206 l 0,7.43206 7.56111,0 c 7.20105,0 7.5611,0.0524 7.5611,1.10104 0,1.04862 -0.36005,1.10105 -7.5611,1.10105 l -7.56111,0 0,7.70731 c 0,7.34031 -0.0514,7.70732 -1.08015,7.70732 -1.02872,0 -1.08016,-0.36701 -1.08016,-7.70732 z m 32.94481,6.4695 c -6.13311,-3.34191 -7.59825,-15.18908 -2.5506,-20.6242 1.98478,-2.13713 4.60239,-3.47677 6.68282,-3.42014 1.53518,0.0418 1.53446,0.0434 -0.32186,0.72704 -3.56225,1.31188 -4.0804,2.74002 -4.0804,11.24661 0,6.20703 0.17041,7.84618 0.97112,9.34109 1.94699,3.63502 5.98257,3.68117 8.39525,0.096 1.23393,-1.83359 1.26988,-2.15946 0.9089,-8.2401 -0.2067,-3.48205 -0.3673,-6.80419 -0.35687,-7.38252 0.0457,-2.5381 3.88092,-2.5381 3.92668,0 0.0104,0.57833 -0.15017,3.90047 -0.35688,7.38252 -0.36097,6.08064 -0.32502,6.40651 0.90891,8.2401 2.41268,3.58515 6.44826,3.539 8.39525,-0.096 0.80073,-1.49496 0.97112,-3.13411 0.97112,-9.34238 0,-8.49697 -0.50105,-9.88362 -4.0804,-11.29243 l -1.86047,-0.73228 2.35909,0.23683 c 3.01218,0.30238 5.86583,2.56214 7.545,5.97474 1.64453,3.34219 1.74728,9.09508 0.2251,12.60273 -1.28764,2.96718 -4.37608,5.80078 -6.83495,6.27099 -3.8996,0.74572 -6.4708,-0.78713 -8.13642,-4.85063 -0.46373,-1.13132 -0.95003,-2.05694 -1.08067,-2.05694 -0.13063,0 -0.69968,1.05287 -1.26454,2.33972 -1.37583,3.13437 -2.84005,4.34643 -5.61757,4.65015 -1.75132,0.1915 -2.9108,-0.07 -4.74761,-1.0709 z m -271.11962,-9.49737 0,-1.37631 16.20237,0 16.20237,0 0,1.37631 0,1.37631 -16.20237,0 -16.20237,0 0,-1.37631 z m 0,-11.01045 0,-1.37631 16.20237,0 16.20237,0 0,1.37631 0,1.3763 -16.20237,0 -16.20237,0 0,-1.3763 z"
         id="path4244"
         inkscape:connector-curvature="0" />
    </g>
    <g
       id="g4212"
       transform="matrix(1.2533277,0,0,1.1770436,216.71886,311.69376)">
      <g
         id="g4214">
        <path
           id="path4216"
           d="m 488.8,487.8 0,-253.3 -86.5,88.6 0,-88.6 -86.5,88.6 0,-88.6 -91.7,94.9 -10.4,-212.6 -76.1,0 -10.4,216.8 -24,0 -10.4,-216.8 -75.1,0 -17.7,371.1 490,0 0,-0.1 -1.2,0 z M 470.1,467 21.9,467 37.6,137.6 l 36.5,0 10.4,216.8 65.7,0 10.4,-216.8 35.4,0 10.4,216.9 24,0 66.7,-68.8 0,68.8 19.8,0 66.7,-68.8 0,68.8 19.8,0 66.7,-68.8 0,181.3 z"
           inkscape:connector-curvature="0"
           style="fill:#04446a" />
        <rect
           id="rect4218"
           height="20.799999"
           y="375.29999"
           x="415.89999"
           width="33.400002"
           style="fill:#04446a" />
        <rect
           id="rect4220"
           height="20.799999"
           y="375.29999"
           x="328.39999"
           width="33.400002"
           style="fill:#04446a" />
        <rect
           id="rect4222"
           height="20.799999"
           y="375.29999"
           x="240.8"
           width="33.400002"
           style="fill:#04446a" />
        <polygon
           id="polygon4224"
           points="165.8,101.2 186.6,101.2 186.6,50.1 214.8,15.7 199.1,2.1 165.8,42.8 "
           style="fill:#04446a" />
        <polygon
           id="polygon4226"
           points="38.6,101.2 59.5,101.2 59.5,50.1 88.6,15.7 72,2.1 38.6,42.8 "
           style="fill:#04446a" />
      </g>
    </g>
    <text
       xml:space="preserve"
       style="font-style:normal;font-weight:normal;font-size:52.38248825px;line-height:125%;font-family:sans-serif;letter-spacing:0px;word-spacing:0px;fill:#04446a;fill-opacity:1;stroke:none;stroke-width:1px;stroke-linecap:butt;stroke-linejoin:miter;stroke-opacity:1"
       x="685.92908"
       y="398.23657"
       id="text4258"
       sodipodi:linespacing="125%"
       transform="scale(0.90295397,1.1074762)"><tspan
         sodipodi:role="line"
         id="tspan4260"
         x="685.92908"
         y="398.23657">MRP -&gt; ERP</tspan></text>
  </g>
</svg>
