<svg width="1370" height="655" xmlns="http://www.w3.org/2000/svg" xmlns:xlink="http://www.w3.org/1999/xlink">
 <metadata id="metadata7">image/svg xml</metadata>
 <g>
  <title>Layer 1</title>
  <g id="layer1">
   <image y="3.92859" x="1.28571" id="image3047" height="649" width="1366" xlink:href="http://www.erp5.com/P-CLOUDIA-Configuration.Questionnaire.HowTo.Assign.Students.Add.Comment.Screenshot?format=png"/>
   <rect id="rect3050" width="432.85715" height="111.42857" x="334.28571" y="316.42856" stroke-miterlimit="4" stroke-linejoin="round" stroke-linecap="round" stroke-width="5" stroke="#d40000" fill="none"/>
   <rect id="rect3052" width="132.85715" height="41.42857" x="5.71429" y="450.71429" stroke-miterlimit="4" stroke-linejoin="round" stroke-linecap="round" stroke-width="5" stroke="#0004d4" fill="none"/>
   <path id="path3054" d="m837.03595,456.42859c0,13.35355 -11.46484,24.17874 -25.60736,24.17874c-14.14252,0 -25.6073,-10.8252 -25.6073,-24.17874c0,-13.35355 11.46478,-24.17874 25.6073,-24.17874c14.14252,0 25.60736,10.8252 25.60736,24.17874z" stroke-miterlimit="4" stroke-linejoin="round" stroke-linecap="round" stroke-width="5" stroke="#d40000" fill="#fefaf8"/>
   <text xml:space="preserve" x="798.28571" y="469.28571" id="text3832" font-family="Sans" fill="#000000" font-weight="normal" font-style="normal" font-size="40px">
    <tspan id="tspan3834" x="798.28571" y="866.64789">1</tspan>
   </text>
   <path d="m202.75023,447.85718c0,13.35355 -11.46481,24.17874 -25.60733,24.17874c-14.14253,0 -25.60733,-10.8252 -25.60733,-24.17874c0,-13.35355 11.4648,-24.17874 25.60733,-24.17874c14.14252,0 25.60733,10.8252 25.60733,24.17874z" id="path3836" stroke-miterlimit="4" stroke-linejoin="round" stroke-linecap="round" stroke-width="5" stroke="#0003d4" fill="#fefaf8"/>
   <text xml:space="preserve" x="165.71428" y="460.7143" id="text3838" font-family="Sans" fill="#000000" font-weight="normal" font-style="normal" font-size="40px">
    <tspan id="tspan3840" x="165.71428" y="858.07648">2</tspan>
   </text>
  </g>
 </g>
</svg>