<?xml version="1.0" encoding="UTF-8" standalone="no"?>
<!-- Created with Inkscape (http://www.inkscape.org/) -->

<svg
   xmlns:dc="http://purl.org/dc/elements/1.1/"
   xmlns:cc="http://creativecommons.org/ns#"
   xmlns:rdf="http://www.w3.org/1999/02/22-rdf-syntax-ns#"
   xmlns:svg="http://www.w3.org/2000/svg"
   xmlns="http://www.w3.org/2000/svg"
   xmlns:xlink="http://www.w3.org/1999/xlink"
   xmlns:sodipodi="http://sodipodi.sourceforge.net/DTD/sodipodi-0.dtd"
   xmlns:inkscape="http://www.inkscape.org/namespaces/inkscape"
   width="1052.3622"
   height="744.09448"
   id="svg2"
   version="1.1"
   inkscape:version="0.48.2 r9819"
   sodipodi:docname="P-CLOUDIA-Category.Spreadsheet.HowTo.Region.svg">
  <defs
     id="defs4">
    <marker
       inkscape:stockid="Arrow1Lend"
       orient="auto"
       refY="0"
       refX="0"
       id="Arrow1Lend"
       style="overflow:visible">
      <path
         id="path4161"
         d="M 0,0 5,-5 -12.5,0 5,5 0,0 z"
         style="fill-rule:evenodd;stroke:#000000;stroke-width:1pt;marker-start:none"
         transform="matrix(-0.8,0,0,-0.8,-10,0)"
         inkscape:connector-curvature="0" />
    </marker>
    <marker
       inkscape:stockid="Arrow1Mstart"
       orient="auto"
       refY="0"
       refX="0"
       id="Arrow1Mstart"
       style="overflow:visible">
      <path
         id="path3940"
         d="M 0,0 5,-5 -12.5,0 5,5 0,0 z"
         style="fill-rule:evenodd;stroke:#000000;stroke-width:1pt;marker-start:none"
         transform="matrix(0.4,0,0,0.4,4,0)"
         inkscape:connector-curvature="0" />
    </marker>
    <marker
       inkscape:stockid="Arrow1Mend"
       orient="auto"
       refY="0"
       refX="0"
       id="Arrow1Mend"
       style="overflow:visible">
      <path
         id="path3943"
         d="M 0,0 5,-5 -12.5,0 5,5 0,0 z"
         style="fill-rule:evenodd;stroke:#000000;stroke-width:1pt;marker-start:none"
         transform="matrix(-0.4,0,0,-0.4,-4,0)"
         inkscape:connector-curvature="0" />
    </marker>
    <marker
       inkscape:stockid="Arrow1Mend"
       orient="auto"
       refY="0"
       refX="0"
       id="Arrow1Mend-1"
       style="overflow:visible">
      <path
         inkscape:connector-curvature="0"
         id="path3943-7"
         d="M 0,0 5,-5 -12.5,0 5,5 0,0 z"
         style="fill-rule:evenodd;stroke:#000000;stroke-width:1pt;marker-start:none"
         transform="matrix(-0.4,0,0,-0.4,-4,0)" />
    </marker>
    <marker
       inkscape:stockid="Arrow1Mend"
       orient="auto"
       refY="0"
       refX="0"
       id="Arrow1Mend-1-6"
       style="overflow:visible">
      <path
         inkscape:connector-curvature="0"
         id="path3943-7-7"
         d="M 0,0 5,-5 -12.5,0 5,5 0,0 z"
         style="fill-rule:evenodd;stroke:#000000;stroke-width:1pt;marker-start:none"
         transform="matrix(-0.4,0,0,-0.4,-4,0)" />
    </marker>
    <marker
       inkscape:stockid="Arrow1Mend"
       orient="auto"
       refY="0"
       refX="0"
       id="marker3088"
       style="overflow:visible">
      <path
         inkscape:connector-curvature="0"
         id="path3090"
         d="M 0,0 5,-5 -12.5,0 5,5 0,0 z"
         style="fill-rule:evenodd;stroke:#000000;stroke-width:1pt;marker-start:none"
         transform="matrix(-0.4,0,0,-0.4,-4,0)" />
    </marker>
    <marker
       inkscape:stockid="Arrow1Lend"
       orient="auto"
       refY="0"
       refX="0"
       id="Arrow1Lend-4"
       style="overflow:visible">
      <path
         inkscape:connector-curvature="0"
         id="path4161-2"
         d="M 0,0 5,-5 -12.5,0 5,5 0,0 z"
         style="fill-rule:evenodd;stroke:#000000;stroke-width:1pt;marker-start:none"
         transform="matrix(-0.8,0,0,-0.8,-10,0)" />
    </marker>
    <marker
       inkscape:stockid="Arrow1Mend"
       orient="auto"
       refY="0"
       refX="0"
       id="Arrow1Mend-1-0"
       style="overflow:visible">
      <path
         inkscape:connector-curvature="0"
         id="path3943-7-2"
         d="M 0,0 5,-5 -12.5,0 5,5 0,0 z"
         style="fill-rule:evenodd;stroke:#000000;stroke-width:1pt;marker-start:none"
         transform="matrix(-0.4,0,0,-0.4,-4,0)" />
    </marker>
    <marker
       inkscape:stockid="Arrow1Mend"
       orient="auto"
       refY="0"
       refX="0"
       id="marker3109"
       style="overflow:visible">
      <path
         inkscape:connector-curvature="0"
         id="path3111"
         d="M 0,0 5,-5 -12.5,0 5,5 0,0 z"
         style="fill-rule:evenodd;stroke:#000000;stroke-width:1pt;marker-start:none"
         transform="matrix(-0.4,0,0,-0.4,-4,0)" />
    </marker>
    <marker
       inkscape:stockid="Arrow1Mend"
       orient="auto"
       refY="0"
       refX="0"
       id="marker3113"
       style="overflow:visible">
      <path
         inkscape:connector-curvature="0"
         id="path3115"
         d="M 0,0 5,-5 -12.5,0 5,5 0,0 z"
         style="fill-rule:evenodd;stroke:#000000;stroke-width:1pt;marker-start:none"
         transform="matrix(-0.4,0,0,-0.4,-4,0)" />
    </marker>
    <marker
       inkscape:stockid="Arrow1Mend"
       orient="auto"
       refY="0"
       refX="0"
       id="Arrow1Mend-1-2"
       style="overflow:visible">
      <path
         inkscape:connector-curvature="0"
         id="path3943-7-8"
         d="M 0,0 5,-5 -12.5,0 5,5 0,0 z"
         style="fill-rule:evenodd;stroke:#000000;stroke-width:1pt;marker-start:none"
         transform="matrix(-0.4,0,0,-0.4,-4,0)" />
    </marker>
    <marker
       inkscape:stockid="Arrow1Mend"
       orient="auto"
       refY="0"
       refX="0"
       id="marker5006"
       style="overflow:visible">
      <path
         inkscape:connector-curvature="0"
         id="path5008"
         d="M 0,0 5,-5 -12.5,0 5,5 0,0 z"
         style="fill-rule:evenodd;stroke:#000000;stroke-width:1pt;marker-start:none"
         transform="matrix(-0.4,0,0,-0.4,-4,0)" />
    </marker>
    <marker
       inkscape:stockid="Arrow1Mend"
       orient="auto"
       refY="0"
       refX="0"
       id="marker5010"
       style="overflow:visible">
      <path
         inkscape:connector-curvature="0"
         id="path5012"
         d="M 0,0 5,-5 -12.5,0 5,5 0,0 z"
         style="fill-rule:evenodd;stroke:#000000;stroke-width:1pt;marker-start:none"
         transform="matrix(-0.4,0,0,-0.4,-4,0)" />
    </marker>
    <marker
       inkscape:stockid="Arrow1Lend"
       orient="auto"
       refY="0"
       refX="0"
       id="marker6090"
       style="overflow:visible">
      <path
         inkscape:connector-curvature="0"
         id="path6092"
         d="M 0,0 5,-5 -12.5,0 5,5 0,0 z"
         style="fill-rule:evenodd;stroke:#000000;stroke-width:1pt;marker-start:none"
         transform="matrix(-0.8,0,0,-0.8,-10,0)" />
    </marker>
    <marker
       inkscape:stockid="Arrow1Lend"
       orient="auto"
       refY="0"
       refX="0"
       id="marker6090-0"
       style="overflow:visible">
      <path
         inkscape:connector-curvature="0"
         id="path6092-7"
         d="M 0,0 5,-5 -12.5,0 5,5 0,0 z"
         style="fill-rule:evenodd;stroke:#000000;stroke-width:1pt;marker-start:none"
         transform="matrix(-0.8,0,0,-0.8,-10,0)" />
    </marker>
    <marker
       inkscape:stockid="Arrow1Send"
       orient="auto"
       refY="0"
       refX="0"
       id="Arrow1Send"
       style="overflow:visible">
      <path
         inkscape:connector-curvature="0"
         id="path4260"
         d="M 0,0 5,-5 -12.5,0 5,5 0,0 z"
         style="fill-rule:evenodd;stroke:#000000;stroke-width:1pt;marker-start:none"
         transform="matrix(-0.2,0,0,-0.2,-1.2,0)" />
    </marker>
    <marker
       inkscape:stockid="Arrow1Send"
       orient="auto"
       refY="0"
       refX="0"
       id="marker3130"
       style="overflow:visible">
      <path
         inkscape:connector-curvature="0"
         id="path3132"
         d="M 0,0 5,-5 -12.5,0 5,5 0,0 z"
         style="fill-rule:evenodd;stroke:#000000;stroke-width:1pt;marker-start:none"
         transform="matrix(-0.2,0,0,-0.2,-1.2,0)" />
    </marker>
    <marker
       inkscape:stockid="Arrow1Send"
       orient="auto"
       refY="0"
       refX="0"
       id="marker3134"
       style="overflow:visible">
      <path
         inkscape:connector-curvature="0"
         id="path3136"
         d="M 0,0 5,-5 -12.5,0 5,5 0,0 z"
         style="fill-rule:evenodd;stroke:#000000;stroke-width:1pt;marker-start:none"
         transform="matrix(-0.2,0,0,-0.2,-1.2,0)" />
    </marker>
    <marker
       inkscape:stockid="Arrow1Send"
       orient="auto"
       refY="0"
       refX="0"
       id="marker3138"
       style="overflow:visible">
      <path
         inkscape:connector-curvature="0"
         id="path3140"
         d="M 0,0 5,-5 -12.5,0 5,5 0,0 z"
         style="fill-rule:evenodd;stroke:#000000;stroke-width:1pt;marker-start:none"
         transform="matrix(-0.2,0,0,-0.2,-1.2,0)" />
    </marker>
    <marker
       inkscape:stockid="Arrow1Send"
       orient="auto"
       refY="0"
       refX="0"
       id="marker3142"
       style="overflow:visible">
      <path
         inkscape:connector-curvature="0"
         id="path3144"
         d="M 0,0 5,-5 -12.5,0 5,5 0,0 z"
         style="fill-rule:evenodd;stroke:#000000;stroke-width:1pt;marker-start:none"
         transform="matrix(-0.2,0,0,-0.2,-1.2,0)" />
    </marker>
    <marker
       inkscape:stockid="Arrow1Send"
       orient="auto"
       refY="0"
       refX="0"
       id="marker3146"
       style="overflow:visible">
      <path
         inkscape:connector-curvature="0"
         id="path3148"
         d="M 0,0 5,-5 -12.5,0 5,5 0,0 z"
         style="fill-rule:evenodd;stroke:#000000;stroke-width:1pt;marker-start:none"
         transform="matrix(-0.2,0,0,-0.2,-1.2,0)" />
    </marker>
    <marker
       inkscape:stockid="Arrow1Send"
       orient="auto"
       refY="0"
       refX="0"
       id="marker3150"
       style="overflow:visible">
      <path
         inkscape:connector-curvature="0"
         id="path3152"
         d="M 0,0 5,-5 -12.5,0 5,5 0,0 z"
         style="fill-rule:evenodd;stroke:#000000;stroke-width:1pt;marker-start:none"
         transform="matrix(-0.2,0,0,-0.2,-1.2,0)" />
    </marker>
    <marker
       inkscape:stockid="Arrow1Send"
       orient="auto"
       refY="0"
       refX="0"
       id="marker3154"
       style="overflow:visible">
      <path
         inkscape:connector-curvature="0"
         id="path3156"
         d="M 0,0 5,-5 -12.5,0 5,5 0,0 z"
         style="fill-rule:evenodd;stroke:#000000;stroke-width:1pt;marker-start:none"
         transform="matrix(-0.2,0,0,-0.2,-1.2,0)" />
    </marker>
  </defs>
  <sodipodi:namedview
     id="base"
     pagecolor="#ffffff"
     bordercolor="#666666"
     borderopacity="1.0"
     inkscape:pageopacity="0.0"
     inkscape:pageshadow="2"
     inkscape:zoom="0.68539683"
     inkscape:cx="605.14099"
     inkscape:cy="340.19431"
     inkscape:document-units="px"
     inkscape:current-layer="layer1"
     showgrid="false"
     inkscape:window-width="1024"
     inkscape:window-height="718"
     inkscape:window-x="-3"
     inkscape:window-y="-3"
     inkscape:window-maximized="1"
     showguides="true"
     inkscape:guide-bbox="true" />
  <metadata
     id="metadata7">
    <rdf:RDF>
      <cc:Work
         rdf:about="">
        <dc:format>image/svg+xml</dc:format>
        <dc:type
           rdf:resource="http://purl.org/dc/dcmitype/StillImage" />
        <dc:title></dc:title>
      </cc:Work>
    </rdf:RDF>
  </metadata>
  <g
     inkscape:label="Calque 1"
     inkscape:groupmode="layer"
     id="layer1"
     transform="translate(0,-308.26769)">
    <rect
       style="fill:#ffffff;fill-opacity:1;stroke:#000000;stroke-width:1.68232703;stroke-linecap:butt;stroke-linejoin:round;stroke-miterlimit:4;stroke-opacity:1;stroke-dasharray:none;stroke-dashoffset:0"
       id="rect4605"
       width="1038.4917"
       height="736.13629"
       x="6.7771783"
       y="312.34732"
       rx="4.366838"
       ry="0.32659319" />
    <text
       xml:space="preserve"
       style="font-size:23.87884521px;font-style:normal;font-weight:normal;line-height:125%;letter-spacing:0px;word-spacing:0px;fill:#000000;fill-opacity:1;stroke:none;font-family:Sans"
       x="183.07106"
       y="980.37866"
       id="text4762"
       sodipodi:linespacing="125%"
       transform="scale(1.0283645,0.9724179)"><tspan
         sodipodi:role="line"
         id="tspan4764"
         x="183.07106"
         y="980.37866" /></text>
    <rect
       style="fill:#ffffff;fill-opacity:1;stroke:#000000;stroke-width:0.97824967;stroke-linecap:butt;stroke-linejoin:round;stroke-miterlimit:4;stroke-opacity:0.98431373;stroke-dasharray:none;stroke-dashoffset:0"
       id="rect7288"
       width="238.07803"
       height="187.59531"
       x="129.59395"
       y="666.29901"
       rx="0.7760523"
       ry="0.18118514" />
    <text
       xml:space="preserve"
       style="font-size:27.59499931px;font-style:normal;font-weight:bold;line-height:125%;letter-spacing:0px;word-spacing:0px;fill:#000000;fill-opacity:1;stroke:none;font-family:Sans;-inkscape-font-specification:Sans Bold"
       x="33.393234"
       y="485.46362"
       id="text3159"
       sodipodi:linespacing="125%"><tspan
         sodipodi:role="line"
         x="33.393234"
         y="485.46362"
         id="tspan5899">Defines the regions from your organization's point of view.</tspan></text>
    <text
       xml:space="preserve"
       style="font-size:18.95400047px;font-style:normal;font-weight:normal;line-height:125%;letter-spacing:0px;word-spacing:0px;fill:#000000;fill-opacity:1;stroke:none;font-family:Sans"
       x="-112.34368"
       y="433.32562"
       id="text3175"
       sodipodi:linespacing="125%"
       transform="translate(0,308.26769)"><tspan
         sodipodi:role="line"
         id="tspan3177"></tspan></text>
    <image
       y="376.09515"
       x="7.0472412"
       id="image6034"
       xlink:href="http://www.erp5.com/P-CLOUDIA-Category.Spreadsheet.HowTo.Region.Screenshot?format=png"
       height="24.836035"
       width="1037.8508" />
    <rect
       style="fill:none;stroke:#000000;stroke-width:5.72450495;stroke-miterlimit:4;stroke-opacity:1;stroke-dasharray:none"
       id="rect4731-49"
       width="102.11678"
       height="31.851765"
       x="352.18976"
       y="373.06958"
       rx="2.9847701"
       ry="0.25310013" />
    <text
       xml:space="preserve"
       style="font-size:18.95400047px;font-style:normal;font-weight:normal;text-align:start;line-height:125%;letter-spacing:0px;word-spacing:0px;text-anchor:start;fill:#000000;fill-opacity:1;stroke:none;font-family:Sans"
       x="140.26654"
       y="694.4787"
       id="text3163-2-1"
       sodipodi:linespacing="125%"><tspan
         sodipodi:role="line"
         x="140.26654"
         y="694.4787"
         id="tspan5924">Hierarchy with the five </tspan><tspan
         sodipodi:role="line"
         x="140.26654"
         y="718.1712"
         id="tspan6060">main groups:</tspan><tspan
         sodipodi:role="line"
         x="140.26654"
         y="741.86371"
         id="tspan6062">     Africa </tspan><tspan
         sodipodi:role="line"
         x="140.26654"
         y="765.55621"
         id="tspan6064">     Americas</tspan><tspan
         sodipodi:role="line"
         x="140.26654"
         y="789.24872"
         id="tspan6066">     Asia</tspan><tspan
         sodipodi:role="line"
         x="140.26654"
         y="812.94122"
         id="tspan6068">     Europe</tspan><tspan
         sodipodi:role="line"
         x="140.26654"
         y="836.63373"
         id="tspan6070">     Oceania</tspan></text>
    <text
       xml:space="preserve"
       style="font-size:27.59499931px;font-style:normal;font-weight:bold;line-height:125%;letter-spacing:0px;word-spacing:0px;fill:#000000;fill-opacity:1;stroke:none;font-family:Sans;-inkscape-font-specification:Sans Bold"
       x="95.606293"
       y="633.62665"
       id="text5905"
       sodipodi:linespacing="125%"><tspan
         sodipodi:role="line"
         id="tspan5907"
         x="95.606293"
         y="633.62665">Standard:</tspan></text>
    <text
       xml:space="preserve"
       style="font-size:27.59499931px;font-style:normal;font-weight:normal;line-height:125%;letter-spacing:0px;word-spacing:0px;fill:#000000;fill-opacity:1;stroke:none;font-family:Sans"
       x="423.11252"
       y="697.82306"
       id="text6072"
       sodipodi:linespacing="125%"><tspan
         sodipodi:role="line"
         id="tspan6074"
         x="423.11252"
         y="697.82306"
         style="font-weight:bold;-inkscape-font-specification:Sans Bold">Are all continents / countries / states </tspan><tspan
         sodipodi:role="line"
         x="423.11252"
         y="732.31683"
         id="tspan6076"
         style="font-weight:bold;-inkscape-font-specification:Sans Bold">needed in your case?</tspan><tspan
         sodipodi:role="line"
         x="423.11252"
         y="766.81055"
         id="tspan6078"
         style="font-weight:bold;-inkscape-font-specification:Sans Bold" /><tspan
         sodipodi:role="line"
         x="423.11252"
         y="801.30432"
         id="tspan6080"
         style="font-weight:bold;-inkscape-font-specification:Sans Bold;fill:#d40000">Fill only the areas / countries your </tspan><tspan
         sodipodi:role="line"
         x="423.11252"
         y="835.79803"
         id="tspan6082"
         style="font-weight:bold;-inkscape-font-specification:Sans Bold;fill:#d40000">organization interacts with.</tspan></text>
  </g>
</svg>
