<svg width="1370" height="660" xmlns="http://www.w3.org/2000/svg" xmlns:xlink="http://www.w3.org/1999/xlink">
 <metadata id="metadata7">image/svg xml</metadata>
 <g>
  <title>Layer 1</title>
  <g id="layer1">
   <image xlink:href="http://www.erp5.com/P-CLOUDIA-Configuration.Questionnaire.HowTo.Assign.Students.FastInput.Action.Screenshot?format=png" width="1366" height="656" id="image3063" x="0.42857" y="2.85715"/>
   <rect fill="none" stroke="#d40000" stroke-width="5.34185" stroke-linecap="round" stroke-linejoin="round" stroke-miterlimit="4" y="540.1709" x="4.74235" height="22.51529" width="1329.6582" id="rect3066"/>
   <rect fill="none" stroke="#0400d4" stroke-width="5.77965" stroke-linecap="round" stroke-linejoin="round" stroke-miterlimit="4" y="591.81842" x="66.67554" height="39.22035" width="294.93466" id="rect3836"/>
   <path fill="#f9ffff" stroke="#d40000" stroke-width="5" stroke-linecap="round" stroke-linejoin="round" stroke-miterlimit="4" d="m1234.28564,594.28571c0,11.83466 -9.9137,21.42859 -22.14294,21.42859c-12.229,0 -22.1427,-9.59393 -22.1427,-21.42859c0,-11.83466 9.9137,-21.42859 22.1427,-21.42859c12.22925,0 22.14294,9.59393 22.14294,21.42859z" id="path3838"/>
   <text font-size="34.36009979px" font-style="normal" font-weight="normal" fill="#000000" font-family="Sans" transform="translate(0, -392.362) scale(1.06836, 0.936013)" id="text3840" y="1066.611" x="1125.1589" xml:space="preserve">
    <tspan y="1066.611" x="1125.1589" id="tspan3842">1</tspan>
   </text>
   <path fill="#f9ffff" stroke="#000fd4" stroke-width="5" stroke-linecap="round" stroke-linejoin="round" stroke-miterlimit="4" id="path3844" d="m421.42853,615.71423c0,11.83472 -9.9137,21.42859 -22.14294,21.42859c-12.229,0 -22.1427,-9.59387 -22.1427,-21.42859c0,-11.83459 9.9137,-21.42859 22.1427,-21.42859c12.22925,0 22.14294,9.59399 22.14294,21.42859z"/>
   <text font-size="34.53033066px" font-style="normal" font-weight="normal" fill="#000000" font-family="Sans" transform="translate(0, -392.362) scale(1.06903, 0.935431)" id="text3846" y="1090.1823" x="362.62427" xml:space="preserve">
    <tspan y="1090.1823" x="362.62427" id="tspan3848">2</tspan>
   </text>
  </g>
 </g>
</svg>