<?xml version="1.0" encoding="UTF-8" standalone="no"?>
<!-- Created with Inkscape (http://www.inkscape.org/) -->

<svg
   xmlns:dc="http://purl.org/dc/elements/1.1/"
   xmlns:cc="http://creativecommons.org/ns#"
   xmlns:rdf="http://www.w3.org/1999/02/22-rdf-syntax-ns#"
   xmlns:svg="http://www.w3.org/2000/svg"
   xmlns="http://www.w3.org/2000/svg"
   xmlns:xlink="http://www.w3.org/1999/xlink"
   xmlns:sodipodi="http://sodipodi.sourceforge.net/DTD/sodipodi-0.dtd"
   xmlns:inkscape="http://www.inkscape.org/namespaces/inkscape"
   width="1295"
   height="580"
   id="svg2"
   version="1.1"
   inkscape:version="0.91 r13725"
   sodipodi:docname="P-OSOE-ERP5.Pre.Trade.Opportuniti.007.en.svg">
  <defs
     id="defs4">
    <marker
       inkscape:stockid="Arrow1Mend"
       orient="auto"
       refY="0"
       refX="0"
       id="Arrow1Mend"
       style="overflow:visible">
      <path
         id="path3776"
         d="M 0,0 5,-5 -12.5,0 5,5 0,0 z"
         style="fill-rule:evenodd;stroke:#000000;stroke-width:1pt;marker-start:none"
         transform="matrix(-0.4,0,0,-0.4,-4,0)"
         inkscape:connector-curvature="0" />
    </marker>
    <marker
       inkscape:stockid="Arrow2Mend"
       orient="auto"
       refY="0"
       refX="0"
       id="Arrow2Mend"
       style="overflow:visible">
      <path
         id="path4056"
         style="font-size:12px;fill-rule:evenodd;stroke-width:0.625;stroke-linejoin:round"
         d="M 8.7185878,4.0337352 -2.2072895,0.01601326 8.7185884,-4.0017078 c -1.7454984,2.3720609 -1.7354408,5.6174519 -6e-7,8.035443 z"
         transform="scale(-0.6,-0.6)"
         inkscape:connector-curvature="0" />
    </marker>
    <pattern
       y="0"
       x="0"
       height="6"
       width="6"
       patternUnits="userSpaceOnUse"
       id="EMFhbasepattern" />
  </defs>
  <sodipodi:namedview
     id="base"
     pagecolor="#ffffff"
     bordercolor="#666666"
     borderopacity="1.0"
     inkscape:pageopacity="0"
     inkscape:pageshadow="2"
     inkscape:zoom="0.68539683"
     inkscape:cx="292.73968"
     inkscape:cy="372.04724"
     inkscape:document-units="px"
     inkscape:current-layer="layer1"
     showgrid="false"
     inkscape:window-width="1366"
     inkscape:window-height="705"
     inkscape:window-x="-8"
     inkscape:window-y="-8"
     inkscape:window-maximized="1"
     width="600px">
    <inkscape:grid
       type="xygrid"
       id="grid3755"
       empspacing="5"
       visible="true"
       enabled="true"
       snapvisiblegridlinesonly="true"
       spacingx="50px"
       spacingy="50px" />
  </sodipodi:namedview>
  <metadata
     id="metadata7">
    <rdf:RDF>
      <cc:Work
         rdf:about="">
        <dc:format>image/svg+xml</dc:format>
        <dc:type
           rdf:resource="http://purl.org/dc/dcmitype/StillImage" />
        <dc:title />
      </cc:Work>
    </rdf:RDF>
  </metadata>
  <g
     inkscape:label="Calque 1"
     inkscape:groupmode="layer"
     id="layer1"
     transform="translate(0,-472.36223)">
    <image
       y="835.27258"
       x="-1.2410918"
       id="image3069"
       xlink:href="http://www.erp5.com/P-OSOE-Pre.Trade.Sale.Opportunities?format=png"
       height="219"
       width="1297" />
    <path
       style="fill:#03436a;fill-opacity:1;stroke:none;stroke-width:1.10342515px;stroke-linecap:butt;stroke-linejoin:miter;stroke-opacity:1"
       d="m 568.68097,494.71013 166.56188,0 53.42553,129.01203 -53.42553,126.68749 -165.51432,0 z"
       id="path3822"
       inkscape:connector-curvature="0" />
    <path
       style="fill:none;stroke:#03436a;stroke-width:5;stroke-linecap:butt;stroke-linejoin:round;stroke-miterlimit:4;stroke-opacity:1;stroke-dasharray:none;marker-end:url(#Arrow2Mend)"
       d="m 407.02468,835.36822 0,-147.85703 155.30228,0"
       id="path3056"
       inkscape:connector-curvature="0" />
    <path
       inkscape:connector-curvature="0"
       id="path4162"
       d="m 706.80072,577.91731 c 0,-0.62783 0.48144,-1.12112 1.10728,-1.12112 0.57772,0 1.05916,0.49329 1.05916,1.12112 0,0.58299 -0.48144,1.07628 -1.05916,1.07628 -0.62584,0 -1.10728,-0.49329 -1.10728,-1.07628 z m -76.40225,1.5696 c 0.57772,0 1.05914,-0.49332 1.05914,-1.07628 0,-0.62786 -0.48142,-1.12115 -1.05914,-1.12115 -0.62586,0 -1.1073,0.49329 -1.1073,1.12115 0,0.58296 0.48144,1.07628 1.1073,1.07628 z m 107.5027,20.98749 c 0,0.44844 -0.19265,0.8969 -0.52959,1.21082 l -6.74002,6.90613 c -0.28886,0.31393 -0.72215,0.49331 -1.15543,0.49331 -0.0962,0 -0.19266,0 -0.28887,0 0.38513,0.53815 0.43329,1.25566 0.0962,1.8835 l -12.56535,20.58331 c -0.77029,1.39018 -2.21458,4.03606 -2.88858,4.75356 l -29.27035,29.91168 c -1.34803,1.39021 -3.08117,2.19742 -4.76617,2.19742 -1.34801,0 -2.59973,-0.49331 -3.4663,-1.43507 l -0.43329,-0.40359 -0.0482,0 c -1.685,1.79381 -4.62173,2.06288 -6.93259,0.80721 -2.31087,1.25567 -5.24761,0.9866 -6.98075,-0.80721 l 0,0 -0.4333,0.40359 c -0.86658,0.94176 -2.11829,1.43507 -3.4663,1.43507 -1.685,0 -3.4663,-0.80721 -4.8143,-2.19742 L 623.9954,636.30503 c -0.72216,-0.7175 -2.16645,-3.36338 -2.93675,-4.84327 l -12.51713,-20.4936 c -0.33694,-0.62784 -0.28881,-1.34535 0.0962,-1.92835 -0.0962,0.0449 -0.24073,0.0449 -0.337,0.0449 -0.43322,0 -0.86651,-0.17945 -1.20353,-0.49329 l -6.69186,-6.86131 c -0.67402,-0.67267 -0.67402,-1.7938 0,-2.46649 l 29.12637,-29.82199 c 0.674,-0.67268 1.73316,-0.67268 2.40716,0 l 6.73984,6.90615 c 0.28885,0.31392 0.48142,0.76236 0.48142,1.21082 0,0.44846 -0.19266,0.89689 -0.48142,1.21082 l -3.46631,3.49791 c 0.0962,0 0.14444,0 0.24071,0 0.48144,0 0.91473,0.17945 1.20359,0.49329 l 6.06604,6.23347 c 0.14442,0 0.28885,0.0449 0.43328,0.0449 0.43329,0.045 0.9147,0.0896 1.20356,0.0896 0.0482,0 0.0962,0 0.14442,0 l 0.24074,0 c 0.57771,0 1.15543,0.0449 1.685,0.0896 l 3.70701,0.49329 c 0.19265,0 0.38515,0.0449 0.57773,0.0449 0.0962,0 0.19263,0.0449 0.33699,0.0896 l 17.86108,2.33195 17.90924,-2.33195 c 0.0962,-0.0449 0.19265,-0.0896 0.28886,-0.0896 0.19265,0 0.38516,-0.0449 0.57771,-0.0449 l 3.70704,-0.49329 c 0.52956,-0.0896 1.10729,-0.0896 1.68499,-0.0896 l 0.24071,0 c 0.0483,0 0.0962,0 0.14444,0 0.28886,0 0.72215,-0.0449 1.20359,-0.0896 0.14442,-0.0449 0.28884,-0.0449 0.43328,-0.0449 l 6.06538,-6.23347 c 0.28887,-0.31389 0.72215,-0.49329 1.20359,-0.49329 0.0482,0 0.0962,0 0.19265,0 l -3.41754,-3.49791 c -0.33699,-0.31393 -0.52956,-0.76236 -0.52956,-1.21082 0,-0.44846 0.19264,-0.8969 0.52956,-1.21082 l 6.69127,-6.90615 c 0.67399,-0.67268 1.73315,-0.67268 2.40715,0 l 29.12658,29.82199 c 0.33699,0.31391 0.52957,0.76237 0.52957,1.21083 z m -32.40031,-22.55709 c 0,1.34536 1.05916,2.42164 2.40714,2.42164 1.29987,0 2.35902,-1.07628 2.35902,-2.42164 0,-1.34535 -1.05915,-2.42163 -2.35902,-2.42163 -1.34798,0 -2.40714,1.07628 -2.40714,2.42163 z m -77.55768,0.44846 c 0,1.34536 1.05913,2.42163 2.40714,2.42163 1.29987,0 2.35901,-1.07627 2.35901,-2.42163 0,-1.34536 -1.05914,-2.42163 -2.35901,-2.42163 -1.34801,0 -2.40714,1.07627 -2.40714,2.42163 z m 52.57205,84.75663 c -0.28885,-0.13453 -0.57772,-0.31392 -0.81842,-0.49328 -0.0482,0.0449 -0.0482,0.0449 -0.0482,0.0896 l 0.43329,0.44844 c 0,0 0.19264,0.0449 0.43328,-0.0449 z M 670.3089,634.91485 c 0.38514,-0.62785 0.72216,-1.21082 1.011,-1.83867 0.24072,-0.49329 0.72215,-0.8072 1.25171,-0.89688 0.52958,-0.0896 1.05917,0.0896 1.4443,0.49327 l 12.03579,12.28757 c 0.38513,0.40361 1.05912,0.40361 1.44429,0 l 4.04401,-4.12575 c 0.4333,-0.44846 0.4333,-1.12112 0,-1.52473 l -24.84183,-25.42657 c -3.17744,0.13453 -7.31777,0.31392 -7.84733,0.35875 -3.51445,0.40361 -6.64375,-2.37679 -7.12519,-6.14378 l -0.81843,-6.45768 c -0.28885,-2.2871 0.43329,-4.39482 1.78131,-5.87471 l -6.54746,-0.85206 c -0.57772,-0.0449 -1.29987,-0.13453 -2.07018,-0.17946 -0.77026,-0.0896 -1.54056,-0.17944 -2.26271,-0.22421 l -0.72215,-0.0449 c -0.43328,0 -0.81842,-0.17946 -1.10728,-0.49332 l -4.52546,-4.70873 -20.89377,21.3911 c 5.0068,8.69996 12.08379,20.89723 12.95036,22.19773 l 29.17452,29.86683 c 0.48144,0.44846 1.011,0.44846 1.05915,0.40361 l 3.1293,-3.184 c 0.0482,-0.0449 0.0482,-0.17944 0,-0.4036 l -7.12519,-7.26491 c -0.48142,-0.49329 -0.62584,-1.25566 -0.38513,-1.92833 0.28885,-0.62783 0.91472,-1.03144 1.58871,-1.03144 l 0.38515,0 c 0.57771,0 1.15543,0 1.73314,-0.0896 0.52959,-0.0449 1.01101,0.13452 1.34801,0.49327 l 12.46907,12.73603 c 0.0962,0.0896 0.14445,0.13453 0.24071,0.17945 0.19266,0.13453 0.4333,0.22423 0.62588,0.22423 0.24071,0 0.28885,-0.0896 0.33697,-0.13454 l 3.51446,-3.58761 c 0.0962,-0.0896 0.14444,-0.17944 0.14444,-0.31392 l -10.20633,-10.40407 c -0.33701,-0.35875 -0.48144,-0.85204 -0.48144,-1.34534 0.0482,-0.49329 0.28886,-0.98658 0.67399,-1.25565 0.43329,-0.31393 0.86658,-0.67268 1.25174,-1.03145 0.28886,-0.22423 0.67399,-0.40361 1.05912,-0.40361 0.72216,0.0449 1.05916,0.26907 2.02203,1.25567 0.33699,0.35875 0.77029,0.76236 1.25172,1.25568 1.78129,1.79378 4.38102,4.48449 6.5956,6.81644 l 4.2366,4.34998 c 0.2407,0.26907 0.57772,0.40361 0.86658,0.40361 0.0962,0 0.28885,-0.0449 0.38513,-0.13454 l 3.51446,-3.58762 c 0.2407,-0.26907 0.19265,-0.85204 -0.24074,-1.25565 L 670.59777,637.0226 c -0.57773,-0.583 -0.67402,-1.43503 -0.28887,-2.1077 z m 52.95676,-24.26061 -20.89409,-21.39112 -4.52482,4.70874 c -0.28887,0.31393 -0.674,0.49329 -1.1073,0.49329 l -0.72214,0.0449 c -0.72214,0.0449 -1.49244,0.13453 -2.26273,0.22424 -0.77028,0.0449 -1.49243,0.13454 -2.16645,0.17945 l -34.5186,4.52936 c -0.28886,0.0449 -0.48141,0.22421 -0.57771,0.35875 -0.24071,0.31391 -0.33699,0.71752 -0.28886,1.12113 l 0.81844,6.4577 c 0.0962,0.67266 0.57772,1.21081 1.1073,1.21081 0.0482,0 0.19263,0 0.19263,0 l 14.44294,-0.67268 c 0.72215,0 1.39614,0.44845 1.63688,1.16597 0.28885,0.67267 0.0482,1.47989 -0.48144,1.92835 -0.0962,0.0449 -0.19266,0.17944 -0.28887,0.22422 -0.19264,0.22423 -0.43328,0.44845 -0.67399,0.71752 l 20.07567,20.58331 c 4.81429,4.3948 5.53644,7.84787 2.4553,11.97363 -0.0962,0.0449 -0.0962,0.0896 -0.19265,0.13453 l -4.04401,4.1706 c -0.19266,0.22422 -0.38518,0.44844 -0.57773,0.62783 -0.19264,0.17945 -0.337,0.35875 -0.52958,0.53814 l 1.011,1.12113 c 0.24073,0.22423 0.43328,0.44844 0.62587,0.67269 l 18.4863,-18.92465 c 0.91472,-1.3005 7.99177,-13.49777 12.99864,-22.19771 z"
       style="fill:#b4cd3b;fill-opacity:1;fill-rule:nonzero;stroke:none" />
  </g>
</svg>
