<?xml version="1.0" encoding="UTF-8" standalone="no"?>
<!-- Created with Inkscape (http://www.inkscape.org/) -->

<svg
   xmlns:dc="http://purl.org/dc/elements/1.1/"
   xmlns:cc="http://creativecommons.org/ns#"
   xmlns:rdf="http://www.w3.org/1999/02/22-rdf-syntax-ns#"
   xmlns:svg="http://www.w3.org/2000/svg"
   xmlns="http://www.w3.org/2000/svg"
   xmlns:xlink="http://www.w3.org/1999/xlink"
   xmlns:sodipodi="http://sodipodi.sourceforge.net/DTD/sodipodi-0.dtd"
   xmlns:inkscape="http://www.inkscape.org/namespaces/inkscape"
   width="990"
   height="765"
   id="svg2"
   version="1.1"
   inkscape:version="0.48.3.1 r9886"
   sodipodi:docname="P-OSOE-A.Bayer.Goods.And.Services-001-en.svg">
  <defs
     id="defs4">
    <marker
       inkscape:stockid="Arrow1Lend"
       orient="auto"
       refY="0"
       refX="0"
       id="Arrow1Lend"
       style="overflow:visible">
      <path
         id="path4267"
         d="M 0,0 5,-5 -12.5,0 5,5 0,0 z"
         style="fill-rule:evenodd;stroke:#000000;stroke-width:1pt;marker-start:none"
         transform="matrix(-0.8,0,0,-0.8,-10,0)"
         inkscape:connector-curvature="0" />
    </marker>
    <marker
       inkscape:stockid="Arrow1Lend"
       orient="auto"
       refY="0"
       refX="0"
       id="Arrow1Lend-2"
       style="overflow:visible">
      <path
         inkscape:connector-curvature="0"
         id="path4267-0"
         d="M 0,0 5,-5 -12.5,0 5,5 0,0 z"
         style="fill-rule:evenodd;stroke:#000000;stroke-width:1pt;marker-start:none"
         transform="matrix(-0.8,0,0,-0.8,-10,0)" />
    </marker>
    <marker
       inkscape:stockid="Arrow1Lend"
       orient="auto"
       refY="0"
       refX="0"
       id="Arrow1Lend-8"
       style="overflow:visible">
      <path
         inkscape:connector-curvature="0"
         id="path4267-4"
         d="M 0,0 5,-5 -12.5,0 5,5 0,0 z"
         style="fill-rule:evenodd;stroke:#000000;stroke-width:1pt;marker-start:none"
         transform="matrix(-0.8,0,0,-0.8,-10,0)" />
    </marker>
    <marker
       inkscape:stockid="Arrow1Lend"
       orient="auto"
       refY="0"
       refX="0"
       id="Arrow1Lend-2-5"
       style="overflow:visible">
      <path
         inkscape:connector-curvature="0"
         id="path4267-0-0"
         d="M 0,0 5,-5 -12.5,0 5,5 0,0 z"
         style="fill-rule:evenodd;stroke:#000000;stroke-width:1pt;marker-start:none"
         transform="matrix(-0.8,0,0,-0.8,-10,0)" />
    </marker>
    <marker
       inkscape:stockid="Arrow1Lend"
       orient="auto"
       refY="0"
       refX="0"
       id="marker3027"
       style="overflow:visible">
      <path
         inkscape:connector-curvature="0"
         id="path3029"
         d="M 0,0 5,-5 -12.5,0 5,5 0,0 z"
         style="fill-rule:evenodd;stroke:#000000;stroke-width:1pt;marker-start:none"
         transform="matrix(-0.8,0,0,-0.8,-10,0)" />
    </marker>
    <marker
       inkscape:stockid="Arrow1Lend"
       orient="auto"
       refY="0"
       refX="0"
       id="marker3031"
       style="overflow:visible">
      <path
         inkscape:connector-curvature="0"
         id="path3033"
         d="M 0,0 5,-5 -12.5,0 5,5 0,0 z"
         style="fill-rule:evenodd;stroke:#000000;stroke-width:1pt;marker-start:none"
         transform="matrix(-0.8,0,0,-0.8,-10,0)" />
    </marker>
    <marker
       inkscape:stockid="Arrow1Lend"
       orient="auto"
       refY="0"
       refX="0"
       id="marker3035"
       style="overflow:visible">
      <path
         inkscape:connector-curvature="0"
         id="path3037"
         d="M 0,0 5,-5 -12.5,0 5,5 0,0 z"
         style="fill-rule:evenodd;stroke:#000000;stroke-width:1pt;marker-start:none"
         transform="matrix(-0.8,0,0,-0.8,-10,0)" />
    </marker>
  </defs>
  <sodipodi:namedview
     id="base"
     pagecolor="#ffffff"
     bordercolor="#666666"
     borderopacity="1.0"
     inkscape:pageopacity="1"
     inkscape:pageshadow="2"
     inkscape:zoom="0.5"
     inkscape:cx="659.29932"
     inkscape:cy="467.12107"
     inkscape:document-units="px"
     inkscape:current-layer="layer1"
     showgrid="false"
     inkscape:window-width="1366"
     inkscape:window-height="721"
     inkscape:window-x="-2"
     inkscape:window-y="-3"
     inkscape:window-maximized="1" />
  <metadata
     id="metadata7">
    <rdf:RDF>
      <cc:Work
         rdf:about="">
        <dc:format>image/svg+xml</dc:format>
        <dc:type
           rdf:resource="http://purl.org/dc/dcmitype/StillImage" />
        <dc:title></dc:title>
      </cc:Work>
    </rdf:RDF>
  </metadata>
  <g
     inkscape:label="Calque 1"
     inkscape:groupmode="layer"
     id="layer1"
     transform="translate(0,-287.36218)">
    <rect
       style="fill:#ffffff;fill-opacity:1;stroke:#ffffff;stroke-width:5.96893501;stroke-linecap:butt;stroke-linejoin:round;stroke-miterlimit:4;stroke-opacity:1;stroke-dasharray:none"
       id="rect3066"
       width="984.38965"
       height="525.00781"
       x="0.10490049"
       y="407.24951" />
    <path
       sodipodi:type="arc"
       style="fill:#2dc5df;fill-opacity:1;stroke:#000000;stroke-width:1.07118368;stroke-linecap:butt;stroke-linejoin:round;stroke-miterlimit:4;stroke-opacity:1;stroke-dasharray:none"
       id="path2985"
       sodipodi:cx="523.32373"
       sodipodi:cy="91.858238"
       sodipodi:rx="26.484674"
       sodipodi:ry="25.478928"
       d="m 549.8084,91.858238 a 26.484674,25.478928 0 1 1 -52.96934,0 26.484674,25.478928 0 1 1 52.96934,0 z"
       transform="matrix(1.5161274,0,0,1.5428275,54.834985,474.49974)" />
    <path
       sodipodi:type="arc"
       style="fill:#2dc5df;fill-opacity:1;stroke:#000000;stroke-width:1.98100924;stroke-linecap:butt;stroke-linejoin:round;stroke-miterlimit:4;stroke-opacity:1;stroke-dasharray:none"
       id="path2985-8"
       sodipodi:cx="523.32373"
       sodipodi:cy="91.858238"
       sodipodi:rx="26.484674"
       sodipodi:ry="25.478928"
       d="m 549.8084,91.858238 a 26.484674,25.478928 0 1 1 -52.96934,0 26.484674,25.478928 0 1 1 52.96934,0 z"
       transform="matrix(0.75179819,0,0,0.75474357,260.49386,638.2924)" />
    <path
       sodipodi:type="arc"
       style="fill:#2dc5df;fill-opacity:1;stroke:#000000;stroke-width:1.98100924;stroke-linecap:butt;stroke-linejoin:round;stroke-miterlimit:4;stroke-opacity:1;stroke-dasharray:none"
       id="path2985-8-4"
       sodipodi:cx="523.32373"
       sodipodi:cy="91.858238"
       sodipodi:rx="26.484674"
       sodipodi:ry="25.478928"
       d="m 549.8084,91.858238 a 26.484674,25.478928 0 1 1 -52.96934,0 26.484674,25.478928 0 1 1 52.96934,0 z"
       transform="matrix(0.75179819,0,0,0.75474357,418.95961,786.95982)" />
    <path
       sodipodi:type="arc"
       style="fill:#2dc5df;fill-opacity:1;stroke:#000000;stroke-width:1.98100924;stroke-linecap:butt;stroke-linejoin:round;stroke-miterlimit:4;stroke-opacity:1;stroke-dasharray:none"
       id="path2985-8-5"
       sodipodi:cx="523.32373"
       sodipodi:cy="91.858238"
       sodipodi:rx="26.484674"
       sodipodi:ry="25.478928"
       d="m 549.8084,91.858238 a 26.484674,25.478928 0 1 1 -52.96934,0 26.484674,25.478928 0 1 1 52.96934,0 z"
       transform="matrix(0.75179819,0,0,0.75474357,372.63493,735.88219)" />
    <path
       sodipodi:type="arc"
       style="fill:#2dc5df;fill-opacity:1;stroke:#000000;stroke-width:1.98100924;stroke-linecap:butt;stroke-linejoin:round;stroke-miterlimit:4;stroke-opacity:1;stroke-dasharray:none"
       id="path2985-8-0"
       sodipodi:cx="523.32373"
       sodipodi:cy="91.858238"
       sodipodi:rx="26.484674"
       sodipodi:ry="25.478928"
       d="m 549.8084,91.858238 a 26.484674,25.478928 0 1 1 -52.96934,0 26.484674,25.478928 0 1 1 52.96934,0 z"
       transform="matrix(0.75179819,0,0,0.75474357,466.86752,836.19947)" />
    <path
       sodipodi:type="arc"
       style="fill:#2dc5df;fill-opacity:1;stroke:#000000;stroke-width:1.98100924;stroke-linecap:butt;stroke-linejoin:round;stroke-miterlimit:4;stroke-opacity:1;stroke-dasharray:none"
       id="path2985-8-3"
       sodipodi:cx="523.32373"
       sodipodi:cy="91.858238"
       sodipodi:rx="26.484674"
       sodipodi:ry="25.478928"
       d="m 549.8084,91.858238 a 26.484674,25.478928 0 1 1 -52.96934,0 26.484674,25.478928 0 1 1 52.96934,0 z"
       transform="matrix(0.75179819,0,0,0.75474357,318.05621,686.57345)" />
    <image
       y="405.9541"
       x="783.94006"
       id="image4022"
       xlink:href="http://www.erp5.com/P-OSOE-Pre.Trade.Stick.Man.Blue.with.Lie?format=png"
       height="117.84483"
       width="123.22097" />
    <image
       y="525.15826"
       x="785.54034"
       id="image4087"
       xlink:href="http://www.erp5.com/P-OSOE-Pre.Trade.Stick.Man.Blue.with.Lie?format=png"
       height="117.84483"
       width="123.22097" />
    <image
       y="705.0177"
       x="43.134171"
       id="image4152"
       xlink:href="http://www.erp5.com/P-OSOE-Trade.Processus.Opened.Small.Box?format=png"
       height="216.16188"
       width="264.7251" />
    <image
       y="687.22083"
       x="-480.13455"
       id="image4217"
       xlink:href="http://www.erp5.com/P-OSOE-Trade.Processus.Small.Truck?format=png"
       height="49.00948"
       width="112.1134"
       transform="scale(-1,1)" />
    <image
       y="735.42059"
       x="-480.89984"
       id="image4217-1"
       xlink:href="http://www.erp5.com/P-OSOE-Trade.Processus.Small.Truck?format=png"
       height="49.00948"
       width="112.1134"
       transform="scale(-1,1)" />
    <image
       y="780.18762"
       x="-480.89984"
       id="image4217-0"
       xlink:href="http://www.erp5.com/P-OSOE-Trade.Processus.Small.Truck?format=png"
       height="49.00948"
       width="112.1134"
       transform="scale(-1,1)" />
    <image
       y="830.92358"
       x="-480.89984"
       id="image4217-6"
       xlink:href="http://www.erp5.com/P-OSOE-Trade.Processus.Small.Truck?format=png"
       height="49.00948"
       width="112.1134"
       transform="scale(-1,1)" />
    <image
       y="878.67517"
       x="-480.89984"
       id="image4217-3"
       xlink:href="http://www.erp5.com/P-OSOE-Trade.Processus.Small.Truck?format=png"
       height="49.00948"
       width="112.1134"
       transform="scale(-1,1)" />
    <path
       style="fill:none;stroke:#000000;stroke-width:1.49223375px;stroke-linecap:butt;stroke-linejoin:miter;stroke-opacity:1;marker-end:url(#Arrow1Lend)"
       d="m 488.81332,907.9129 c 317.62973,0 317.62973,0 317.62973,0"
       id="path4259"
       inkscape:connector-curvature="0" />
    <path
       style="fill:none;stroke:#000000;stroke-width:1.49223375px;stroke-linecap:butt;stroke-linejoin:miter;stroke-opacity:1;marker-end:url(#Arrow1Lend-2)"
       d="m 490.00065,855.2869 c 283.50422,2.62514 283.50422,2.62514 283.50422,2.62514"
       id="path4729"
       inkscape:connector-curvature="0" />
    <path
       style="fill:none;stroke:#000000;stroke-width:1.49223375px;stroke-linecap:butt;stroke-linejoin:miter;stroke-opacity:1;marker-end:url(#Arrow1Lend-2)"
       d="m 490.00065,806.23915 c 236.25351,0 236.25351,0 236.25351,0"
       id="path4917"
       inkscape:connector-curvature="0" />
    <path
       style="fill:none;stroke:#000000;stroke-width:1.49223375px;stroke-linecap:butt;stroke-linejoin:miter;stroke-opacity:1;marker-end:url(#Arrow1Lend-2)"
       d="m 490.00065,758.62903 c 186.37777,1.31251 187.69029,1.31251 187.69029,1.31251"
       id="path5105"
       inkscape:connector-curvature="0" />
    <path
       style="fill:none;stroke:#000000;stroke-width:1.49223375px;stroke-linecap:butt;stroke-linejoin:miter;stroke-opacity:1;marker-end:url(#Arrow1Lend-2)"
       d="m 488.68812,708.62808 c 131.25196,1.31252 131.25196,1.31252 131.25196,1.31252"
       id="path5291"
       inkscape:connector-curvature="0" />
    <image
       y="564.14398"
       x="711.02991"
       id="image5549"
       xlink:href="http://www.erp5.com/P-OSOE-Trade.Processus.White.Paper?format=png"
       height="55.941601"
       width="49.417366" />
    <image
       y="591.3515"
       x="696.47003"
       id="image5614"
       xlink:href="http://www.erp5.com/P-OSOE-Trade.Processus.Hand.Wrist?format=png"
       height="66.332718"
       width="83.193542" />
    <image
       y="430.16174"
       x="686.23645"
       id="image5679"
       xlink:href="http://www.erp5.com/P-OSOE-Trade.Processus.Cash.Register?format=png"
       height="75.488045"
       width="83.597397" />
    <path
       style="fill:none;stroke:#000000;stroke-width:1.49223375px;stroke-linecap:butt;stroke-linejoin:miter;stroke-opacity:1"
       d="M 670.80122,699.56564 846.67883,653.62746"
       id="path5682"
       inkscape:connector-curvature="0" />
    <path
       style="fill:none;stroke:#000000;stroke-width:1.49223375px;stroke-linecap:butt;stroke-linejoin:miter;stroke-opacity:1"
       d="M 729.86459,748.12887 844.0538,654.93997"
       id="path5684"
       inkscape:connector-curvature="0" />
    <path
       style="fill:none;stroke:#000000;stroke-width:1.49223375px;stroke-linecap:butt;stroke-linejoin:miter;stroke-opacity:1"
       d="M 786.30293,795.37957 842.74127,653.62746"
       id="path5686"
       inkscape:connector-curvature="0" />
    <path
       style="fill:none;stroke:#000000;stroke-width:1.49223375px;stroke-linecap:butt;stroke-linejoin:miter;stroke-opacity:1"
       d="M 825.67852,842.63027 842.74127,656.2525"
       id="path5688"
       inkscape:connector-curvature="0" />
    <path
       style="fill:none;stroke:#000000;stroke-width:1.49223375px;stroke-linecap:butt;stroke-linejoin:miter;stroke-opacity:1"
       d="M 872.92922,888.5685 842.74127,656.2525"
       id="path5690"
       inkscape:connector-curvature="0" />
  </g>
</svg>
