<svg width="1295" height="580" xmlns="http://www.w3.org/2000/svg" xmlns:xlink="http://www.w3.org/1999/xlink">
 <defs>
  <marker orient="auto" refY="0" refX="0" id="Arrow2Mend">
   <path id="path4056" d="m8.71859,4.03374l-10.92588,-4.01773l10.92588,-4.01772c-1.7455,2.37206 -1.73544,5.61745 0,8.03545z" transform="scale(-0.6000000238418579) " stroke-linejoin="round" stroke-width="0.625" fill-rule="evenodd"/>
  </marker>
  <pattern y="0" x="0" height="6" width="6" patternUnits="userSpaceOnUse" id="EMFhbasepattern"/>
 </defs>
 <metadata id="metadata7">image/svg+xml</metadata>
 <g>
  <title>background</title>
  <rect x="-1" y="-1" width="1297" height="582" id="canvas_background" fill="none"/>
 </g>
 <g>
  <title>Layer 1</title>
  <g id="layer1">
   <image y="315.91034" x="-2.24109" id="image3069" xlink:href="http://www.erp5.com/P-OSOE-Pre.Trade.Sale.Opportunities.New?format=png" height="309" width="1297"/>
   <path d="m568.68097,22.34789l166.56188,0l53.42553,129.01203l-53.42553,126.68749l-165.51432,0l-1.04756,-255.69952z" id="path3822" stroke-width="1.10343px" fill="#03436a"/>
   <path d="m407.02468,313.00598l0,-147.85703l155.30228,0" id="path3056" marker-end="url(#Arrow2Mend)" stroke-miterlimit="4" stroke-linejoin="round" stroke-width="5" stroke="#03436a" fill="none"/>
   <path id="path4162" d="m706.80072,105.55507c0,-0.62783 0.48144,-1.12112 1.10728,-1.12112c0.57772,0 1.05916,0.49329 1.05916,1.12112c0,0.58299 -0.48144,1.07628 -1.05916,1.07628c-0.62584,0 -1.10728,-0.49329 -1.10728,-1.07628zm-76.40225,1.5696c0.57772,0 1.05914,-0.49332 1.05914,-1.07628c0,-0.62786 -0.48142,-1.12115 -1.05914,-1.12115c-0.62586,0 -1.1073,0.49329 -1.1073,1.12115c0,0.58296 0.48144,1.07628 1.1073,1.07628zm107.5027,20.98749c0,0.44844 -0.19265,0.8969 -0.52959,1.21082l-6.74002,6.90613c-0.28886,0.31393 -0.72215,0.49331 -1.15543,0.49331c-0.0962,0 -0.19266,0 -0.28887,0c0.38513,0.53815 0.43329,1.25566 0.0962,1.8835l-12.56535,20.58331c-0.77029,1.39018 -2.21458,4.03606 -2.88858,4.75356l-29.27035,29.91168c-1.34803,1.39021 -3.08117,2.19742 -4.76617,2.19742c-1.34801,0 -2.59973,-0.49331 -3.4663,-1.43507l-0.43329,-0.40359l-0.0482,0c-1.685,1.79381 -4.62173,2.06288 -6.93259,0.80721c-2.31087,1.25567 -5.24761,0.9866 -6.98075,-0.80721l0,0l-0.4333,0.40359c-0.86658,0.94176 -2.11829,1.43507 -3.4663,1.43507c-1.685,0 -3.4663,-0.80721 -4.8143,-2.19742l-29.22258,-29.91168c-0.72216,-0.7175 -2.16645,-3.36338 -2.93675,-4.84327l-12.51713,-20.4936c-0.33694,-0.62784 -0.28881,-1.34535 0.0962,-1.92835c-0.0962,0.0449 -0.24073,0.0449 -0.337,0.0449c-0.43322,0 -0.86651,-0.17945 -1.20353,-0.49329l-6.69186,-6.86131c-0.67402,-0.67267 -0.67402,-1.7938 0,-2.46649l29.12637,-29.82199c0.674,-0.67268 1.73316,-0.67268 2.40716,0l6.73984,6.90615c0.28885,0.31392 0.48142,0.76236 0.48142,1.21082c0,0.44846 -0.19266,0.89689 -0.48142,1.21082l-3.46631,3.49791c0.0962,0 0.14444,0 0.24071,0c0.48144,0 0.91473,0.17945 1.20359,0.49329l6.06604,6.23347c0.14442,0 0.28885,0.0449 0.43328,0.0449c0.43329,0.045 0.9147,0.0896 1.20356,0.0896c0.0482,0 0.0962,0 0.14442,0l0.24074,0c0.57771,0 1.15543,0.0449 1.685,0.0896l3.70701,0.49329c0.19265,0 0.38515,0.0449 0.57773,0.0449c0.0962,0 0.19263,0.0449 0.33699,0.0896l17.86108,2.33195l17.90924,-2.33195c0.0962,-0.0449 0.19265,-0.0896 0.28886,-0.0896c0.19265,0 0.38516,-0.0449 0.57771,-0.0449l3.70704,-0.49329c0.52956,-0.0896 1.10729,-0.0896 1.68499,-0.0896l0.24071,0c0.0483,0 0.0962,0 0.14444,0c0.28886,0 0.72215,-0.0449 1.20359,-0.0896c0.14442,-0.0449 0.28884,-0.0449 0.43328,-0.0449l6.06538,-6.23347c0.28887,-0.31389 0.72215,-0.49329 1.20359,-0.49329c0.0482,0 0.0962,0 0.19265,0l-3.41754,-3.49791c-0.33699,-0.31393 -0.52956,-0.76236 -0.52956,-1.21082c0,-0.44846 0.19264,-0.8969 0.52956,-1.21082l6.69127,-6.90615c0.67399,-0.67268 1.73315,-0.67268 2.40715,0l29.12658,29.82199c0.33699,0.31391 0.52957,0.76237 0.52957,1.21083l0.00012,-0.00005zm-32.40031,-22.55709c0,1.34536 1.05916,2.42164 2.40714,2.42164c1.29987,0 2.35902,-1.07628 2.35902,-2.42164c0,-1.34535 -1.05915,-2.42163 -2.35902,-2.42163c-1.34798,0 -2.40714,1.07628 -2.40714,2.42163zm-77.55768,0.44846c0,1.34536 1.05913,2.42163 2.40714,2.42163c1.29987,0 2.35901,-1.07627 2.35901,-2.42163c0,-1.34536 -1.05914,-2.42163 -2.35901,-2.42163c-1.34801,0 -2.40714,1.07627 -2.40714,2.42163zm52.57205,84.75663c-0.28885,-0.13453 -0.57772,-0.31392 -0.81842,-0.49328c-0.0482,0.0449 -0.0482,0.0449 -0.0482,0.0896l0.43329,0.44844c0,0 0.19264,0.0449 0.43328,-0.0449l0.00005,0.00014zm-10.20628,-28.20741c0.38514,-0.62785 0.72216,-1.21082 1.011,-1.83867c0.24072,-0.49329 0.72215,-0.8072 1.25171,-0.89688c0.52958,-0.0896 1.05917,0.0896 1.4443,0.49327l12.03579,12.28757c0.38513,0.40361 1.05912,0.40361 1.44429,0l4.04401,-4.12575c0.4333,-0.44846 0.4333,-1.12112 0,-1.52473l-24.84183,-25.42657c-3.17744,0.13453 -7.31777,0.31392 -7.84733,0.35875c-3.51445,0.40361 -6.64375,-2.37679 -7.12519,-6.14378l-0.81843,-6.45768c-0.28885,-2.2871 0.43329,-4.39482 1.78131,-5.87471l-6.54746,-0.85206c-0.57772,-0.0449 -1.29987,-0.13453 -2.07018,-0.17946c-0.77026,-0.0896 -1.54056,-0.17944 -2.26271,-0.22421l-0.72215,-0.0449c-0.43328,0 -0.81842,-0.17946 -1.10728,-0.49332l-4.52546,-4.70873l-20.89377,21.3911c5.0068,8.69996 12.08379,20.89723 12.95036,22.19773l29.17452,29.86683c0.48144,0.44846 1.011,0.44846 1.05915,0.40361l3.1293,-3.184c0.0482,-0.0449 0.0482,-0.17944 0,-0.4036l-7.12519,-7.26491c-0.48142,-0.49329 -0.62584,-1.25566 -0.38513,-1.92833c0.28885,-0.62783 0.91472,-1.03144 1.58871,-1.03144l0.38515,0c0.57771,0 1.15543,0 1.73314,-0.0896c0.52959,-0.0449 1.01101,0.13452 1.34801,0.49327l12.46907,12.73603c0.0962,0.0896 0.14445,0.13453 0.24071,0.17945c0.19266,0.13453 0.4333,0.22423 0.62588,0.22423c0.24071,0 0.28885,-0.0896 0.33697,-0.13454l3.51446,-3.58761c0.0962,-0.0896 0.14444,-0.17944 0.14444,-0.31392l-10.20633,-10.40407c-0.33701,-0.35875 -0.48144,-0.85204 -0.48144,-1.34534c0.0482,-0.49329 0.28886,-0.98658 0.67399,-1.25565c0.43329,-0.31393 0.86658,-0.67268 1.25174,-1.03145c0.28886,-0.22423 0.67399,-0.40361 1.05912,-0.40361c0.72216,0.0449 1.05916,0.26907 2.02203,1.25567c0.33699,0.35875 0.77029,0.76236 1.25172,1.25568c1.78129,1.79378 4.38102,4.48449 6.5956,6.81644l4.2366,4.34998c0.2407,0.26907 0.57772,0.40361 0.86658,0.40361c0.0962,0 0.28885,-0.0449 0.38513,-0.13454l3.51446,-3.58762c0.2407,-0.26907 0.19265,-0.85204 -0.24074,-1.25565l-16.07981,-16.45828c-0.57773,-0.583 -0.67402,-1.43503 -0.28887,-2.1077l0.00005,0.00009zm63.16304,3.9468l-20.89409,-21.39112l-4.52482,4.70874c-0.28887,0.31393 -0.674,0.49329 -1.1073,0.49329l-0.72214,0.0449c-0.72214,0.0449 -1.49244,0.13453 -2.26273,0.22424c-0.77028,0.0449 -1.49243,0.13454 -2.16645,0.17945l-34.5186,4.52936c-0.28886,0.0449 -0.48141,0.22421 -0.57771,0.35875c-0.24071,0.31391 -0.33699,0.71752 -0.28886,1.12113l0.81844,6.4577c0.0962,0.67266 0.57772,1.21081 1.1073,1.21081c0.0482,0 0.19263,0 0.19263,0l14.44294,-0.67268c0.72215,0 1.39614,0.44845 1.63688,1.16597c0.28885,0.67267 0.0482,1.47989 -0.48144,1.92835c-0.0962,0.0449 -0.19266,0.17944 -0.28887,0.22422c-0.19264,0.22423 -0.43328,0.44845 -0.67399,0.71752l20.07567,20.58331c4.81429,4.3948 5.53644,7.84787 2.4553,11.97363c-0.0962,0.0449 -0.0962,0.0896 -0.19265,0.13453l-4.04401,4.1706c-0.19266,0.22422 -0.38518,0.44844 -0.57773,0.62783c-0.19264,0.17945 -0.337,0.35875 -0.52958,0.53814l1.011,1.12113c0.24073,0.22423 0.43328,0.44844 0.62587,0.67269l18.4863,-18.92465c0.91472,-1.3005 7.99177,-13.49777 12.99864,-22.19771l0,-0.00013z" fill-rule="nonzero" fill="#b4cd3b"/>
  </g>
 </g>
</svg>