<?xml version="1.0" encoding="UTF-8" standalone="no"?>
<!-- Created with Inkscape (http://www.inkscape.org/) -->

<svg
   xmlns:dc="http://purl.org/dc/elements/1.1/"
   xmlns:cc="http://creativecommons.org/ns#"
   xmlns:rdf="http://www.w3.org/1999/02/22-rdf-syntax-ns#"
   xmlns:svg="http://www.w3.org/2000/svg"
   xmlns="http://www.w3.org/2000/svg"
   xmlns:xlink="http://www.w3.org/1999/xlink"
   xmlns:sodipodi="http://sodipodi.sourceforge.net/DTD/sodipodi-0.dtd"
   xmlns:inkscape="http://www.inkscape.org/namespaces/inkscape"
   width="1052.3622"
   height="744.09448"
   id="svg2"
   version="1.1"
   inkscape:version="0.48.2 r9819"
   sodipodi:docname="user-Packing.List.Manage.Stock.svg">
  <defs
     id="defs4">
    <marker
       inkscape:stockid="Arrow1Sstart"
       orient="auto"
       refY="0"
       refX="0"
       id="Arrow1Sstart"
       style="overflow:visible">
      <path
         id="path4762"
         d="M 0,0 5,-5 -12.5,0 5,5 0,0 z"
         style="fill-rule:evenodd;stroke:#000000;stroke-width:1pt;marker-start:none"
         transform="matrix(0.2,0,0,0.2,1.2,0)"
         inkscape:connector-curvature="0" />
    </marker>
    <marker
       inkscape:stockid="Arrow1Mstart"
       orient="auto"
       refY="0"
       refX="0"
       id="Arrow1Mstart"
       style="overflow:visible">
      <path
         id="path4756"
         d="M 0,0 5,-5 -12.5,0 5,5 0,0 z"
         style="fill-rule:evenodd;stroke:#000000;stroke-width:1pt;marker-start:none"
         transform="matrix(0.4,0,0,0.4,4,0)"
         inkscape:connector-curvature="0" />
    </marker>
    <marker
       inkscape:stockid="Arrow1Lstart"
       orient="auto"
       refY="0"
       refX="0"
       id="Arrow1Lstart"
       style="overflow:visible">
      <path
         id="path4750"
         d="M 0,0 5,-5 -12.5,0 5,5 0,0 z"
         style="fill-rule:evenodd;stroke:#000000;stroke-width:1pt;marker-start:none"
         transform="matrix(0.8,0,0,0.8,10,0)"
         inkscape:connector-curvature="0" />
    </marker>
    <marker
       inkscape:stockid="Arrow1Send"
       orient="auto"
       refY="0"
       refX="0"
       id="Arrow1Send"
       style="overflow:visible">
      <path
         id="path4765"
         d="M 0,0 5,-5 -12.5,0 5,5 0,0 z"
         style="fill-rule:evenodd;stroke:#000000;stroke-width:1pt;marker-start:none"
         transform="matrix(-0.2,0,0,-0.2,-1.2,0)"
         inkscape:connector-curvature="0" />
    </marker>
    <marker
       inkscape:stockid="Arrow1Mend"
       orient="auto"
       refY="0"
       refX="0"
       id="Arrow1Mend"
       style="overflow:visible">
      <path
         id="path3780"
         d="M 0,0 5,-5 -12.5,0 5,5 0,0 z"
         style="fill-rule:evenodd;stroke:#000000;stroke-width:1pt;marker-start:none"
         transform="matrix(-0.4,0,0,-0.4,-4,0)"
         inkscape:connector-curvature="0" />
    </marker>
    <marker
       inkscape:stockid="Arrow1Mend"
       orient="auto"
       refY="0"
       refX="0"
       id="Arrow1Mend-1"
       style="overflow:visible">
      <path
         id="path3780-7"
         d="M 0,0 5,-5 -12.5,0 5,5 0,0 z"
         style="fill-rule:evenodd;stroke:#000000;stroke-width:1pt;marker-start:none"
         transform="matrix(-0.4,0,0,-0.4,-4,0)"
         inkscape:connector-curvature="0" />
    </marker>
    <marker
       inkscape:stockid="Arrow1Lend"
       orient="auto"
       refY="0"
       refX="0"
       id="marker3035"
       style="overflow:visible">
      <path
         inkscape:connector-curvature="0"
         id="path3037"
         d="M 0,0 5,-5 -12.5,0 5,5 0,0 z"
         style="fill-rule:evenodd;stroke:#000000;stroke-width:1pt;marker-start:none"
         transform="matrix(-0.8,0,0,-0.8,-10,0)" />
    </marker>
    <marker
       inkscape:stockid="Arrow1Lend"
       orient="auto"
       refY="0"
       refX="0"
       id="marker3043"
       style="overflow:visible">
      <path
         inkscape:connector-curvature="0"
         id="path3045"
         d="M 0,0 5,-5 -12.5,0 5,5 0,0 z"
         style="fill-rule:evenodd;stroke:#000000;stroke-width:1pt;marker-start:none"
         transform="matrix(-0.8,0,0,-0.8,-10,0)" />
    </marker>
    <marker
       inkscape:stockid="Arrow1Lend"
       orient="auto"
       refY="0"
       refX="0"
       id="marker3047"
       style="overflow:visible">
      <path
         inkscape:connector-curvature="0"
         id="path3049"
         d="M 0,0 5,-5 -12.5,0 5,5 0,0 z"
         style="fill-rule:evenodd;stroke:#000000;stroke-width:1pt;marker-start:none"
         transform="matrix(-0.8,0,0,-0.8,-10,0)" />
    </marker>
    <marker
       inkscape:stockid="Arrow1Lend"
       orient="auto"
       refY="0"
       refX="0"
       id="marker3051"
       style="overflow:visible">
      <path
         inkscape:connector-curvature="0"
         id="path3053"
         d="M 0,0 5,-5 -12.5,0 5,5 0,0 z"
         style="fill-rule:evenodd;stroke:#000000;stroke-width:1pt;marker-start:none"
         transform="matrix(-0.8,0,0,-0.8,-10,0)" />
    </marker>
    <marker
       inkscape:stockid="Arrow1Lend"
       orient="auto"
       refY="0"
       refX="0"
       id="marker3055"
       style="overflow:visible">
      <path
         inkscape:connector-curvature="0"
         id="path3057"
         d="M 0,0 5,-5 -12.5,0 5,5 0,0 z"
         style="fill-rule:evenodd;stroke:#000000;stroke-width:1pt;marker-start:none"
         transform="matrix(-0.8,0,0,-0.8,-10,0)" />
    </marker>
    <marker
       inkscape:stockid="Arrow1Lend"
       orient="auto"
       refY="0"
       refX="0"
       id="Arrow1Lend"
       style="overflow:visible">
      <path
         inkscape:connector-curvature="0"
         id="path4267"
         d="M 0,0 5,-5 -12.5,0 5,5 0,0 z"
         style="fill-rule:evenodd;stroke:#000000;stroke-width:1pt;marker-start:none"
         transform="matrix(-0.8,0,0,-0.8,-10,0)" />
    </marker>
    <marker
       inkscape:stockid="Arrow1Lend"
       orient="auto"
       refY="0"
       refX="0"
       id="Arrow1Lend-2"
       style="overflow:visible">
      <path
         inkscape:connector-curvature="0"
         id="path4267-0"
         d="M 0,0 5,-5 -12.5,0 5,5 0,0 z"
         style="fill-rule:evenodd;stroke:#000000;stroke-width:1pt;marker-start:none"
         transform="matrix(-0.8,0,0,-0.8,-10,0)" />
    </marker>
    <marker
       inkscape:stockid="Arrow1Lend"
       orient="auto"
       refY="0"
       refX="0"
       id="marker3038"
       style="overflow:visible">
      <path
         inkscape:connector-curvature="0"
         id="path3040"
         d="M 0,0 5,-5 -12.5,0 5,5 0,0 z"
         style="fill-rule:evenodd;stroke:#000000;stroke-width:1pt;marker-start:none"
         transform="matrix(-0.8,0,0,-0.8,-10,0)" />
    </marker>
    <marker
       inkscape:stockid="Arrow1Lend"
       orient="auto"
       refY="0"
       refX="0"
       id="marker3042"
       style="overflow:visible">
      <path
         inkscape:connector-curvature="0"
         id="path3044"
         d="M 0,0 5,-5 -12.5,0 5,5 0,0 z"
         style="fill-rule:evenodd;stroke:#000000;stroke-width:1pt;marker-start:none"
         transform="matrix(-0.8,0,0,-0.8,-10,0)" />
    </marker>
    <marker
       inkscape:stockid="Arrow1Lend"
       orient="auto"
       refY="0"
       refX="0"
       id="marker3046"
       style="overflow:visible">
      <path
         inkscape:connector-curvature="0"
         id="path3048"
         d="M 0,0 5,-5 -12.5,0 5,5 0,0 z"
         style="fill-rule:evenodd;stroke:#000000;stroke-width:1pt;marker-start:none"
         transform="matrix(-0.8,0,0,-0.8,-10,0)" />
    </marker>
  </defs>
  <sodipodi:namedview
     id="base"
     pagecolor="#ffffff"
     bordercolor="#666666"
     borderopacity="1.0"
     inkscape:pageopacity="1"
     inkscape:pageshadow="2"
     inkscape:zoom="0.68539683"
     inkscape:cx="522.4211"
     inkscape:cy="372.04724"
     inkscape:document-units="px"
     inkscape:current-layer="layer1"
     showgrid="false"
     inkscape:window-width="1024"
     inkscape:window-height="718"
     inkscape:window-x="-3"
     inkscape:window-y="-3"
     inkscape:window-maximized="1" />
  <metadata
     id="metadata7">
    <rdf:RDF>
      <cc:Work
         rdf:about="">
        <dc:format>image/svg+xml</dc:format>
        <dc:type
           rdf:resource="http://purl.org/dc/dcmitype/StillImage" />
        <dc:title></dc:title>
      </cc:Work>
    </rdf:RDF>
  </metadata>
  <g
     inkscape:label="Calque 1"
     inkscape:groupmode="layer"
     id="layer1"
     transform="translate(0,-308.26769)">
    <rect
       style="fill:#ffffff;stroke-width:5.39400005;stroke-miterlimit:4;stroke-dasharray:none"
       id="rect4130"
       width="1051.9453"
       height="742.6355"
       x="1.4590088"
       y="309.72668" />
    <rect
       style="fill:#ffffff;fill-opacity:1;stroke:#ffffff;stroke-width:3.66374183;stroke-linecap:butt;stroke-linejoin:round;stroke-miterlimit:4;stroke-opacity:1;stroke-dasharray:none"
       id="rect3066"
       width="576.96442"
       height="337.47357"
       x="53.655357"
       y="339.68024" />
    <path
       sodipodi:type="arc"
       style="fill:#2dc5df;fill-opacity:1;stroke:#000000;stroke-width:1.07118368;stroke-linecap:butt;stroke-linejoin:round;stroke-miterlimit:4;stroke-opacity:1;stroke-dasharray:none"
       id="path2985"
       sodipodi:cx="523.32373"
       sodipodi:cy="91.858238"
       sodipodi:rx="26.484674"
       sodipodi:ry="25.478928"
       d="m 549.8084,91.858238 a 26.484674,25.478928 0 1 1 -52.96934,0 26.484674,25.478928 0 1 1 52.96934,0 z"
       transform="matrix(-0.88862327,0,0,0.99172531,802.95439,383.86769)" />
    <path
       sodipodi:type="arc"
       style="fill:#2dc5df;fill-opacity:1;stroke:#000000;stroke-width:1.98100924;stroke-linecap:butt;stroke-linejoin:round;stroke-miterlimit:4;stroke-opacity:1;stroke-dasharray:none"
       id="path2985-8"
       sodipodi:cx="523.32373"
       sodipodi:cy="91.858238"
       sodipodi:rx="26.484674"
       sodipodi:ry="25.478928"
       d="m 549.8084,91.858238 a 26.484674,25.478928 0 1 1 -52.96934,0 26.484674,25.478928 0 1 1 52.96934,0 z"
       transform="matrix(-0.44063934,0,0,0.48514712,682.41487,489.15317)" />
    <path
       sodipodi:type="arc"
       style="fill:#2dc5df;fill-opacity:1;stroke:#000000;stroke-width:1.98100924;stroke-linecap:butt;stroke-linejoin:round;stroke-miterlimit:4;stroke-opacity:1;stroke-dasharray:none"
       id="path2985-8-4"
       sodipodi:cx="523.32373"
       sodipodi:cy="91.858238"
       sodipodi:rx="26.484674"
       sodipodi:ry="25.478928"
       d="m 549.8084,91.858238 a 26.484674,25.478928 0 1 1 -52.96934,0 26.484674,25.478928 0 1 1 52.96934,0 z"
       transform="matrix(-0.44063934,0,0,0.48514712,589.5359,584.71617)" />
    <path
       sodipodi:type="arc"
       style="fill:#2dc5df;fill-opacity:1;stroke:#000000;stroke-width:1.98100924;stroke-linecap:butt;stroke-linejoin:round;stroke-miterlimit:4;stroke-opacity:1;stroke-dasharray:none"
       id="path2985-8-5"
       sodipodi:cx="523.32373"
       sodipodi:cy="91.858238"
       sodipodi:rx="26.484674"
       sodipodi:ry="25.478928"
       d="m 549.8084,91.858238 a 26.484674,25.478928 0 1 1 -52.96934,0 26.484674,25.478928 0 1 1 52.96934,0 z"
       transform="matrix(-0.44063934,0,0,0.48514712,616.68744,551.88362)" />
    <path
       sodipodi:type="arc"
       style="fill:#2dc5df;fill-opacity:1;stroke:#000000;stroke-width:1.98100924;stroke-linecap:butt;stroke-linejoin:round;stroke-miterlimit:4;stroke-opacity:1;stroke-dasharray:none"
       id="path2985-8-0"
       sodipodi:cx="523.32373"
       sodipodi:cy="91.858238"
       sodipodi:rx="26.484674"
       sodipodi:ry="25.478928"
       d="m 549.8084,91.858238 a 26.484674,25.478928 0 1 1 -52.96934,0 26.484674,25.478928 0 1 1 52.96934,0 z"
       transform="matrix(-0.44063934,0,0,0.48514712,561.45641,616.36729)" />
    <path
       sodipodi:type="arc"
       style="fill:#2dc5df;fill-opacity:1;stroke:#000000;stroke-width:1.98100924;stroke-linecap:butt;stroke-linejoin:round;stroke-miterlimit:4;stroke-opacity:1;stroke-dasharray:none"
       id="path2985-8-3"
       sodipodi:cx="523.32373"
       sodipodi:cy="91.858238"
       sodipodi:rx="26.484674"
       sodipodi:ry="25.478928"
       d="m 549.8084,91.858238 a 26.484674,25.478928 0 1 1 -52.96934,0 26.484674,25.478928 0 1 1 52.96934,0 z"
       transform="matrix(-0.44063934,0,0,0.48514712,648.67678,520.18809)" />
    <image
       y="520.60425"
       x="-618.94305"
       id="image4217"
       xlink:href="http://www.erp5.com/P-OSOE-Trade.Processus.Small.Truck?format=png"
       height="31.503162"
       width="65.711212"
       transform="scale(-1,1)" />
    <image
       y="551.58691"
       x="-619.3916"
       id="image4217-1"
       xlink:href="http://www.erp5.com/P-OSOE-Trade.Processus.Small.Truck?format=png"
       height="31.503162"
       width="65.711212"
       transform="scale(-1,1)" />
    <image
       y="580.36304"
       x="-619.3916"
       id="image4217-0"
       xlink:href="http://www.erp5.com/P-OSOE-Trade.Processus.Small.Truck?format=png"
       height="31.503162"
       width="65.711212"
       transform="scale(-1,1)" />
    <image
       y="612.97595"
       x="-619.3916"
       id="image4217-6"
       xlink:href="http://www.erp5.com/P-OSOE-Trade.Processus.Small.Truck?format=png"
       height="31.503162"
       width="65.711212"
       transform="scale(-1,1)" />
    <image
       y="643.67053"
       x="-619.3916"
       id="image4217-3"
       xlink:href="http://www.erp5.com/P-OSOE-Trade.Processus.Small.Truck?format=png"
       height="31.503162"
       width="65.711212"
       transform="scale(-1,1)" />
    <path
       style="fill:none;stroke:#000000;stroke-width:0.91593546;stroke-linecap:butt;stroke-linejoin:miter;stroke-miterlimit:4;stroke-opacity:1;stroke-dasharray:none"
       d="M 441.92804,528.53944 338.84374,499.0105"
       id="path5682"
       inkscape:connector-curvature="0" />
    <path
       style="fill:none;stroke:#000000;stroke-width:0.91593546;stroke-linecap:butt;stroke-linejoin:miter;stroke-miterlimit:4;stroke-opacity:1;stroke-dasharray:none"
       d="M 407.31018,559.75574 340.38231,499.85418"
       id="path5684"
       inkscape:connector-curvature="0" />
    <path
       style="fill:none;stroke:#000000;stroke-width:0.91593546;stroke-linecap:butt;stroke-linejoin:miter;stroke-miterlimit:4;stroke-opacity:1;stroke-dasharray:none"
       d="M 374.23089,590.12837 341.15159,499.0105"
       id="path5686"
       inkscape:connector-curvature="0" />
    <path
       style="fill:none;stroke:#000000;stroke-width:0.91593546;stroke-linecap:butt;stroke-linejoin:miter;stroke-miterlimit:4;stroke-opacity:1;stroke-dasharray:none"
       d="M 351.15231,620.50099 341.15159,500.69786"
       id="path5688"
       inkscape:connector-curvature="0" />
    <path
       style="fill:none;stroke:#000000;stroke-width:0.91593546;stroke-linecap:butt;stroke-linejoin:miter;stroke-miterlimit:4;stroke-opacity:1;stroke-dasharray:none"
       d="M 323.45802,650.02995 341.15159,500.69786"
       id="path5690"
       inkscape:connector-curvature="0" />
    <image
       y="516.60266"
       x="135.3269"
       id="image4073-6"
       xlink:href="http://www.erp5.com/P-OSOE-ERP5.Closed.Box?format=png"
       height="119.90047"
       width="109.32736" />
    <image
       y="530.03156"
       x="95.094414"
       id="image4073-3"
       xlink:href="http://www.erp5.com/P-OSOE-ERP5.Closed.Box?format=png"
       height="119.90047"
       width="109.32736" />
    <image
       y="553.05243"
       x="52.238094"
       id="image4073"
       xlink:href="http://www.erp5.com/P-OSOE-ERP5.Closed.Box?format=png"
       height="119.90047"
       width="109.32736" />
    <image
       y="474.87732"
       x="106.02715"
       id="image4073-3-0"
       xlink:href="http://www.erp5.com/P-OSOE-ERP5.Closed.Box?format=png"
       height="119.90047"
       width="109.32736" />
    <image
       y="498.85742"
       x="62.296211"
       id="image4073-63"
       xlink:href="http://www.erp5.com/P-OSOE-ERP5.Closed.Box?format=png"
       height="119.90047"
       width="109.32736" />
    <image
       y="441.30521"
       x="67.543922"
       id="image4073-1"
       xlink:href="http://www.erp5.com/P-OSOE-ERP5.Closed.Box?format=png"
       height="119.90047"
       width="109.32736" />
    <image
       y="417.95593"
       x="255.48344"
       id="image5549"
       xlink:href="http://www.erp5.com/P-OSOE-Trade.Processus.White.Paper?format=png"
       height="35.95911"
       width="28.964203" />
    <image
       y="435.44482"
       x="246.94969"
       id="image5614"
       xlink:href="http://www.erp5.com/P-OSOE-Trade.Processus.Hand.Wrist?format=png"
       height="42.638489"
       width="48.760891" />
    <image
       y="416.84552"
       x="301.50449"
       id="image4287"
       xlink:href="http://www.erp5.com/P-OSOE-Pre.Trade.Stick.Woman.Red.Long.Hair?format=png"
       height="78.654709"
       width="74.342606" />
    <image
       y="337.2316"
       x="303.25372"
       id="image4352"
       xlink:href="http://www.erp5.com/P-OSOE-Pre.Trade.Stick.Woman.Yellow.Short.Hair?format=png"
       height="79.613914"
       width="76.091843" />
    <image
       y="353.73599"
       x="378.02417"
       id="image5679"
       xlink:href="http://www.erp5.com/P-OSOE-Trade.Processus.Cash.Register?format=png"
       height="48.52351"
       width="48.997593" />
    <path
       style="fill:none;stroke:#000000;stroke-width:0.91593546;stroke-linecap:butt;stroke-linejoin:miter;stroke-miterlimit:4;stroke-opacity:1;stroke-dasharray:none;marker-end:url(#marker3035)"
       d="m 547.7097,534.34794 c -78.7157,0.95921 -78.7157,0.95921 -78.7157,0.95921"
       id="path3030"
       inkscape:connector-curvature="0" />
    <path
       style="fill:none;stroke:#000000;stroke-width:0.91593546;stroke-linecap:butt;stroke-linejoin:miter;stroke-miterlimit:4;stroke-opacity:1;stroke-dasharray:none;marker-end:url(#marker3035)"
       d="M 548.58431,568.87928 C 438.38234,566.00167 436.6331,566.00167 436.6331,566.00167"
       id="path3032"
       inkscape:connector-curvature="0" />
    <path
       style="fill:none;stroke:#000000;stroke-width:0.91593546;stroke-linecap:butt;stroke-linejoin:miter;stroke-miterlimit:4;stroke-opacity:1;stroke-dasharray:none;marker-end:url(#marker3035)"
       d="m 548.58431,600.533 c -139.0644,-1.9184 -139.0644,-1.9184 -139.0644,-1.9184"
       id="path3034"
       inkscape:connector-curvature="0" />
    <path
       style="fill:none;stroke:#000000;stroke-width:0.91593546;stroke-linecap:butt;stroke-linejoin:miter;stroke-miterlimit:4;stroke-opacity:1;stroke-dasharray:none;marker-end:url(#marker3035)"
       d="M 547.7097,632.18675 C 384.15597,631.22754 383.28135,631.22754 383.28135,631.22754"
       id="path3036"
       inkscape:connector-curvature="0" />
    <path
       style="fill:none;stroke:#000000;stroke-width:0.91593546;stroke-linecap:butt;stroke-linejoin:miter;stroke-miterlimit:4;stroke-opacity:1;stroke-dasharray:none;marker-end:url(#marker3035)"
       d="M 546.83508,664.79968 C 359.66664,662.88127 358.79202,662.88127 358.79202,662.88127"
       id="path4308"
       inkscape:connector-curvature="0" />
    <text
       xml:space="preserve"
       style="font-size:27.59600067px;font-style:normal;font-weight:normal;line-height:125%;letter-spacing:0px;word-spacing:0px;fill:#000000;fill-opacity:1;stroke:none;font-family:Sans"
       x="39.39323"
       y="388.51315"
       id="text4005"
       sodipodi:linespacing="125%"><tspan
         sodipodi:role="line"
         id="tspan4007"
         x="39.39323"
         y="388.51315">Sale Packing List</tspan></text>
    <rect
       style="fill:#ffffff;fill-opacity:1;stroke:#ffffff;stroke-width:4;stroke-linecap:butt;stroke-linejoin:round;stroke-miterlimit:4;stroke-opacity:1;stroke-dasharray:none"
       id="rect3066-5"
       width="659.67523"
       height="351.82678"
       x="385.07669"
       y="676.56458" />
    <path
       sodipodi:type="arc"
       style="fill:#2dc5df;fill-opacity:1;stroke:#000000;stroke-width:1.07118368;stroke-linecap:butt;stroke-linejoin:round;stroke-miterlimit:4;stroke-opacity:1;stroke-dasharray:none"
       id="path2985-0"
       sodipodi:cx="523.32373"
       sodipodi:cy="91.858238"
       sodipodi:rx="26.484674"
       sodipodi:ry="25.478928"
       d="m 549.8084,91.858238 a 26.484674,25.478928 0 1 1 -52.96934,0 26.484674,25.478928 0 1 1 52.96934,0 z"
       transform="matrix(1.016012,0,0,1.0339047,421.75331,721.63141)" />
    <path
       sodipodi:type="arc"
       style="fill:#2dc5df;fill-opacity:1;stroke:#000000;stroke-width:1.98100924;stroke-linecap:butt;stroke-linejoin:round;stroke-miterlimit:4;stroke-opacity:1;stroke-dasharray:none"
       id="path2985-8-9"
       sodipodi:cx="523.32373"
       sodipodi:cy="91.858238"
       sodipodi:rx="26.484674"
       sodipodi:ry="25.478928"
       d="m 549.8084,91.858238 a 26.484674,25.478928 0 1 1 -52.96934,0 26.484674,25.478928 0 1 1 52.96934,0 z"
       transform="matrix(0.50380726,0,0,0.50578107,559.57279,831.39482)" />
    <path
       sodipodi:type="arc"
       style="fill:#2dc5df;fill-opacity:1;stroke:#000000;stroke-width:1.98100924;stroke-linecap:butt;stroke-linejoin:round;stroke-miterlimit:4;stroke-opacity:1;stroke-dasharray:none"
       id="path2985-8-4-9"
       sodipodi:cx="523.32373"
       sodipodi:cy="91.858238"
       sodipodi:rx="26.484674"
       sodipodi:ry="25.478928"
       d="m 549.8084,91.858238 a 26.484674,25.478928 0 1 1 -52.96934,0 26.484674,25.478928 0 1 1 52.96934,0 z"
       transform="matrix(0.50380726,0,0,0.50578107,665.76644,931.02225)" />
    <path
       sodipodi:type="arc"
       style="fill:#2dc5df;fill-opacity:1;stroke:#000000;stroke-width:1.98100924;stroke-linecap:butt;stroke-linejoin:round;stroke-miterlimit:4;stroke-opacity:1;stroke-dasharray:none"
       id="path2985-8-5-8"
       sodipodi:cx="523.32373"
       sodipodi:cy="91.858238"
       sodipodi:rx="26.484674"
       sodipodi:ry="25.478928"
       d="m 549.8084,91.858238 a 26.484674,25.478928 0 1 1 -52.96934,0 26.484674,25.478928 0 1 1 52.96934,0 z"
       transform="matrix(0.50380726,0,0,0.50578107,634.72259,896.79328)" />
    <path
       sodipodi:type="arc"
       style="fill:#2dc5df;fill-opacity:1;stroke:#000000;stroke-width:1.98100924;stroke-linecap:butt;stroke-linejoin:round;stroke-miterlimit:4;stroke-opacity:1;stroke-dasharray:none"
       id="path2985-8-0-0"
       sodipodi:cx="523.32373"
       sodipodi:cy="91.858238"
       sodipodi:rx="26.484674"
       sodipodi:ry="25.478928"
       d="m 549.8084,91.858238 a 26.484674,25.478928 0 1 1 -52.96934,0 26.484674,25.478928 0 1 1 52.96934,0 z"
       transform="matrix(0.50380726,0,0,0.50578107,697.87127,964.01955)" />
    <path
       sodipodi:type="arc"
       style="fill:#2dc5df;fill-opacity:1;stroke:#000000;stroke-width:1.98100924;stroke-linecap:butt;stroke-linejoin:round;stroke-miterlimit:4;stroke-opacity:1;stroke-dasharray:none"
       id="path2985-8-3-2"
       sodipodi:cx="523.32373"
       sodipodi:cy="91.858238"
       sodipodi:rx="26.484674"
       sodipodi:ry="25.478928"
       d="m 549.8084,91.858238 a 26.484674,25.478928 0 1 1 -52.96934,0 26.484674,25.478928 0 1 1 52.96934,0 z"
       transform="matrix(0.50380726,0,0,0.50578107,598.14741,863.7497)" />
    <image
       y="675.69647"
       x="910.35309"
       id="image4022"
       xlink:href="http://www.erp5.com/P-OSOE-Pre.Trade.Stick.Man.Blue.with.Lie?format=png"
       height="78.972099"
       width="82.574844" />
    <image
       y="755.57953"
       x="911.42548"
       id="image4087"
       xlink:href="http://www.erp5.com/P-OSOE-Pre.Trade.Stick.Man.Blue.with.Lie?format=png"
       height="78.972099"
       width="82.574844" />
    <image
       y="876.10986"
       x="413.91217"
       id="image4152"
       xlink:href="http://www.erp5.com/P-OSOE-Trade.Processus.Opened.Small.Box?format=png"
       height="144.85793"
       width="177.4019" />
    <image
       y="864.18353"
       x="-706.76196"
       id="image4217-4"
       xlink:href="http://www.erp5.com/P-OSOE-Trade.Processus.Small.Truck?format=png"
       height="32.843033"
       width="75.131256"
       transform="scale(-1,1)" />
    <image
       y="896.48395"
       x="-707.27484"
       id="image4217-1-9"
       xlink:href="http://www.erp5.com/P-OSOE-Trade.Processus.Small.Truck?format=png"
       height="32.843033"
       width="75.131256"
       transform="scale(-1,1)" />
    <image
       y="926.48395"
       x="-707.27484"
       id="image4217-0-0"
       xlink:href="http://www.erp5.com/P-OSOE-Trade.Processus.Small.Truck?format=png"
       height="32.843033"
       width="75.131256"
       transform="scale(-1,1)" />
    <image
       y="960.48401"
       x="-707.27484"
       id="image4217-6-1"
       xlink:href="http://www.erp5.com/P-OSOE-Trade.Processus.Small.Truck?format=png"
       height="32.843033"
       width="75.131256"
       transform="scale(-1,1)" />
    <image
       y="992.48401"
       x="-707.27484"
       id="image4217-3-2"
       xlink:href="http://www.erp5.com/P-OSOE-Trade.Processus.Small.Truck?format=png"
       height="32.843033"
       width="75.131256"
       transform="scale(-1,1)" />
    <path
       style="fill:none;stroke:#000000;stroke-width:1px;stroke-linecap:butt;stroke-linejoin:miter;stroke-opacity:1;marker-end:url(#Arrow1Lend)"
       d="m 712.57795,1012.0774 c 212.85521,0 212.85521,0 212.85521,0"
       id="path4259"
       inkscape:connector-curvature="0" />
    <path
       style="fill:none;stroke:#000000;stroke-width:1px;stroke-linecap:butt;stroke-linejoin:miter;stroke-opacity:1;marker-end:url(#Arrow1Lend-2)"
       d="m 713.37362,976.81075 c 189.98647,1.7592 189.98647,1.7592 189.98647,1.7592"
       id="path4729"
       inkscape:connector-curvature="0" />
    <path
       style="fill:none;stroke:#000000;stroke-width:1px;stroke-linecap:butt;stroke-linejoin:miter;stroke-opacity:1;marker-end:url(#Arrow1Lend-2)"
       d="m 713.37362,943.94205 c 158.32206,0 158.32206,0 158.32206,0"
       id="path4917"
       inkscape:connector-curvature="0" />
    <path
       style="fill:none;stroke:#000000;stroke-width:1px;stroke-linecap:butt;stroke-linejoin:miter;stroke-opacity:1;marker-end:url(#Arrow1Lend-2)"
       d="m 713.37362,912.03676 c 124.89851,0.87956 125.77808,0.87956 125.77808,0.87956"
       id="path5105"
       inkscape:connector-curvature="0" />
    <path
       style="fill:none;stroke:#000000;stroke-width:1px;stroke-linecap:butt;stroke-linejoin:miter;stroke-opacity:1;marker-end:url(#Arrow1Lend-2)"
       d="m 712.49405,878.52931 c 87.9567,0.87957 87.9567,0.87957 87.9567,0.87957"
       id="path5291"
       inkscape:connector-curvature="0" />
    <image
       y="781.70526"
       x="861.49335"
       id="image5549-0"
       xlink:href="http://www.erp5.com/P-OSOE-Trade.Processus.White.Paper?format=png"
       height="37.488499"
       width="33.116371" />
    <image
       y="799.93799"
       x="851.73627"
       id="image5614-0"
       xlink:href="http://www.erp5.com/P-OSOE-Trade.Processus.Hand.Wrist?format=png"
       height="44.451962"
       width="55.751015" />
    <image
       y="691.91888"
       x="844.87836"
       id="image5679-6"
       xlink:href="http://www.erp5.com/P-OSOE-Trade.Processus.Cash.Register?format=png"
       height="50.58728"
       width="56.021648" />
    <path
       style="fill:none;stroke:#000000;stroke-width:1px;stroke-linecap:butt;stroke-linejoin:miter;stroke-opacity:1"
       d="M 834.53465,872.45624 952.39662,841.6714"
       id="path5682-3"
       inkscape:connector-curvature="0" />
    <path
       style="fill:none;stroke:#000000;stroke-width:1px;stroke-linecap:butt;stroke-linejoin:miter;stroke-opacity:1"
       d="m 874.11516,905.00022 76.52233,-62.44926"
       id="path5684-9"
       inkscape:connector-curvature="0" />
    <path
       style="fill:none;stroke:#000000;stroke-width:1px;stroke-linecap:butt;stroke-linejoin:miter;stroke-opacity:1"
       d="M 911.93654,936.66465 949.75792,841.6714"
       id="path5686-0"
       inkscape:connector-curvature="0" />
    <path
       style="fill:none;stroke:#000000;stroke-width:1px;stroke-linecap:butt;stroke-linejoin:miter;stroke-opacity:1"
       d="M 938.32355,968.32905 949.75792,843.43053"
       id="path5688-8"
       inkscape:connector-curvature="0" />
    <path
       style="fill:none;stroke:#000000;stroke-width:1px;stroke-linecap:butt;stroke-linejoin:miter;stroke-opacity:1"
       d="M 969.98796,999.11395 949.75792,843.43053"
       id="path5690-3"
       inkscape:connector-curvature="0" />
    <text
       xml:space="preserve"
       style="font-size:27.59600067px;font-style:normal;font-weight:normal;line-height:125%;letter-spacing:0px;word-spacing:0px;fill:#000000;fill-opacity:1;stroke:none;font-family:Sans"
       x="499.57077"
       y="774.00958"
       id="text4005-8"
       sodipodi:linespacing="125%"><tspan
         sodipodi:role="line"
         id="tspan4007-7"
         x="499.57077"
         y="774.00958">Purchase Packing List</tspan></text>
  </g>
</svg>
