<svg width="442" height="442" xmlns="http://www.w3.org/2000/svg">
 <g>
  <title>background</title>
  <rect x="-1" y="-1" width="444" height="444" id="canvas_background" fill="none"/>
 </g>

 <g>
  <title>Layer 1</title>
  <path fill="none" d="m376.865,255.699c-3.242,41.214 -11.062,79.647 -23.599,113.514c50.455,-3.396 72.019,-32.736 72.019,-62.119c0,-22.779 -17.919,-45.148 -48.42,-51.395z" id="svg_2"/>
  <path fill="none" d="m358.394,210.563c-3.877,-4.276 -18.431,-13.962 -54.253,-22.41c-36.689,-8.653 -84.195,-13.419 -133.763,-13.419c-49.565,0 -97.07,4.767 -133.76,13.419c-35.822,8.448 -50.376,18.134 -54.252,22.41c3.876,4.274 18.431,13.961 54.252,22.41c36.689,8.652 84.194,13.417 133.76,13.417c49.566,0 97.072,-4.765 133.763,-13.417c35.822,-8.45 50.376,-18.137 54.253,-22.41z" id="svg_3"/>
  <path d="m368.35498,209.84914c0.02815,-1.99592 0.04222,-3.99973 0.04222,-6.00905c0,-24.05827 -81.98779,-43.56208 -183.12192,-43.56208c-101.13325,0 -183.11928,19.50381 -183.11928,43.56208c0,129.87542 58.38531,235.15991 183.11928,235.15991c73.35782,0 123.75779,-36.42387 152.83743,-92.83773c2.93382,0.21276 5.89051,0.36011 8.8982,0.36011c51.26974,0 92.83307,-31.01131 92.83307,-69.26564c0,-32.77242 -30.50962,-60.21107 -71.489,-67.4076zm-65.44283,11.64934c-32.26587,6.81751 -74.04466,10.57218 -117.63687,10.57218c-43.58957,0 -85.36749,-3.75467 -117.63423,-10.57218c-31.50339,-6.65677 -44.3028,-14.29061 -47.71152,-17.65918c3.40872,-3.36856 16.20901,-11.00083 47.71152,-17.6576c32.26586,-6.81829 74.04378,-10.57375 117.63423,-10.57375c43.59045,0 85.36924,3.75625 117.63687,10.57375c31.50339,6.65677 44.30279,14.28904 47.71239,17.6576c-3.4096,3.36857 -16.209,11.00163 -47.71239,17.65918zm43.20437,107.35369c11.02557,-26.68457 17.90193,-56.97016 20.75484,-89.44552c26.82212,4.92244 42.58173,22.54852 42.58173,40.49767c-0.00176,23.15289 -18.9643,46.27033 -63.33657,48.94785z" id="svg_4" fill="#9ACEE6" stroke="null"/>
  <path d="m210.689,129.078c28.191,-42.617 -49.313,-88.43 4.219,-126.078c-44.528,2.943 -52.161,30.188 -40.935,51.461c10.656,20.191 36.676,34.271 36.716,74.617z" id="svg_5" fill="#8391AE"/>
  <path d="m181.162,153.501c12.646,-35.708 -59.268,-64.515 -19.553,-105.806c-37.209,10.992 -36.253,41.592 -20.227,58.701c11.568,12.354 32.523,18.086 39.78,47.105z" id="svg_6" fill="#8391AE"/>
  <g id="svg_11">
   <text fill="#ffffff" stroke-width="0" stroke-opacity="null" x="87" y="343.5" id="svg_7" font-size="84" font-family="'Courier New', Courier, monospace" text-anchor="start" xml:space="preserve" stroke="null">ERP</text>
   <text fill="#005fbf" stroke="null" stroke-width="0" stroke-opacity="null" x="235" y="343.5" id="svg_9" font-size="84" font-family="'Courier New', Courier, monospace" text-anchor="start" xml:space="preserve">5</text>
  </g>
 </g>
</svg>