<svg width="800" height="800" xmlns="http://www.w3.org/2000/svg">
 <style type="text/css">
  <![CDATA[
	.st0{fill:#0082b9;}
	.st1{fill:#CCE6F1;}
	.st2{fill:#FCEA0D;}
	.st3{fill:#FFFFFF;}
	.st4{fill:#0082B9;}
	.st5{fill:#D9D9D9;}
	.st6{fill:#0A506D;}
]]>
 </style>

 <g>
  <title>background</title>
  <rect fill="none" id="canvas_background" height="802" width="802" y="-1" x="-1"/>
 </g>
 <g>
  <title>Layer 1</title>
  <g id="svg_1" stroke="null">
   <path id="svg_2" d="m798.00732,504.09964c-35.8938,179.46907 -212.09982,221.88906 -451.39192,219.71368l0,-318.69357l451.39192,98.97989z" class="st1" stroke="null"/>
   <path id="svg_3" d="m747.97352,405.11975c0,212.09982 -182.73212,318.69357 -401.35812,318.69357l0,-415.49812l401.35812,96.80455z" class="st0" stroke="null"/>
   <path id="svg_4" d="m346.61544,723.81331l0,0c-189.2583,3.26305 -342.6228,-135.96145 -341.53513,-317.6059c0,-105.50608 0,-156.62755 0,-262.13362c118.55836,16.31538 231.67829,7.61385 341.53513,-54.38456l0,634.12408z" class="st4" stroke="null"/>
   <path id="svg_5" d="m508.68141,175.61684c0,21.75385 -19.57843,35.89385 -43.50766,31.54309l-76.13837,-13.05233c-23.92923,-4.35076 -43.50766,-25.0169 -43.50766,-46.77071l0,-88.10303c0,-21.75381 19.57843,-35.8938 43.50766,-31.54304l76.13837,13.05228c23.92923,4.35076 43.50766,25.0169 43.50766,46.77075l0,88.10299z" class="st6" stroke="null"/>
   <path id="svg_6" d="m644.64286,128.84613l-137.04912,-19.57847c-14.14,-2.17538 -26.10461,2.17538 -34.80614,9.78924c-45.68304,-17.40305 -91.36608,-30.45537 -126.17222,-30.45537l0,635.21179c189.2583,3.26305 342.6228,-135.96141 341.53513,-317.6059c0,-59.82304 0,-109.85684 0,-142.48755c0,-25.0169 0,-39.1569 0,-39.1569l0,-48.94613c0,-21.75381 -19.57847,-42.41995 -43.50766,-46.77071l0.00001,0z" class="st6" stroke="null"/>
   <path id="svg_7" d="m89.92025,226.73835l0,58.73532c0,0 63.08609,13.05228 131.61065,-5.43847l0,240.37981c-68.52452,-16.31538 -134.87369,-82.66456 -132.69831,-80.48918l0,72.87532c85.92761,97.89222 194.69673,98.97993 194.69673,98.97993l0,-412.23503c0,-1.08771 -100.0676,40.24457 -193.60906,27.19228l-0.00001,0.00002z" class="st3" stroke="null"/>
   <path id="svg_8" d="m598.95983,369.2259l-140.31221,-31.54304l0,-67.43685l140.31221,25.0169l0,-61.99842l-196.87216,-34.80614l-1.08767,191.43368l141.39988,33.71842l0,55.47227c-45.68304,41.33228 -141.39988,63.08609 -141.39988,63.08609l0,67.43689c0,0 113.11989,-4.35076 197.95982,-102.24298l0,-138.13683l0.00001,0.00001z" class="st5" stroke="null"/>
  </g>
 </g>
</svg>