<svg width="512" height="512" xmlns="http://www.w3.org/2000/svg">

 <g>
  <title>background</title>
  <rect fill="none" id="canvas_background" height="552" width="822" y="-1" x="-1"/>
 </g>
 <g>
  <title>Layer 1</title>
  <g stroke="null" id="svg_1">
   <polygon stroke="null" id="svg_2" fill="#63FF90" points="448.39349365234375,168.45242309570312 441.53802490234375,182.02325439453125 439.25286865234375,186.54684448242188 427.37005615234375,210.06854248046875 329.91729736328125,210.06854248046875 332.79656982421875,204.37486267089844 337.36688232421875,195.32766723632812 366.1644287109375,138.31768798828125 368.4495849609375,133.79408264160156 375.3050537109375,120.22327423095703 387.1787414550781,128.05860900878906 391.1365966796875,130.67039489746094 413.24322509765625,145.2598114013672 417.81353759765625,148.2738037109375 422.38385009765625,151.2877960205078 432.5619201660156,158.0052947998047 436.51983642578125,160.61708068847656 "/>
   <path stroke="null" id="svg_3" fill="#41A85F" d="m439.25287,186.54685l-11.88281,23.5217l-97.45277,0l2.8793,-5.69368l4.57031,-9.04721l28.79754,-57.00996c1.36652,0.90368 2.79246,1.58274 4.24582,2.04241c6.3893,2.03719 13.29504,-0.08358 17.93848,-5.49519c1.06031,-1.23276 1.99723,-2.63268 2.78789,-4.19452l22.1066,14.58941l4.57031,3.014l4.57031,3.014l10.17809,6.7175c-0.79066,1.56185 -1.38023,3.1916 -1.78699,4.85269c-1.78242,7.30776 0.06855,15.20057 4.80797,20.50248c1.07859,1.21187 2.30344,2.2827 3.66996,3.18637l-0.00001,0z"/>
   <path stroke="null" id="svg_4" fill="#63FF90" d="m492.19994,210.57523l-1.81441,1.1962c-2.02922,-0.9977 -4.24582,-1.59319 -6.57668,-1.68721c-0.21938,-0.01045 -0.43875,-0.01567 -0.6627,-0.01567l-158.97832,0l0.71297,-0.47012l15.83156,-10.44713l72.53086,-47.86351l4.57031,-3.014l4.57031,-3.014l11.78227,-7.77788l3.95789,-2.61178l11.87367,-7.83534l6.85547,13.57082l2.28516,4.52361l23.92102,47.34637l2.28516,4.52361l6.85547,13.57604l-0.00001,-0.00001z"/>
   <path stroke="null" id="svg_5" fill="#41A85F" d="m483.05932,192.47559c-1.36652,0.90368 -2.59137,1.97451 -3.66996,3.18637c-3.4323,3.84454 -5.35184,9.05243 -5.46609,14.40659l-149.75543,0l0.71297,-0.47012l15.83156,-10.44713l72.53086,-47.86351l4.57031,-3.014l4.57031,-3.014l11.78227,-7.77788c0.79066,1.56185 1.72758,2.96176 2.78789,4.19452c4.64344,5.41161 11.54918,7.53238 17.93848,5.49519c1.45336,-0.45967 2.8793,-1.13874 4.24582,-2.04241l23.92102,47.34637l-0.00001,0.00001z"/>
   <path stroke="null" id="svg_6" fill="#CCC3BB" d="m414.3858,210.06855l-40.61637,0c0.00457,-0.04179 0.00914,-0.08358 0.01371,-0.12014c0.73125,-7.04659 3.87105,-13.2574 9.11777,-16.72062c9.69363,-6.39364 22.91098,-0.98203 29.51508,12.09255c0.78152,1.5514 1.43965,3.13936 1.9698,4.74822l0.00001,-0.00001z"/>
   <path stroke="null" id="svg_7" fill="#FAC51C" class="active-path" d="m501.42969,230.9628l0,114.91838c0,11.53885 -8.18543,20.89425 -18.28125,20.89425l-188.29688,0c-10.09582,0 -18.28125,-9.3554 -18.28125,-20.89425l0,-114.91838c0,-11.53885 8.18543,-20.89425 18.28125,-20.89425l188.29688,0c10.09582,0 18.28125,9.3554 18.28125,20.89425z"/>
   <path stroke="null" id="svg_8" fill="#F7941E" d="m501.42969,257.08061l0,62.68275l-36.5625,0c-10.09582,0 -18.28125,-9.3554 -18.28125,-20.89425l0,-20.89425c0,-11.53885 8.18543,-20.89425 18.28125,-20.89425l36.5625,0z"/>
   <circle stroke="null" id="svg_9" fill="#CCC3BB" r="4.77466" cy="288.42251" cx="474.00781"/>
   <path stroke="null" id="svg_10" fill="#000000" d="m294.85156,225.73924c-2.52418,0 -4.57031,2.33859 -4.57031,5.22356l0,114.91838c0,2.88497 2.04613,5.22356 4.57031,5.22356s4.57031,-2.33859 4.57031,-5.22356l0,-114.91838c0,-2.88497 -2.04613,-5.22356 -4.57031,-5.22356z"/>
   <path stroke="null" id="svg_11" fill="#000000" d="m496.73598,209.9787c-0.06855,-0.69003 -0.25548,-1.37589 -0.57814,-2.01525l-42.20227,-83.54044c-0.60328,-1.20142 -1.60418,-2.07375 -2.77418,-2.43418s-2.4177,-0.17238 -3.46887,0.52236l-29.89898,19.7294l-24.39176,-16.0938l-15.83156,-10.44713c-1.05117,-0.69473 -2.29887,-0.87756 -3.46887,-0.52236c-1.17,0.36043 -2.1709,1.23276 -2.77418,2.43418l-41.89605,82.93973l-6.50721,4.29377l-28.09234,0c-12.60035,0 -22.85156,11.71645 -22.85156,26.11781l0,114.91838c0,14.40136 10.25121,26.11781 22.85156,26.11781l188.29688,0c12.60035,0 22.85156,-11.71645 22.85156,-26.11781l0,-114.91838c0,-8.5891 -3.64757,-16.22125 -9.26402,-20.9841l-0.00001,0.00001zm-14.96092,-9.58942l2.26505,4.48182c-0.29616,-0.01306 -0.59277,-0.02612 -0.89167,-0.02612l-3.70013,0c0.55072,-1.60625 1.33042,-3.11638 2.32675,-4.4557zm-33.45012,-66.2191l4.17727,8.27412c-0.81809,0.1776 -1.64988,0.2664 -2.48625,0.2664c-3.30891,0 -6.46699,-1.37902 -8.92125,-3.77141l7.23023,-4.76911zm-71.34715,-6.81153l7.23023,4.76911c-2.45426,2.39762 -5.61234,3.77141 -8.92125,3.77141c-0.83637,0 -1.66816,-0.0888 -2.48625,-0.2664l4.17727,-8.27412zm-8.91211,17.63997c2.32172,0.88801 4.76227,1.34768 7.22109,1.34768c6.59496,0 12.8243,-3.2804 17.12039,-8.80693l16.26574,10.73442l-63.39023,41.83029l22.78301,-45.10546zm64.82988,-0.64772c4.29609,5.52653 10.52543,8.80693 17.12039,8.80693c2.45883,0 4.89938,-0.45967 7.22109,-1.34768l19.80773,39.20806c-3.65716,3.69933 -6.0936,8.57605 -7.12603,13.82677l-52.55265,0c-0.31032,-0.71772 -0.63619,-1.43178 -0.99221,-2.13644c-5.42039,-10.72397 -14.83066,-17.38924 -24.55629,-17.38924c-3.9716,0 -7.84266,1.17008 -11.20184,3.38487c-5.24352,3.46061 -8.94684,9.13601 -10.60587,16.14081l-28.78611,0l91.67179,-60.49408zm-26.27061,60.49408l-26.94519,0c1.20245,-3.04847 3.08587,-5.49571 5.50631,-7.0936c2.0018,-1.31634 4.23211,-1.98495 6.63152,-1.98495c5.43456,0 10.97561,3.4768 14.80736,9.07855zm90.23442,109.69482l-31.99219,0c-7.56021,0 -13.71094,-7.02987 -13.71094,-15.67069l0,-20.89425c0,-8.64082 6.15073,-15.67069 13.71094,-15.67069l31.99219,0l0,52.23563zm0,-62.68275l-9.14063,0l0,-20.89425c0,-2.88497 -2.04613,-5.22356 -4.57031,-5.22356s-4.57031,2.33859 -4.57031,5.22356l0,20.89425l-13.71094,0c-12.60035,0 -22.85156,11.71645 -22.85156,26.11781l0,20.89425c0,14.40136 10.25121,26.11781 22.85156,26.11781l13.71094,0l0,20.89425c0,2.88497 2.04613,5.22356 4.57031,5.22356s4.57031,-2.33859 4.57031,-5.22356l0,-20.89425l9.14063,0l0,20.89425c0,8.64082 -6.15073,15.67069 -13.71094,15.67069l-188.29688,0c-7.56021,0 -13.71094,-7.02987 -13.71094,-15.67069l0,-114.91838c0,-8.64082 6.15073,-15.67069 13.71094,-15.67069l188.29688,0c7.56021,0 13.71094,7.02987 13.71094,15.67069l0,20.89425l0,0.00001z"/>
   <path stroke="null" id="svg_12" fill="#000000" d="m460.29688,288.42199c0,8.64082 6.15073,15.67069 13.71094,15.67069s13.71094,-7.02987 13.71094,-15.67069s-6.15073,-15.67069 -13.71094,-15.67069s-13.71094,7.02987 -13.71094,15.67069zm13.71094,-5.22356c2.52007,0 4.57031,2.34329 4.57031,5.22356s-2.05024,5.22356 -4.57031,5.22356s-4.57031,-2.34329 -4.57031,-5.22356s2.05024,-5.22356 4.57031,-5.22356z"/>
  </g>
  <g id="svg_13" stroke="null">
   <circle cx="162.09203" cy="130.497" r="18.42258" class="active-path" fill="#130103" id="svg_14" stroke="null"/>
   <path d="m245.77442,204.88622c-29.95806,-2.80313 -59.00397,-32.29394 -66.31392,-36.37801c-4.48528,-2.94545 -9.78909,-4.87429 -14.86275,-5.59417c0,0 -3.60635,-0.68086 -7.33351,-0.30664c-3.56708,0.36049 -8.9911,0.52809 -16.93292,5.91344c-0.57508,0.32532 -4.63207,3.53839 -5.91151,4.93858c-9.88454,9.3205 -37.27466,36.88303 -50.90871,68.06254c-1.92701,4.42917 -0.70436,9.24027 2.6519,12.48521l-16.0117,25.95407l-22.55569,-11.52684c-2.69238,-1.37821 -6.10965,-0.51765 -7.62226,1.93488l-42.69204,68.6247c-1.5114,2.44978 -0.55515,5.57218 2.14387,6.93611l17.07549,8.73525c-2.71835,4.4017 -2.06414,10.09588 2.04239,13.88101c4.95163,4.59788 13.08676,4.65393 18.13262,0.13628c4.69007,-4.20881 5.07305,-10.89159 1.09882,-15.49936l23.31139,-37.20505l16.33126,-26.47282l20.24267,-31.92247c4.37715,-0.6336 8.30004,-3.28781 10.06274,-7.31418c5.77016,-13.21663 14.70569,-25.95023 23.33495,-36.50221l4.06666,42.51401c0.47118,4.99408 2.75822,9.18366 6.14831,12.49071c-10.48439,17.29575 -38.69968,64.59173 -48.88626,80.6604c-4.56321,7.21142 -1.8509,16.42531 6.07159,20.58191c2.97448,1.55076 6.26611,2.18986 9.45383,1.98049c5.302,-0.34895 10.31887,-3.0136 13.16951,-7.51201c9.49068,-14.96687 34.244,-60.39061 45.1011,-77.46491c8.70417,13.15838 23.53429,37.37266 42.34832,76.04054c2.73527,5.63483 8.79719,8.9743 15.15995,8.9743c2.25019,0 4.5179,-0.41159 6.70225,-1.29358c8.36045,-3.36474 12.14379,-12.26155 8.43535,-19.86588c-22.18659,-45.63202 -38.52269,-70.96348 -47.5736,-84.3043c3.57735,-4.08517 5.7321,-9.16333 5.1685,-15.12238l-3.84919,-40.26865c11.14948,8.09835 25.6981,14.92071 50.53902,17.25729c0.46152,0.04506 0.90853,0.06539 1.36038,0.06539c6.57962,0 12.23682,-4.52919 12.92788,-10.61738c0.72369,-6.50967 -4.47199,-12.32695 -11.6267,-12.99627l0.00001,0zm-218.35202,160.1058c-2.57942,0 -4.67134,-1.90246 -4.67134,-4.24728s2.09192,-4.24728 4.67134,-4.24728c2.57639,0 4.66892,1.90191 4.66892,4.24728c-0.00121,2.34647 -2.09192,4.24728 -4.66892,4.24728z" class="active-path" fill="#130103" id="svg_15" stroke="null"/>
  </g>
 </g>
</svg>