<svg width="400" height="400" xmlns="http://www.w3.org/2000/svg" style="vector-effect: non-scaling-stroke;" stroke="null">

 <g stroke="null">
  <title stroke="null">background</title>
  <rect stroke="null" fill="none" id="canvas_background" height="402" width="402" y="-1" x="-1"/>
 </g>
 <g stroke="null">
  <title stroke="null">Layer 1</title>
  <rect rx="20" id="svg_22" height="360" width="360" y="20" x="20" stroke-opacity="null" stroke-width="null" stroke="null" fill="#aaffff"/>
  <g stroke="null" id="svg_14">
   <path fill="#05325e" id="svg_1" d="m202.75563,323.76873l137.78146,-27.55629c6.24609,-1.46967 11.02252,-6.98093 11.02252,-13.59444l0,-165.33775c0,-6.61351 -4.77642,-12.12477 -11.02252,-13.59444l-137.78146,-27.55629c-7.34834,-1.46967 -14.69669,3.30676 -16.16636,10.6551c0,0.73483 -0.36742,1.83709 -0.36742,2.57192l0,220.45034c0,7.71576 6.24609,13.96185 13.59444,13.96185c1.10225,0.36742 2.2045,0 2.93934,0zm11.02252,-217.14358l110.22517,22.04503l0,142.55788l-110.22517,22.41245l0,-187.01537z"/>
   <path fill="#05325e" stroke="null" id="svg_2" d="m137.35537,322.29906l27.55629,-13.96185c6.98093,-3.30676 9.55285,-11.75735 6.24609,-18.37086c-3.30676,-6.98093 -11.75735,-9.55285 -18.37086,-6.24609c0,0 0,0 -0.36742,0l-7.71576,3.67417l0,-175.25802l7.71576,3.67417c6.61351,3.30676 15.06411,0.73483 18.37086,-5.87868c3.30676,-6.61351 0.73483,-15.06411 -5.87868,-18.37086c0,0 0,0 -0.36742,0l-27.55629,-13.96185c-6.98093,-3.30676 -15.06411,-0.73483 -18.37086,6.24609c-1.10225,1.83709 -1.46967,4.04159 -1.46967,6.24609l0,220.45034c0,7.71576 6.24609,13.59444 13.96185,13.59444c2.2045,-0.36742 4.40901,-0.73483 6.24609,-1.83709z"/>
   <path fill="#05325e" stroke="null" id="svg_3" d="m68.64835,322.29906l27.55629,-13.96185c6.98093,-3.30676 9.55285,-11.75735 6.24609,-18.37086c-3.30676,-6.98093 -11.75735,-9.55285 -18.37086,-6.24609c0,0 0,0 -0.36742,0l-7.71576,3.67417l0,-175.25802l7.71576,3.67417c6.61351,3.30676 15.06411,0.73483 18.37086,-5.87868c3.30676,-6.61351 0.73483,-15.06411 -5.87868,-18.37086c0,0 0,0 -0.36742,0l-27.55629,-13.96185c-6.98093,-3.30676 -15.06411,-0.73483 -18.37086,6.24609c-1.10225,1.83709 -1.46967,4.04159 -1.46967,6.24609l0,220.45034c0,7.71576 6.24609,13.59444 13.96185,13.59444c2.2045,-0.36742 4.40901,-0.73483 6.24609,-1.83709z"/>
  </g>
  <g id="svg_21">
   <path fill="#05325e" id="svg_18" d="m373.30882,122.19555a7.39556,7.39556 0 0 1 -2.13333,5.24445l-72.99556,72.97778a7.39556,7.39556 0 0 1 -3.27111,1.92l-40.64001,11.37778a7.41333,7.41333 0 0 1 -1.93777,0.26667l0,0a7.39556,7.39556 0 0 1 -7.11112,-9.31556l10.82667,-40.72889a7.41333,7.41333 0 0 1 1.88445,-3.28889l72.97778,-73.10223a7.39556,7.39556 0 0 1 5.22666,-2.18666l0.19556,0a37.03111,37.03111 0 0 1 36.97778,36.83555zm-84.32,66.52445a22.20445,22.20445 0 0 0 -19.18223,-18.98666l-4.24889,15.87555a14.86222,14.86222 0 0 1 7.59111,7.50222l15.84001,-4.39111z"/>
  </g>
 </g>
</svg>