<svg width="400" height="400" xmlns="http://www.w3.org/2000/svg">
 <title/>

 <g>
  <title>background</title>
  <rect fill="none" id="canvas_background" height="402" width="402" y="-1" x="-1"/>
 </g>
 <g>
  <title>Layer 1</title>
  <g stroke="null" id="svg_5">
   <g stroke="null" id="gloss" fill-rule="evenodd" fill="none">
    <g stroke="null" id="facebook">
     <path stroke="null" id="Facebook" fill="#E40D0A" d="m200.000008,399.750107c110.318917,0 199.750099,-89.431182 199.750099,-199.750099c0,-110.318917 -89.431182,-199.750099 -199.750099,-199.750099c-110.318917,0 -199.750099,89.431182 -199.750099,199.750099c0,110.318917 89.431182,199.750099 199.750099,199.750099z"/>
     <path stroke="null" id="svg_1" fill="#000000" d="m341.244634,58.755381c36.14771,36.147644 58.505472,86.085168 58.505472,141.244627c0,110.318917 -89.431182,199.750099 -199.750099,199.750099c-55.159458,0 -105.096983,-22.357762 -141.244627,-58.505472l282.489254,-282.489254z"/>
     <path stroke="null" id="svg_2" fill="#FFFFFF" d="m169.785941,315.284512l0,-115.291429l-23.430221,0l0,-38.216189l23.430221,0l0,-23.110887c0,-31.172668 9.32014,-53.651345 43.451506,-53.651345l40.604268,0l0,38.137754l-28.59163,0c-14.317821,0 -17.580539,9.514364 -17.580539,19.477765l0,19.146713l44.061876,0l-6.014143,38.216189l-38.047733,0l0,115.291429l-37.883605,0z"/>
    </g>
   </g>
   <rect stroke="#ffffff" id="svg_3" height="51.602099" width="46.608348" y="77.236949" x="241.19847" stroke-width="1.5" fill="#fff"/>
   <path stroke="#ffffff" id="svg_4" d="m213.947137,130.172797l0,-51.602101l-70.744801,51.602101l70.744801,0z" stroke-width="1.5" fill="#fff"/>
  </g>
 </g>
</svg>